<ttFont>
<head>
        <!-- Most of this table will be recalculated by the compiler -->
        <tableVersion value="1.0"/>
        <fontRevision value="1.002"/>
        <checkSumAdjustment value="0x9cb0d3f6"/>
        <magicNumber value="0x5f0f3cf5"/>
        <flags value="00000000 00000011"/>
        <unitsPerEm value="1000"/>
        <created value="Fri Jan 15 17:58:52 2016"/>
        <modified value="Fri Jan 15 22:58:53 2016"/>
        <xMin value="-1778"/>
        <yMin value="-403"/>
        <xMax value="834"/>
        <yMax value="1262"/>
        <macStyle value="00000000 00000010"/>
        <lowestRecPPEM value="3"/>
        <fontDirectionHint value="2"/>
        <indexToLocFormat value="0"/>
        <glyphDataFormat value="0"/>
    </head>
                    <CharString index="0">
                        rmoveto
23 -52 85 28 143 60 81 57 rlinecurve
-78 93 -69 -63 -113 -82 -72 -41 rlinecurve
return
                    </CharString>
                    <CharString index="1">
                        rmoveto
181 -89 80 -123 -191 -136 -220 -235 -181 89 -80 123 192 135 219 236 vhcurveto
-409 -189 rmoveto
167 74 175 109 58 38 -48 -110 -168 -74 -175 -108 -59 -38 49 110 vhcurveto
endchar
                    </CharString>
                    <CharString index="2">
                        rmoveto
136 95 71 174 34 hvcurveto
89 458 rlineto
-14 callgsubr
-89 -460 rlineto
-95 -18 -42 -40 -65 hhcurveto
-67 -38 40 123 24 hvcurveto
83 432 rlineto
-124 hlineto
-82 -426 rlineto
-197 -39 82 -80 146 hhcurveto
endchar
                    </CharString>
                    <CharString index="3">
                        rmoveto
-70 -58 -46 -40 -51 hhcurveto
-52 -35 34 82 -35 hvcurveto
-90 -47 -21 callsubr
42 65 -55 80 hhcurveto
83 86 60 103 80 hvcurveto
return
                    </CharString>
                    <CharString index="4">
                        rmoveto
hintmask 00111100
123 8 -15 231 -18 228 -21 226 rlinecurve
-172 hlineto
hintmask 01011100
-110 -229 -108 -231 -100 -229 rrcurveto
126 hlineto
26 63 26 63 27 63 rrcurveto
206 hlineto
hintmask 10011100
3 -65 4 -64 3 -64 rrcurveto
hintmask 00111100
-42 587 rmoveto
9 hlineto
7 -100 6 -101 5 -100 rrcurveto
-160 hlineto
44 101 45 100 44 -1 callgsubr
                    </CharString>
                    <CharString index="5">
                        rmoveto
47 150 -138 -60 callsubr
-116 hmoveto
46 150 -137 -60 callsubr
return
                    </CharString>
                    <CharString index="6">
                        rmoveto
-11 60 -85 -29 -5 12 5 callgsubr
hintmask 10101110
79 404 rlineto
-117 hlineto
-70 -360 rlineto
-62 -53 -49 -31 -40 hhcurveto
-41 -15 32 74 16 hvcurveto
hintmask 10011110
77 352 -117 -7 -94 -140 55 -35 -40 -186 rlineto
-137 -30 40 -67 84 hhcurveto
61 63 39 74 66 hvcurveto
hintmask 01011110
-12 -117 57 -36 169 -1 callgsubr
                    </CharString>
                    <CharString index="7">
                        114 hlineto
76 222 48 155 46 175 rrcurveto
-14 callgsubr
-29 -144 -25 -111 -34 -155 rrcurveto
-6 hlineto
-31 265 rlineto
-72 hlineto
-134 -265 rlineto
-3 hlineto
24 150 17 114 26 146 rrcurveto
-119 hlineto
-30 -209 -22 -223 -4 -120 rrcurveto
113 hlineto
136 259 rlineto
endchar
                    </CharString>
                    <CharString index="8">
                        rmoveto
49 -22 80 62 51 88 10 87 -14 callsubr
-3 9 -65 -8 -77 -39 -70 rlinecurve
endchar
                    </CharString>
                    <CharString index="9">
                        18 80 rlineto
-204 hlineto
150 90 84 69 85 vvcurveto
93 -98 48 -195 -29 vhcurveto
-12 -83 rlineto
153 20 49 -26 -46 vvcurveto
-65 -103 -66 -167 -97 vhcurveto
-73 vlineto
return
                    </CharString>
                    <CharString index="10">
                        rmoveto
238 163 -54 61 -166 -112 -109 116 -82 -62 166 -166 rlineto
return
                    </CharString>
                    <CharString index="11">
                        rmoveto
hintmask 00111110
123 8 -15 231 -18 228 -21 226 rlinecurve
-172 hlineto
hintmask 01011110
-110 -229 -108 -231 -100 -229 rrcurveto
126 hlineto
26 63 26 63 27 63 rrcurveto
206 hlineto
hintmask 10011110
3 -65 4 -64 3 -64 rrcurveto
hintmask 00111110
-42 587 rmoveto
9 hlineto
7 -100 6 -101 5 -100 rrcurveto
-160 hlineto
44 101 45 100 44 -1 callgsubr
                    </CharString>
                    <CharString index="12">
                        rmoveto
-7 62 -153 -42 -26 23 189 454 rlinecurve
-58 27 rlineto
hintmask 11100000
-58 -28 -75 -22 -67 -12 rrcurveto
2 11 1 11 10 vvcurveto
40 -22 22 -34 -68 -67 -69 -56 -33 25 -20 39 -10 vhcurveto
-32 -61 -47 -61 -65 -75 44 -44 rcurveline
77 78 67 83 40 74 44 2 49 9 47 13 rrcurveto
return
                    </CharString>
                    <CharString index="13">
                        18 79 rlineto
-119 hlineto
76 376 -94 -7 -13 -66 -131 -15 -13 -71 127 3 return
                    </CharString>
                    <CharString index="14">
                        rmoveto
34 67 -23 116 108 vvcurveto
6 vlineto
62 111 41 142 52 vvcurveto
23 -52 13 -31 -42 -73 -177 -165 -7 vhcurveto
-53 -54 -55 -27 -37 hhcurveto
hintmask 11101110
-58 -29 63 350 124 hvcurveto
-116 -4 rlineto
-413 -154 62 -102 107 hhcurveto
72 77 44 57 61 hvcurveto
4 -93 10 -74 -22 -22 -23 -22 -97 -14 -189 15 -17 -116 rcurveline
hintmask 11011110
264 -12 122 48 39 79 rrcurveto
endchar
                    </CharString>
                    <CharString index="15">
                        rmoveto
72 55 86 84 50 60 -111 60 rcurveline
-35 -64 -64 -94 -50 -61 rrcurveto
289 -41 rmoveto
72 55 84 83 50 60 -115 54 rcurveline
-35 -64 -59 -87 -50 -60 rrcurveto
return
                    </CharString>
                    <CharString index="16">
                        rmoveto
-196 -157 -217 -235 -232 159 -93 284 98 hvcurveto
13 110 rlineto
-227 -78 -104 47 167 vvcurveto
150 84 173 118 65 12 -49 -110 -2 vhcurveto
117 1 rlineto
179 8 -43 89 -131 hhcurveto
endchar
                    </CharString>
                    <CharString index="17">
                        rmoveto
-11 60 -85 -29 -5 12 5 callgsubr
hintmask 10101100
79 404 rlineto
-117 hlineto
-70 -360 rlineto
-62 -53 -49 -31 -40 hhcurveto
-41 -15 32 74 16 hvcurveto
hintmask 10011100
77 352 -117 -7 -94 -140 55 -35 -40 -186 rlineto
-137 -30 40 -67 84 hhcurveto
61 63 39 74 66 hvcurveto
hintmask 01011100
-12 -117 57 -36 169 -1 callgsubr
                    </CharString>
                    <CharString index="18">
                        4 callsubr
hintmask 10100000
108 102 -27 71 -79 hhcurveto
-69 -73 -58 -76 -21 5 -20 8 -20 hvcurveto
-37 -34 -55 -39 -80 -52 27 -54 rcurveline
75 40 61 38 48 35 rrcurveto
hintmask 01010000
51 -69 71 -60 -50 vvcurveto
-46 -59 -22 -218 15 vhcurveto
hintmask 10010000
-3 -109 rlineto
311 -10 88 86 94 vvcurveto
endchar
                    </CharString>
                    <CharString index="19">
                        rmoveto
71 123 85 127 100 117 16 79 rcurveline
-335 hlineto
-19 -82 rlineto
235 hlineto
1 -3 -101 -114 -85 -118 -70 -119 rlinecurve
return
                    </CharString>
                    <CharString index="20">
                        40 38 -102 73 hhcurveto
59 62 62 91 54 hvcurveto
-59 34 rlineto
-60 -39 -30 -36 -24 hhcurveto
return
                    </CharString>
                    <CharString index="21">
                        -85 callsubr
326 -466 -103 callgsubr
                    </CharString>
                    <CharString index="22">
                        rmoveto
484 hlineto
15 77 rlineto
-483 hlineto
return
                    </CharString>
                    <CharString index="23">
                        rmoveto
234 57 85 128 123 vvcurveto
104 -69 52 -94 -103 -80 -66 -95 -111 126 -44 116 78 vhcurveto
-25 -60 -64 -59 -146 -29 rrcurveto
82 236 rmoveto
42 27 36 53 44 42 -26 -71 -6 0 -6 -1 -7 vhcurveto
-90 -55 -75 29 64 vvcurveto
endchar
                    </CharString>
                    <CharString index="24">
                        rmoveto
-93 -66 -58 -69 -62 54 -49 84 93 66 59 68 61 -54 50 -84 hvcurveto
return
                    </CharString>
                    <CharString index="25">
                        124 -24 52 -29 -29 vvcurveto
-30 -49 -29 -187 20 vhcurveto
return
                    </CharString>
                    <CharString index="26">
                        42 223 rlineto
hintmask 11010000
309 465 rlineto
-133 hlineto
-213 -342 rlineto
hintmask 10110000
-88 345 -128 -5 130 -455 -45 -231 rlineto
endchar
                    </CharString>
                    <CharString index="27">
                        rmoveto
50 89 rlineto
-149 64 -67 44 49 vvcurveto
hintmask 11010000
68 126 37 82 vvcurveto
39 -26 35 -73 25 vhcurveto
hintmask 11001000
101 26 39 52 45 vvcurveto
hintmask 10100000
55 -68 65 43 vvcurveto
51 84 37 199 37 vhcurveto
-21 101 rlineto
-286 -68 -90 -87 -82 vvcurveto
hintmask 11001000
-70 71 -58 -42 vvcurveto
-31 -35 -25 -131 -7 vhcurveto
-18 -85 rlineto
hintmask 11010000
93 -13 44 -26 -35 vvcurveto
hintmask 11001000
-56 -132 -35 -100 vvcurveto
-74 78 -57 211 -93 vhcurveto
endchar
                    </CharString>
                    <CharString index="28">
                        534 70 -104 callgsubr
return
                    </CharString>
                    <CharString index="29">
                        -64 callgsubr
hintmask 10001010
57 69 179 109 vvcurveto
60 -24 49 -75 -67 -71 -39 -74 -72 vhcurveto
hintmask 01010100
6 43 7 52 1 8 -118 -7 rcurveline
-23 -163 -25 -125 -50 -262 rrcurveto
117 hlineto
hintmask 10100010
7 37 52 259 14 72 rrcurveto
56 58 50 29 38 hhcurveto
33 14 -20 -35 hvcurveto
hintmask 10001100
-37 callgsubr
                    </CharString>
                    <CharString index="30">
                        rmoveto
48 150 -142 -1 -37 -150 rlineto
return
                    </CharString>
                    <CharString index="31">
                        rmoveto
-383 hlineto
-20 -101 rlineto
384 hlineto
return
                    </CharString>
                    <CharString index="32">
                        rmoveto
-11 63 -218 -45 -18 15 26 96 rlinecurve
96 369 -102 1 rlineto
hintmask 11010000
-232 -56 9 -62 184 16 -78 -289 rlineto
hintmask 10110000
-47 -172 95 -62 296 126 rrcurveto
endchar
                    </CharString>
                    <CharString index="33">
                        -44 -221 rlineto
-130 hlineto
-15 -78 rlineto
return
                    </CharString>
                    <CharString index="34">
                        rmoveto
2 -87 -8 -80 -42 -94 51 -20 rcurveline
77 91 40 89 13 106 rrcurveto
return
                    </CharString>
                    <CharString index="35">
                        -14 114 -112 103 462 -20 25 -20 return
                    </CharString>
                    <CharString index="36">
                        -74 callsubr
-110 -54 callsubr
return
                    </CharString>
                    <CharString index="37">
                        rmoveto
125 66 118 97 31 25 -11 -22 18 vhcurveto
-232 -260 rlineto
-3 15 -2 17 18 vvcurveto
107 -145 rmoveto
-30 -24 10 20 -18 hvcurveto
231 258 rlineto
3 -13 1 -16 -16 vvcurveto
-126 -67 -117 -96 vhcurveto
-17 -97 rmoveto
172 128 162 193 hvcurveto
return
                    </CharString>
                    <CharString index="38">
                        -35 callsubr
hintmask 00111000
-132 -684 rlineto
hintmask 10011000
393 -51 156 228 251 vvcurveto
-124 -12 rmoveto
hintmask 01011000
-175 -93 -157 -189 13 vhcurveto
95 494 rlineto
hintmask 10011000
126 12 61 -59 -128 vvcurveto
endchar
                    </CharString>
                    <CharString index="39">
                        -26 callgsubr
174 -21 hstemhm
143 110 hintmask 01110000
418 48 rmoveto
hintmask 10110000
-199 -62 -76 -73 -64 -34 callsubr
hintmask 01110000
-13 55 -21 callsubr
-36 -42 17 35 vvcurveto
35 55 43 145 39 vhcurveto
endchar
                    </CharString>
                    <CharString index="40">
                        -14 107 501 108 hstem
64 130 279 130 vstem
return
                    </CharString>
                    <CharString index="41">
                        hstem
51 122 194 114 vstem
return
                    </CharString>
                    <CharString index="42">
                        63 112 51 134 47 vvcurveto
22 -49 20 -29 -10 -13 -10 -18 -12 vhcurveto
return
                    </CharString>
                    <CharString index="43">
                        -12 103 114 67 198 98 return
                    </CharString>
                    <CharString index="44">
                        hintmask 10011000
420 -8 rmoveto
hintmask 00111000
131 16 -164 336 277 344 rlineto
-133 hlineto
-278 -344 rlineto
-73 344 rmoveto
hintmask 01011000
-33 callsubr
124 hlineto
20 callgsubr
return
                    </CharString>
                    <CharString index="45">
                        rmoveto
-294 -206 -112 -169 -186 vvcurveto
-137 64 -147 157 -182 vhcurveto
93 67 rlineto
-143 158 -53 124 119 vvcurveto
155 80 142 273 183 vhcurveto
endchar
                    </CharString>
                    <CharString index="46">
                        -82 callsubr
-12 -84 rlineto
return
                    </CharString>
                    <CharString index="47">
                        -2 -37 -150 rlineto
return
                    </CharString>
                    <CharString index="48">
                        rmoveto
198 hlineto
21 106 rlineto
-521 hlineto
-21 -106 rlineto
197 hlineto
-112 -582 rlineto
126 hlineto
return
                    </CharString>
                    <CharString index="49">
                        77 95 -67 callgsubr
return
                    </CharString>
                    <CharString index="50">
                        -189 109 -109 114 106 108 330 98 4 -20 return
                    </CharString>
                    <CharString index="51">
                        -11 callgsubr
171 120 return
                    </CharString>
                    <CharString index="52">
                        67 33 32 40 32 hhcurveto
31 18 -37 -97 -6 hvcurveto
return
                    </CharString>
                    <CharString index="53">
                        -172 -85 callsubr
return
                    </CharString>
                    <CharString index="54">
                        -15 callsubr
23 -20 hstemhm
114 562 hintmask 10110000
return
                    </CharString>
                    <CharString index="55">
                        -244 71 193 -21 22 -21 139 78 return
                    </CharString>
                    <CharString index="56">
                        vvcurveto
-82 73 -24 147 91 vhcurveto
return
                    </CharString>
                    <CharString index="57">
                        -194 112 -95 197 46 vhcurveto
-27 -121 rlineto
return
                    </CharString>
                    <CharString index="58">
                        109 75 55 69 hvcurveto
return
                    </CharString>
                    <CharString index="59">
                        22 -38 -43 11 -41 hhcurveto
-152 -114 -214 -206 -101 33 -46 58 55 51 37 53 47 hvcurveto
31 -98 98 -36 184 118 rrcurveto
return
                    </CharString>
                    <CharString index="60">
                        rmoveto
99 64 -144 224 228 224 -75 75 -225 -233 -25 -122 rlineto
412 -232 rmoveto
98 61 -141 229 return
                    </CharString>
                    <CharString index="61">
                        118 hstem
135 122 236 111 vstem
return
                    </CharString>
                    <CharString index="62">
                        -12 103 -70 -21 453 114 return
                    </CharString>
                    <CharString index="63">
                        -94 400 rmoveto
23 10 -16 -27 -46 -37 -79 -103 -23 hvcurveto
100 17 42 91 48 hhcurveto
-305 -367 rmoveto
-24 -11 27 52 hvcurveto
return
                    </CharString>
                    <CharString index="64">
                        -15 112 496 110 hstem
71 125 277 117 vstem
return
                    </CharString>
                    <CharString index="65">
                        -150 -773 rlineto
118 hlineto
68 348 rlineto
69 67 62 41 48 hhcurveto
30 17 -15 -26 -43 -46 -64 -160 -92 hvcurveto
return
                    </CharString>
                    <CharString index="66">
                        -182 -415 77 -87 260 116 rrcurveto
return
                    </CharString>
                    <CharString index="67">
                        -13 105 372 101 return
                    </CharString>
                    <CharString index="68">
                        -199 -73 rmoveto
226 227 27 122 -140 236 -98 -61 140 -229 -229 -218 rlineto
endchar
                    </CharString>
                    <CharString index="69">
                        -9 104 -104 109 hstemhm
240 212 -38 119 hintmask 10010000
return
                    </CharString>
                    <CharString index="70">
                        rmoveto
82 62 -167 166 rlineto
-7 hlineto
hintmask 11011100
-237 -163 rlineto
hintmask 11101100
53 -61 166 112 rlineto
return
                    </CharString>
                    <CharString index="71">
                        rmoveto
-354 hlineto
-19 -97 rlineto
233 hlineto
-151 -780 rlineto
-232 hlineto
-20 -96 rlineto
353 hlineto
endchar
                    </CharString>
                    <CharString index="72">
                        rmoveto
213 -138 88 -279 -45 vhcurveto
return
                    </CharString>
                    <CharString index="73">
                        vvcurveto
-75 95 -48 179 87 vhcurveto
return
                    </CharString>
                    <CharString index="74">
                        -133 -688 rlineto
return
                    </CharString>
                    <CharString index="75">
                        rlineto
-126 hlineto
return
                    </CharString>
                    <CharString index="76">
                        rmoveto
299 234 30 122 -210 245 -87 -82 190 -215 -291 -210 rlineto
endchar
                    </CharString>
                    <CharString index="77">
                        -52 callsubr
83 77 return
                    </CharString>
                    <CharString index="78">
                        rmoveto
0 9 7 6 9 9 7 -6 0 hflex1
0 -9 -7 -7 -9 -9 -7 6 0 hflex1
return
                    </CharString>
                    <CharString index="79">
                        rmoveto
87 83 -190 215 291 210 -68 94 -300 -234 -30 -122 rlineto
endchar
                    </CharString>
                    <CharString index="80">
                        78 219.5 154 hstem
return
                    </CharString>
                    <CharString index="81">
                        0 98 492 98 return
                    </CharString>
                    <CharString index="82">
                        -23 callsubr
-44 callgsubr
hintmask 10001100
return
                    </CharString>
                    <CharString index="83">
                        -13 113 -110 100 377 100 -4 -20 239 -20 hstemhm
52 120 195 116 return
                    </CharString>
                    <CharString index="84">
                        -45 callsubr
-10 -20 30 -20 return
                    </CharString>
                    <CharString index="85">
                        -21 688 -20 return
                    </CharString>
                    <CharString index="86">
                        rlineto
-109 return
                    </CharString>
                    <CharString index="87">
                        rmoveto
-49 22 -81 -62 -51 -88 -10 -87 rlinecurve
152 2 -8 66 8 76 39 71 rlinecurve
return
                    </CharString>
                    <CharString index="88">
                        -11 106 -74 -21 592 111 return
                    </CharString>
                    <CharString index="89">
                        80 280 84 hstem
return
                    </CharString>
                    <CharString index="90">
                        91 -104 87 -43 75 vhcurveto
return
                    </CharString>
                    <CharString index="91">
                        82 7 -20 295 80 hstemhm
return
                    </CharString>
                    <CharString index="92">
                        21 -22 callsubr
return
                    </CharString>
                    <CharString index="93">
                        rlinecurve
-152 return
                    </CharString>
                    <CharString index="94">
                        -10 97 580 -46 callsubr
return
                    </CharString>
                    <CharString index="95">
                        hstem
72 120 260 110 vstem
return
                    </CharString>
                    <CharString index="96">
                        442 643 rmoveto
46 153 -138 -7 -36 -152 rlineto
return
                    </CharString>
                    <CharString index="97">
                        101 4 140 rlinecurve
-155 -4 10 -125 -16 -86 -77 return
                    </CharString>
                    <CharString index="98">
                        593 429 -35 callsubr
return
                    </CharString>
                    <CharString index="99">
                        -14 104 367 93 161 -20 return
                    </CharString>
                    <CharString index="100">
                        0 106 582 -20 return
                    </CharString>
                    <CharString index="101">
                        79 302 79 hstem
return
                    </CharString>
                    <CharString index="102">
                        -21 25 -21 return
                    </CharString>
                    <CharString index="103">
                        123 -15 114 -90 117 -70 111 hintmask 11001000
return
                    </CharString>
                    <CharString index="104">
                        582 46 -64 callgsubr
return
                    </CharString>
                    <CharString index="105">
                        64 -49 61 67 rlineto
-24 34 44 -13 51 hhcurveto
endchar
                    </CharString>
                    <CharString index="106">
                        90 185 rlineto
3 hlineto
-49 -250 rlineto
73 hlineto
return
                    </CharString>
                    <CharString index="107">
                        68 50 94 93 vvcurveto
101 -65 51 -165 -22 vhcurveto
return
                    </CharString>
                    <CharString index="108">
                        rmoveto
26 124 rlineto
-128 hlineto
-26 -124 rlineto
return
                    </CharString>
                    <CharString index="109">
                        rmoveto
-457 hlineto
-20 -103 rlineto
458 hlineto
endchar
                    </CharString>
                    <CharString index="110">
                        hintmask 010000000000000000000000000000000000000000000000
return
                    </CharString>
                    <CharString index="111">
                        rmoveto
-17 callsubr
return
                    </CharString>
                    <CharString index="112">
                        19 98 rlineto
return
                    </CharString>
                    <CharString index="113">
                        0 102 83 89 30 85 197 102 hstemhm
-27 return
                    </CharString>
                    <CharString index="114">
                        -48 29 -121 -99 -64 -101 -4 -140 rlinecurve
return
                    </CharString>
                    <CharString index="115">
                        0 104 345 104 return
                    </CharString>
                    <CharString index="116">
                        -20 23 -20 return
                    </CharString>
                    <CharString index="117">
                        80 -87 119 182 140 217 return
                    </CharString>
                    <CharString index="118">
                        70 -41 49 -72 -38 -36 -13 -24 -32 vhcurveto
return
                    </CharString>
                    <CharString index="119">
                        94 294.5 127 hstem
84 return
                    </CharString>
                    <CharString index="120">
                        79.5 hstem
return
                    </CharString>
                    <CharString index="121">
                        72 145 61 return
                    </CharString>
                    <CharString index="122">
                        vhcurveto
hintmask 01110000
-14 -113 rlineto
hintmask 10110000
return
                    </CharString>
                    <CharString index="123">
                        49 -9 42 -18 33 vhcurveto
73 82 rlineto
return
                    </CharString>
                    <CharString index="124">
                        hlineto
14 72 -119 -9 -12 -63 rlineto
return
                    </CharString>
                    <CharString index="125">
                        -20 -101 rlineto
endchar
                    </CharString>
                    <CharString index="126">
                        -34 -26 -25 -24 -25 hhcurveto
endchar
                    </CharString>
                    <CharString index="127">
                        60 145 72 hstem
return
                    </CharString>
                <CharString name=".notdef">
                    -107 -200 50 900 50 hstem
0.5 54 432 54 vstem
8 -200 rmoveto
540 hlineto
-15 1000 rlineto
-540 hlineto
77 -50 rmoveto
387 hlineto
-188 -390 rlineto
212 316 rmoveto
11 -752 -191 376 rlineto
-241 -376 rmoveto
-11 752 191 -376 rlineto
31 -60 rmoveto
200 -390 rlineto
-387 hlineto
endchar
                </CharString>
                <CharString name="A">
                    -77 callgsubr
-40 callgsubr
hintmask 10011100
415 -4 -103 callsubr
                </CharString>
                <CharString name="AE">
                    6 callsubr
702 hintmask 10111000
367 586 -75 callgsubr
                </CharString>
                <CharString name="AEacute">
                    6 callsubr
703 hintmask 10111000
344 808 -107 callsubr
23 -222 -75 callgsubr
                </CharString>
                <CharString name="Aacute">
                    -77 callgsubr
-40 callgsubr
hintmask 00111100
266 809 -107 callsubr
hintmask 10011100
149 -813 -103 callsubr
                </CharString>
                <CharString name="Abreve">
                    -77 callgsubr
73 95 -40 callgsubr
hintmask 00111110
594 967 -104 callsubr
hintmask 10011110
-248 -929 -96 callsubr
                </CharString>
                <CharString name="Acircumflex">
                    -77 callgsubr
-40 callgsubr
hintmask 00111100
549 755 -93 callgsubr
hintmask 10011100
-24 -875 -103 callsubr
                </CharString>
                <CharString name="Adieresis">
                    -77 callgsubr
87 150 -40 callgsubr
hintmask 00111110
593 777 -102 callsubr
hintmask 10011110
194 -777 -96 callsubr
                </CharString>
                <CharString name="Agrave">
                    -77 callgsubr
-40 callgsubr
hintmask 00111100
576 802 -96 callgsubr
hintmask 10011100
-134 -756 -103 callsubr
                </CharString>
                <CharString name="Amacron">
                    -77 callgsubr
112 101 -40 callgsubr
hintmask 00111110
632 902 -76 callsubr
hintmask 10011110
-198 -805 -96 callsubr
                </CharString>
                <CharString name="Aogonek">
                    -26 callgsubr
173 -5 callsubr
185 93 301 106 hstemhm
228 110 67 133 hintmask 10011111
502 -187 rmoveto
hintmask 01011111
-34 callgsubr
37 55 45 145 39 vhcurveto
-15 231 -18 228 -21 226 rrcurveto
-172 hlineto
hintmask 10101111
-110 -229 -108 -231 -100 -229 rrcurveto
126 hlineto
26 63 26 63 27 63 rrcurveto
206 hlineto
3 -57 3 -57 3 -56 rrcurveto
-134 -56 -52 -61 -54 vvcurveto
hintmask 10011111
1 -75 95 -47 178 87 rrcurveto
hintmask 01011111
-129 770 rmoveto
9 hlineto
7 -100 6 -101 5 -100 rrcurveto
-160 hlineto
44 101 45 100 44 -1 callgsubr
                </CharString>
                <CharString name="Aring">
                    -77 callgsubr
59 238 -40 callgsubr
hintmask 00111110
444 986 -83 callsubr
hintmask 10011110
-29 -990 -96 callsubr
                </CharString>
                <CharString name="Aringacute">
                    -77 callgsubr
-40 callgsubr
hintmask 00111100
325 1076 -107 callsubr
119 -90 -83 callsubr
hintmask 10011100
-29 -990 -103 callsubr
                </CharString>
                <CharString name="Atilde">
                    -77 callgsubr
78 91 11 91 -40 callgsubr
hintmask 00111101
521 858 rmoveto
hintmask 00111111
-87 callgsubr
hintmask 00111101
-87 callsubr
hintmask 10011101
-106 -862 rmoveto
hintmask 00111101
123 8 -15 231 -18 228 -21 226 rlinecurve
-172 hlineto
hintmask 01011101
-110 -229 -108 -231 -100 -229 rrcurveto
126 hlineto
26 63 26 63 27 63 rrcurveto
206 hlineto
hintmask 10011101
3 -65 4 -64 3 -64 rrcurveto
hintmask 00111101
-42 587 rmoveto
9 hlineto
7 -100 6 -101 5 -100 rrcurveto
-160 hlineto
44 101 45 100 44 -1 callgsubr
                </CharString>
                <CharString name="B">
                    -8 102 -72 -21 596 99 hstemhm
434 120 -85 121 hintmask 10110000
554 214 rmoveto
68 -45 54 -75 21 vhcurveto
hintmask 01101000
98 37 58 68 79 vvcurveto
109 -117 78 -291 -44 vhcurveto
-132 -683 rlineto
hintmask 10110000
368 -46 136 128 131 vvcurveto
hintmask 10101000
-85 299 rmoveto
-66 -66 -60 -156 -11 vhcurveto
42 218 rlineto
119 14 61 -35 -60 vvcurveto
hintmask 10110000
-35 -306 rmoveto
-73 -79 -57 -162 21 vhcurveto
40 207 rlineto
141 12 60 -42 -68 vvcurveto
endchar
                </CharString>
                <CharString name="C">
                    -43 callsubr
424 703 -91 callsubr
                </CharString>
                <CharString name="Cacute">
                    -43 callsubr
278 822 -107 callsubr
146 -119 -91 callsubr
                </CharString>
                <CharString name="Ccaron">
                    -43 callsubr
423 764 -97 callsubr
8 -61 -91 callsubr
                </CharString>
                <CharString name="Ccedilla">
                    -74 171 -110 110 -78 -21 595 110 hstemhm
71 125 114 104 59 117 hintmask 01011110
414 -206 rmoveto
6 98 -26 64 -41 31 48 4 54 13 59 20 13 110 rcurveline
-227 -78 -104 47 167 vvcurveto
150 84 173 118 65 12 -49 -110 -2 vhcurveto
117 1 rlineto
179 8 -43 89 -131 hhcurveto
-196 -157 -217 -235 hvcurveto
hintmask 00111110
-135 54 -88 101 -30 vhcurveto
-44 -23 -38 -52 -35 -84 61 -20 rcurveline
hintmask 10011110
-55 callsubr
endchar
                </CharString>
                <CharString name="Cdotaccent">
                    -15 112 496 110 84.5 6 callgsubr
71 125 277 117 vstem
484 788 -77 callsubr
71 -84 -91 callsubr
                </CharString>
                <CharString name="D">
                    -13 callgsubr
593 429 -69 callsubr
                </CharString>
                <CharString name="Dcaron">
                    -13 callgsubr
408 758 -97 callsubr
192 -329 -69 callsubr
                </CharString>
                <CharString name="Dcroat">
                    -80 callgsubr
                </CharString>
                <CharString name="E">
                    -63 callgsubr
hstem
59 557 vstem
507 105 -100 callgsubr
                </CharString>
                <CharString name="Eacute">
                    -63 callgsubr
hstem
59 557 vstem
273 808 -107 callsubr
234 -703 -100 callgsubr
                </CharString>
                <CharString name="Ebreve">
                    -63 callgsubr
73 95 hstem
59 611 vstem
601 966 -104 callsubr
-163 -819 -100 callgsubr
                </CharString>
                <CharString name="Ecaron">
                    -63 callgsubr
hstem
59 597 vstem
418 750 -97 callsubr
96 -645 -100 callgsubr
                </CharString>
                <CharString name="Ecircumflex">
                    -63 callgsubr
hstem
59 579 vstem
556 754 -93 callgsubr
61 -765 -100 callgsubr
                </CharString>
                <CharString name="Edieresis">
                    -63 callgsubr
87 6 callgsubr
59 588 vstem
600 776 -102 callsubr
279 -667 -100 callgsubr
                </CharString>
                <CharString name="Edotaccent">
                    -63 callgsubr
-45 callgsubr
59 557 vstem
479 774 -77 callsubr
159 -668 -100 callgsubr
                </CharString>
                <CharString name="Egrave">
                    -63 callgsubr
hstem
59 557 vstem
583 801 -96 callgsubr
-49 -646 -100 callgsubr
                </CharString>
                <CharString name="Emacron">
                    -63 callgsubr
112 101 hstem
59 580 vstem
639 901 -76 callsubr
-113 -695 -100 callgsubr
                </CharString>
                <CharString name="Eogonek">
                    -235 82 -35 35 153 105 195 92 191 105 hstemhm
169 110 hintmask 10111100
443 -188 rmoveto
hintmask 01111100
-13 55 -21 callsubr
-36 -42 17 35 vvcurveto
35 55 43 145 39 vhcurveto
28 105 rlineto
-303 hlineto
38 195 rlineto
252 hlineto
18 92 rlineto
-252 hlineto
37 191 rlineto
298 hlineto
21 105 rlineto
-423 hlineto
-134 -688 rlineto
261 hlineto
hintmask 10111100
-108 -50 -43 -54 -48 -34 callsubr
endchar
                </CharString>
                <CharString name="Eth">
                    -80 callgsubr
                </CharString>
                <CharString name="Euro">
                    -13 100 113 88 -76 79 83 78 150 101 hstemhm
38 591 -505 112 285 108 hintmask 10111100
543 41 rmoveto
-11 72 -196 -54 -82 30 -16 123 rlinecurve
221 hlineto
20 79 rlineto
hintmask 10111011
-243 hlineto
2 27 4 28 7 28 rrcurveto
248 hlineto
20 78 rlineto
-242 hlineto
85 36 59 65 71 hhcurveto
54 18 -34 -64 8 hvcurveto
108 17 rlineto
125 -9 -50 57 -101 hhcurveto
-129 -114 -102 -140 -60 hvcurveto
-78 hlineto
-18 -87 rlineto
67 hlineto
hintmask 11011010
-6 -28 -5 -29 -2 -29 rrcurveto
-68 hlineto
-18 -88 rlineto
86 hlineto
hintmask 10111100
18 -183 132 -99 269 123 rrcurveto
endchar
                </CharString>
                <CharString name="F">
                    21 -21 283 96 203 106 hstem
63 566 vstem
504 283 rmoveto
19 96 rlineto
-261 hlineto
39 203 rlineto
309 hlineto
19 106 rlineto
-433 hlineto
-33 callsubr
125 hlineto
55 283 rlineto
endchar
                </CharString>
                <CharString name="G">
                    -19 callsubr
-8 callgsubr
hintmask 10111000
464 -119 -90 callgsubr
hintmask 01111000
-50 callsubr
endchar
                </CharString>
                <CharString name="Gbreve">
                    -19 callsubr
72 95 -8 callgsubr
hintmask 10111100
600 980 -104 callsubr
-205 -1057 -90 callgsubr
hintmask 01111100
-50 callsubr
endchar
                </CharString>
                <CharString name="Gcommaaccent">
                    -19 callsubr
hstemhm
70 125 -32 149 151 117 hintmask 10110100
464 -119 -90 callgsubr
hintmask 01110100
-50 callsubr
hintmask 10101100
-230 -260 -99 callsubr
                </CharString>
                <CharString name="Gdotaccent">
                    -19 callsubr
84.5 150 -8 callgsubr
hintmask 10111100
478 788 -77 callsubr
117 -906 -90 callgsubr
hintmask 01111100
-50 callsubr
endchar
                </CharString>
                <CharString name="H">
                    21 -21 299 97 292 -20 hstem
39 590 vstem
370 hmoveto
126 hlineto
20 callgsubr
-126 hlineto
-56 -292 rlineto
-205 hlineto
56 292 -32 callsubr
-33 callsubr
126 hlineto
58 299 rlineto
205 hlineto
endchar
                </CharString>
                <CharString name="Hbar">
                    21 -21 280 97 107 86 -82 78 -78 200 hstemhm
39 637 hintmask 11010100
443 377 rmoveto
-205 hlineto
21 111 rlineto
205 hlineto
-94 -488 rmoveto
126 hlineto
hintmask 11100100
94 484 rlineto
70 hlineto
16 86 rlineto
-70 hlineto
hintmask 11001100
23 118 -32 callsubr
hintmask 11010100
-24 -122 rlineto
-205 hlineto
hintmask 11001100
24 122 -32 callsubr
hintmask 11100100
-23 -118 rlineto
-71 hlineto
-16 -86 rlineto
71 hlineto
-94 -484 rlineto
126 hlineto
54 280 rlineto
205 hlineto
endchar
                </CharString>
                <CharString name="I">
                    -26 callsubr
hstem
38 565 vstem
336 98 -97 callgsubr
                </CharString>
                <CharString name="Iacute">
                    -26 callsubr
hstem
38 565 vstem
255 808 -107 callsubr
81 -710 -97 callgsubr
                </CharString>
                <CharString name="Ibreve">
                    -26 callsubr
73 95 hstem
38 615 vstem
584 966 -104 callsubr
-317 -826 -97 callgsubr
                </CharString>
                <CharString name="Icircumflex">
                    -26 callsubr
hstem
38 582 vstem
538 754 -93 callgsubr
-92 -772 -97 callgsubr
                </CharString>
                <CharString name="Idieresis">
                    -26 callsubr
87 6 callgsubr
38 592 vstem
583 776 -102 callsubr
125 -674 -97 callgsubr
                </CharString>
                <CharString name="Idotaccent">
                    -26 callsubr
-45 callgsubr
38 565 vstem
462 774 -77 callsubr
5 -675 -97 callgsubr
                </CharString>
                <CharString name="Igrave">
                    -26 callsubr
hstem
38 565 vstem
566 801 -96 callgsubr
-203 -653 -97 callgsubr
                </CharString>
                <CharString name="Imacron">
                    -26 callsubr
112 101 hstem
38 584 vstem
622 901 -76 callsubr
-267 -702 -97 callgsubr
                </CharString>
                <CharString name="Iogonek">
                    -26 callgsubr
152 98 492 98 hstemhm
87 109 hintmask 10111000
360 -187 rmoveto
hintmask 01111000
-12 55 -21 callsubr
-36 -43 17 34 vvcurveto
36 37 42 96 39 vhcurveto
142 hlineto
24 98 rlineto
-159 hlineto
95 492 rlineto
153 hlineto
5 callsubr
-434 hlineto
-19 -98 rlineto
156 hlineto
-95 -492 rlineto
-154 hlineto
-19 -98 rlineto
163 hlineto
hintmask 10111000
-81 -50 -33 -53 -48 13 callgsubr
                </CharString>
                <CharString name="J">
                    -12 113 489 98 hstem
40 528 vstem
412 58 rmoveto
30 31 17 35 38 202 71 362 rcurveline
-341 hlineto
-20 -98 rlineto
216 hlineto
-54 -277 -28 -138 -9 -29 -17 -18 rlinecurve
-26 -25 -46 -4 -184 2 -19 -113 rcurveline
229 -2 96 26 47 46 rrcurveto
endchar
                </CharString>
                <CharString name="K">
                    -7 callgsubr
680 -20 hstemhm
47 617 -63 callsubr
endchar
                </CharString>
                <CharString name="Kcommaaccent">
                    -7 callgsubr
680 -20 hstemhm
47 617 -455 149 -63 callsubr
hintmask 00110100
-136 -985 -99 callsubr
                </CharString>
                <CharString name="L">
                    -7 callsubr
hstem
65 462 vstem
-24 callgsubr
endchar
                </CharString>
                <CharString name="Lacute">
                    -7 callsubr
hstem
65 552 vstem
285 808 -107 callsubr
220 -808 rmoveto
-71 callgsubr
endchar
                </CharString>
                <CharString name="Lcaron">
                    -7 callsubr
110 -20 hstem
65 588 vstem
520 773 -73 callsubr
-148 -778 rmoveto
-71 callgsubr
endchar
                </CharString>
                <CharString name="Lcommaaccent">
                    -7 callsubr
hstemhm
65 462 -330 149 hintmask 11100000
-24 callgsubr
hintmask 11010000
91 -289 -99 callsubr
                </CharString>
                <CharString name="Ldot">
                    0 106 183 142 257 -20 hstem
65 517 vstem
-24 callgsubr
483 289 rmoveto
34 142 rlineto
-124 hlineto
-35 -142 rlineto
endchar
                </CharString>
                <CharString name="Lslash">
                    -7 callsubr
hstem
67 479 vstem
524 hmoveto
22 106 rlineto
-315 hlineto
51 267 162 75 -3 83 -141 -65 43 222 -32 callsubr
-55 -286 -95 -44 3 -83 74 34 -60 -309 rlineto
endchar
                </CharString>
                <CharString name="M">
                    21 -21 137 150 401 -42 callgsubr
34 609 hintmask 11011000
292 691 rmoveto
-126 -6 -132 -685 rlineto
115 hlineto
83 469 rlineto
4 hlineto
24 -332 rlineto
68 hlineto
155 332 rlineto
4 hlineto
-95 -469 rlineto
118 hlineto
hintmask 11101000
20 callgsubr
-133 hlineto
-185 -401 rlineto
-3 hlineto
endchar
                </CharString>
                <CharString name="N">
                    -27 callgsubr
592 hintmask 10110000
389 hmoveto
-85 callgsubr
endchar
                </CharString>
                <CharString name="Nacute">
                    -27 callgsubr
592 hintmask 10110000
269 810 -107 callsubr
120 -810 rmoveto
-85 callgsubr
endchar
                </CharString>
                <CharString name="Ncaron">
                    -27 callgsubr
612 hintmask 10110000
414 752 -97 callsubr
-18 -752 rmoveto
-85 callgsubr
endchar
                </CharString>
                <CharString name="Ncommaaccent">
                    -27 callgsubr
592 -451 149 hintmask 10110000
389 hmoveto
-85 callgsubr
hintmask 10101000
-109 -758 -99 callsubr
                </CharString>
                <CharString name="Ntilde">
                    -15 callsubr
22 -20 98 91 11 91 hstemhm
40 636 hintmask 10110100
524 859 rmoveto
hintmask 10111100
-87 callgsubr
hintmask 10110100
-87 callsubr
-135 -859 rmoveto
109 hlineto
hintmask 11010100
134 688 rlineto
-117 hlineto
-87 -463 rlineto
-5 hlineto
hintmask 10110100
-131 465 -119 -4 -133 -686 rlineto
117 hlineto
86 469 rlineto
6 hlineto
endchar
                </CharString>
                <CharString name="O">
                    -67 callsubr
603 441 -106 callsubr
                </CharString>
                <CharString name="OE">
                    0 102 202 85 197 102 hstem
55 124 vstem
179 239 rmoveto
106 47 235 146 6 vhcurveto
-94 -484 rlineto
-68 -31 50 87 hvcurveto
384 -137 rmoveto
-178 hlineto
39 202 rlineto
140 hlineto
17 85 rlineto
-141 hlineto
38 197 rlineto
174 hlineto
19 102 rlineto
-227 hlineto
-303 -86 -276 -177 -177 95 -58 148 hvcurveto
238 hlineto
endchar
                </CharString>
                <CharString name="Oacute">
                    -67 callsubr
269 823 -107 callsubr
334 -382 -106 callsubr
                </CharString>
                <CharString name="Obreve">
                    -14 107 501 108 74 95 hstem
64 130 279 130 vstem
598 981 -104 callsubr
-64 -498 -106 callsubr
                </CharString>
                <CharString name="Ocircumflex">
                    -67 callsubr
552 769 -93 callgsubr
161 -444 -106 callsubr
                </CharString>
                <CharString name="Odieresis">
                    -14 107 501 108 88 6 callgsubr
64 130 279 130 vstem
597 791 -102 callsubr
378 -346 -106 callsubr
                </CharString>
                <CharString name="Ograve">
                    -67 callsubr
580 816 -96 callgsubr
50 -325 -106 callsubr
                </CharString>
                <CharString name="Ohungarumlaut">
                    -67 callsubr
289 774 -92 callsubr
130 -373 -106 callsubr
                </CharString>
                <CharString name="Omacron">
                    -14 107 501 108 113 101 hstem
64 130 279 130 vstem
636 916 -76 callsubr
-14 -374 -106 callsubr
                </CharString>
                <CharString name="Omega">
                    0 98 498 107 hstem
98 107 256 122 vstem
225 7 rmoveto
-12 71 -8 56 140 vvcurveto
179 49 143 106 65 36 -46 -86 -107 -48 -140 -106 -210 vhcurveto
2 -7 rlineto
210 hlineto
5 callsubr
-91 hlineto
91 150 45 124 111 vvcurveto
136 -72 84 -130 -195 -88 -173 -219 -76 11 -67 15 -70 vhcurveto
-95 hlineto
-20 -98 rlineto
212 hlineto
endchar
                </CharString>
                <CharString name="Oslash">
                    -21 callgsubr
195 256 -84 callgsubr
                </CharString>
                <CharString name="Oslashacute">
                    -21 callgsubr
269 823 -107 callsubr
-74 -567 -84 callgsubr
                </CharString>
                <CharString name="Otilde">
                    -14 107 501 108 79 91 11 91 hstemhm
64 130 279 130 hintmask 11101100
524 872 rmoveto
hintmask 11111100
-87 callgsubr
hintmask 11101100
-87 callsubr
79 -431 -106 callsubr
                </CharString>
                <CharString name="P">
                    21 -21 593 102 hstem
490 122 vstem
177 hmoveto
39 204 rlineto
249 28 147 109 161 vvcurveto
134 -122 92 -305 -44 vhcurveto
-132 -684 rlineto
437 481 rmoveto
-101 -88 -74 -164 9 vhcurveto
52 274 rlineto
133 18 67 -47 -79 vvcurveto
endchar
                </CharString>
                <CharString name="Q">
                    597 106 hstem
80 124 272 128 vstem
461 -164 rmoveto
51 100 -223 95 rlineto
178 89 137 167 182 vvcurveto
139 -73 95 -146 -241 -130 -284 -276 99 vhcurveto
108 40 rlineto
244 -53 77 170 123 hhcurveto
67 41 -43 -90 -157 -125 -166 -191 -72 hvcurveto
-30 -90 rlineto
endchar
                </CharString>
                <CharString name="R">
                    -35 callgsubr
hintmask 10011000
418 -9 -83 callgsubr
                </CharString>
                <CharString name="R_p">
                    -173 -21 30 -21 196 -5 callsubr
27 -21 28 -21 548 -20 32 -20 147 -20 hstemhm
9 632 hintmask 0101000111000000
192 -6 rmoveto
hintmask 0100010111000000
96 13 -40 297 rlineto
75 0 callsubr
hintmask 0100100111000000
-134 -689 rlineto
91 hlineto
50 248 14 4 rlineto
209 -437 rmoveto
hintmask 0101000111000000
4 20 26 138 5 21 rrcurveto
hintmask 0110000111000000
-3 10 9 -1 8 hhcurveto
123 83 266 182 91 -19 38 -35 -29 -31 -25 -33 -26 hvcurveto
hintmask 1000011011000000
7 46 -85 -6 -10 -60 -108 -567 -22 -116 rlinecurve
endchar
                </CharString>
                <CharString name="Racute">
                    -35 callgsubr
hintmask 00111000
251 816 -107 callsubr
hintmask 10011000
167 -825 -83 callgsubr
                </CharString>
                <CharString name="Rcaron">
                    -35 callgsubr
hintmask 00111000
396 758 -97 callsubr
hintmask 10011000
29 -767 -83 callgsubr
                </CharString>
                <CharString name="Rcommaaccent">
                    12 -21 30 -21 30 -21 582 105 hstemhm
191 149 125 125 hintmask 10011100
418 -9 rmoveto
hintmask 00111100
136 18 -143 284 rlineto
108 60 71 76 98 vvcurveto
115 -102 85 -308 -42 vhcurveto
hintmask 01011100
-132 -685 rlineto
123 hlineto
113 588 rlineto
120 15 61 -33 -68 vvcurveto
-69 -51 -57 -142 -65 vhcurveto
-2 vlineto
-122 -607 -99 callsubr
                </CharString>
                <CharString name="S">
                    -49 callgsubr
587 505 -88 callgsubr
                </CharString>
                <CharString name="Sacute">
                    -49 callgsubr
278 821 -107 callsubr
309 -316 -88 callgsubr
                </CharString>
                <CharString name="Scaron">
                    -49 callgsubr
424 763 -97 callsubr
170 -258 -88 callgsubr
                </CharString>
                <CharString name="Scedilla">
                    -74 172 -106 106 -83 -21 603 104 hstemhm
129 126 23 104 18 129 hintmask 10011110
278 -208 rmoveto
104 2 rlineto
hintmask 01011110
6 106 -30 66 -47 28 rrcurveto
hintmask 01011010
154 19 64 77 79 153 -274 70 114 vvcurveto
50 44 41 61 63 38 -32 -82 17 vhcurveto
109 22 rlineto
127 -21 -59 69 -122 hhcurveto
-152 -104 -99 -111 hvcurveto
-161 271 -69 -99 vvcurveto
-57 -86 -39 -252 68 vhcurveto
hintmask 00111010
-25 -121 rlineto
hintmask 01011010
54 -11 49 -7 45 -3 -40 -25 -35 -50 -33 -78 61 -20 rcurveline
hintmask 10011110
-55 callsubr
endchar
                </CharString>
                <CharString name="Scommaaccent">
                    -9 107 -86 -21 606 104 hstemhm
129 126 -86 149 82 129 hintmask 10110100
587 505 rmoveto
127 -21 -59 69 -122 hhcurveto
-152 -104 -99 -111 hvcurveto
-161 271 -69 -99 vvcurveto
-57 -86 -39 -252 68 vhcurveto
hintmask 01110100
-25 -121 rlineto
hintmask 10110100
354 -72 138 113 115 153 -274 70 114 vvcurveto
50 44 41 61 63 38 -32 -82 17 vhcurveto
hintmask 10101100
-350 -782 -99 callsubr
                </CharString>
                <CharString name="T">
                    8 callgsubr
434 582 -59 callsubr
endchar
                </CharString>
                <CharString name="Tcaron">
                    8 callgsubr
404 750 -97 callsubr
37 -168 -59 callsubr
endchar
                </CharString>
                <CharString name="Tcommaaccent">
                    21 -21 582 106 hstemhm
111 542 -482 149 hintmask 11100000
434 582 -59 callsubr
hintmask 11010000
-192 -289 -99 callsubr
                </CharString>
                <CharString name="Thorn">
                    0 212 -191 -21 490 102 -102 198 hstemhm
470 122 hintmask 01011000
177 hmoveto
20 101 rlineto
247 28 148 110 160 vvcurveto
hintmask 01101000
114 -88 83 -211 -4 vhcurveto
hintmask 01011000
19 96 rlineto
-14 callgsubr
-134 -688 rlineto
417 378 rmoveto
hintmask 10011000
-101 -88 -73 -163 8 vhcurveto
54 275 rlineto
hintmask 01011000
131 17 66 -47 -79 vvcurveto
endchar
                </CharString>
                <CharString name="U">
                    -52 callgsubr
276 -15 -105 callsubr
                </CharString>
                <CharString name="Uacute">
                    -52 callgsubr
266 808 -107 callsubr
10 -823 -105 callsubr
                </CharString>
                <CharString name="Ubreve">
                    -15 108 595 -20 93 95 hstem
77 126 vstem
595 966 -104 callsubr
-388 -939 -105 callsubr
                </CharString>
                <CharString name="Ucircumflex">
                    -52 callgsubr
549 754 -93 callgsubr
-163 -885 -105 callsubr
                </CharString>
                <CharString name="Udieresis">
                    -15 108 595 -20 107 6 callgsubr
77 126 vstem
594 776 -102 callsubr
54 -787 -105 callsubr
                </CharString>
                <CharString name="Ugrave">
                    -52 callgsubr
577 801 -96 callgsubr
-274 -766 -105 callsubr
                </CharString>
                <CharString name="Uhungarumlaut">
                    -52 callgsubr
286 759 -92 callsubr
-194 -814 -105 callsubr
                </CharString>
                <CharString name="Umacron">
                    -15 108 595 -20 132 101 hstem
77 126 vstem
633 901 -76 callsubr
-338 -815 -105 callsubr
                </CharString>
                <CharString name="Uogonek">
                    -26 callgsubr
138 107 -86 -21 702 -20 hstemhm
77 126 -79 110 hintmask 10011010
398 -187 rmoveto
hintmask 01011010
-34 callgsubr
37 44 30 127 64 vhcurveto
68 36 46 69 22 111 89 458 rcurveline
-14 callgsubr
-89 -460 rlineto
hintmask 01101100
-95 -18 -42 -40 -65 hhcurveto
-67 -38 40 123 24 hvcurveto
83 432 rlineto
-124 hlineto
-82 -426 -36 -183 68 -82 127 -11 rlinecurve
hintmask 10011010
-83 -45 -39 -48 -44 vvcurveto
-76 95 -47 179 87 vhcurveto
endchar
                </CharString>
                <CharString name="Uring">
                    -15 108 595 -20 79 238 hstem
77 126 vstem
445 985 -83 callsubr
-169 -1000 -105 callsubr
                </CharString>
                <CharString name="V">
                    0 113 575 -20 25 -20 hstemhm
117 125 hintmask 10110000
345 hmoveto
hintmask 11010000
115 229 108 231 101 228 rrcurveto
-126 hlineto
-80 -191 -88 -192 -89 -192 rrcurveto
-11 hlineto
hintmask 10110000
-13 192 -13 197 -7 191 -125 -9 rcurveline
11 -229 19 -226 25 -229 rrcurveto
endchar
                </CharString>
                <CharString name="W">
                    -69 callgsubr
352 hmoveto
-95 callgsubr
                </CharString>
                <CharString name="Wacute">
                    -69 callgsubr
269 808 -107 callsubr
83 -808 rmoveto
-95 callgsubr
                </CharString>
                <CharString name="Wcircumflex">
                    -69 callgsubr
552 754 -93 callgsubr
-90 -870 rmoveto
-95 callgsubr
                </CharString>
                <CharString name="Wdieresis">
                    0 168 -147 -22 callsubr
107 150 hstemhm
342.5 66.5 hintmask 01111000
596 776 -102 callsubr
128 -772 rmoveto
123 hlineto
44 130 74 262 71 296 rrcurveto
-121 hlineto
hintmask 10111000
-16 -70 -95 -416 -11 -34 rrcurveto
-4 hlineto
-16 314 rlineto
-71 hlineto
-137 -314 rlineto
-6 hlineto
3 34 64 416 11 70 rrcurveto
-124 hlineto
-43 -294 -26 -263 -5 -131 rrcurveto
121 hlineto
145 327 rlineto
endchar
                </CharString>
                <CharString name="Wgrave">
                    -69 callgsubr
580 801 -96 callgsubr
-201 -751 rmoveto
-95 callgsubr
                </CharString>
                <CharString name="X">
                    18 -21 24 -21 24 -21 685 -20 24 -20 hstemhm
-8 678 hintmask 10001100
406 -3 rmoveto
hintmask 00110100
130 6 -133 333 267 352 rlineto
-135 hlineto
-183 -259 rlineto
hintmask 01001100
-99 263 -129 -7 134 -333 -266 -352 rlineto
134 hlineto
182 259 rlineto
endchar
                </CharString>
                <CharString name="Y">
                    -53 callsubr
325 hmoveto
-81 callsubr
                </CharString>
                <CharString name="Yacute">
                    -53 callsubr
262 811 -107 callsubr
63 -811 rmoveto
-81 callsubr
                </CharString>
                <CharString name="Ycircumflex">
                    -53 callsubr
544 757 -93 callgsubr
-109 -873 rmoveto
-81 callsubr
                </CharString>
                <CharString name="Ydieresis">
                    -15 callsubr
23 -20 107 150 hstemhm
114 562 hintmask 10111000
589 779 -102 callsubr
108 -775 rmoveto
42 223 rlineto
hintmask 11011000
309 465 rlineto
-133 hlineto
-213 -342 rlineto
hintmask 10111000
-88 345 -128 -5 130 -455 -45 -231 rlineto
endchar
                </CharString>
                <CharString name="Ygrave">
                    -53 callsubr
572 804 -96 callgsubr
-220 -754 rmoveto
-81 callsubr
                </CharString>
                <CharString name="Z">
                    -50 callgsubr
hstem
26 598 vstem
497 hmoveto
-74 callgsubr
                </CharString>
                <CharString name="Zacute">
                    -50 callgsubr
hstem
26 598 vstem
261 808 -107 callsubr
236 -808 rmoveto
-74 callgsubr
                </CharString>
                <CharString name="Zcaron">
                    -50 callgsubr
hstem
26 618 vstem
406 750 -97 callsubr
98 -750 rmoveto
-74 callgsubr
                </CharString>
                <CharString name="Zdotaccent">
                    -50 callgsubr
-45 callgsubr
26 598 vstem
467 774 -77 callsubr
161 -773 rmoveto
-74 callgsubr
                </CharString>
                <CharString name="a">
                    -9 callgsubr
232 100 -107 callgsubr
                </CharString>
                <CharString name="aacute">
                    -40 callsubr
212 -20 -66 callsubr
261 684 -107 callsubr
-29 -584 -107 callgsubr
                </CharString>
                <CharString name="abreve">
                    -40 callsubr
72 95 -66 callsubr
589 842 -104 callsubr
-426 -700 -107 callgsubr
                </CharString>
                <CharString name="acircumflex">
                    -40 callsubr
127 -42 callgsubr
51 122 194 114 hintmask 11101100
544 630 -37 callsubr
-202 -646 -107 callgsubr
                </CharString>
                <CharString name="acute">
                    621 238 hstem
170 332 vstem
170 673 -107 callsubr
endchar
                </CharString>
                <CharString name="acute.cap">
                    621 238 hstem
170 332 vstem
170 673 -107 callsubr
endchar
                </CharString>
                <CharString name="adieresis">
                    -40 callsubr
86 150 -66 callsubr
588 652 -102 callsubr
16 -548 -107 callgsubr
                </CharString>
                <CharString name="ae">
                    -7 100 373 94 -93 97 0 callgsubr
hintmask 11011100
587 67 -30 callgsubr
hintmask 10111100
11 callsubr
hintmask 11011100
-48 callsubr
hintmask 10111100
-44 callsubr
hintmask 11011100
-19 callgsubr
hintmask 10111100
19 callsubr
                </CharString>
                <CharString name="aeacute">
                    -7 100 373 94 -93 97 210 -20 0 callgsubr
hintmask 11011110
259 681 -107 callsubr
328 -614 -30 callgsubr
hintmask 10111110
11 callsubr
hintmask 11011110
-48 callsubr
hintmask 10111110
-44 callsubr
hintmask 11011110
-19 callgsubr
hintmask 10111110
19 callsubr
                </CharString>
                <CharString name="agrave">
                    -40 callsubr
215 -20 -66 callsubr
571 677 -96 callgsubr
-312 -527 -107 callgsubr
                </CharString>
                <CharString name="amacron">
                    -40 callsubr
111 101 -66 callsubr
627 777 -76 callsubr
-376 -576 -107 callgsubr
                </CharString>
                <CharString name="ampersand">
                    -10 107 613 -20 hstem
23 116 vstem
491 -22 rmoveto
100 73 -46 51 -39 48 -33 47 rlinecurve
43 53 44 65 44 75 -99 35 rcurveline
-29 -57 -28 -48 -27 -41 -32 58 -22 56 -11 55 rrcurveto
70 66 40 72 53 vvcurveto
44 -34 27 -48 -70 -78 -84 -127 -10 0 -11 1 -11 vhcurveto
-147 -119 -67 -115 -101 vvcurveto
-86 47 -56 90 71 77 38 77 81 vhcurveto
30 -43 34 -42 38 -42 rrcurveto
-294 119 rmoveto
-36 -22 22 42 58 42 70 76 74 hvcurveto
18 -59 28 -62 37 -63 rrcurveto
-58 -56 -50 -24 -37 hhcurveto
endchar
                </CharString>
                <CharString name="aogonek">
                    -234 83 -16 -21 175 113 -54 46 372 101 hstemhm
51 122 78 110 6 114 hintmask 10011110
523 -188 rmoveto
-10 58 rlineto
-110 -37 -42 16 35 vvcurveto
42 55 53 164 67 vhcurveto
hintmask 01011101
-11 60 -90 -27 -5 10 5 callgsubr
76 391 rlineto
17 -58 -58 8 -50 hhcurveto
-212 -133 -201 -205 hvcurveto
hintmask 01101101
-117 50 -55 66 60 76 50 63 64 vhcurveto
-3 -46 8 -29 23 -13 rrcurveto
hintmask 10101110
-105 -59 -39 -55 -51 vvcurveto
hintmask 10011110
-72 95 -49 177 86 vhcurveto
hintmask 01101101
-291 288 rmoveto
-33 -26 25 63 131 73 145 87 22 35 -7 -11 37 hvcurveto
-16 -85 -26 -129 -10 -53 rrcurveto
-45 -48 -57 -34 -38 hhcurveto
endchar
                </CharString>
                <CharString name="approxequal">
                    105 104 3 103 35 104 2 105 -6 -20 hstemhm
35 569 hintmask 10101100
423 350 rmoveto
70 46 54 116 65 hvcurveto
-67 35 rlineto
-60 -39 -29 -41 -26 hhcurveto
hintmask 10010100
-47 -34 107 -87 hhcurveto
-71 -56 -60 -118 -65 hvcurveto
65 -35 rlineto
64 41 32 44 28 hhcurveto
hintmask 10101100
50 37 -106 87 hhcurveto
-47 -245 rmoveto
69 46 54 116 65 hvcurveto
-66 36 rlineto
-60 -38 -29 -42 -27 hhcurveto
hintmask 01101100
-47 -34 106 -86 hhcurveto
-72 -56 -59 -117 -66 hvcurveto
67 -35 rlineto
63 41 31 45 29 hhcurveto
hintmask 10101100
49 36 -107 88 hhcurveto
endchar
                </CharString>
                <CharString name="aring">
                    -40 callsubr
58 238 -66 callsubr
439 861 -83 callsubr
-207 -761 -107 callgsubr
                </CharString>
                <CharString name="aringacute">
                    -9 callgsubr
320 953 -107 callsubr
119 -92 -83 callsubr
-207 -761 -107 callgsubr
                </CharString>
                <CharString name="asciicircum">
                    559 -20 hstem
56 516 vstem
476 164 rmoveto
96 61 -210 334 -23 -3 -283 -329 75 -64 200 237 rlineto
endchar
                </CharString>
                <CharString name="asciitilde">
                    212 111 31 111 hstem
41 572 vstem
422 212 rmoveto
72 59 77 138 60 hvcurveto
-74 33 rlineto
-81 -37 -36 -56 -30 -48 -61 142 -90 hhcurveto
-73 -65 -82 -134 -58 hvcurveto
74 -32 rlineto
81 36 36 56 30 49 64 -142 92 hhcurveto
endchar
                </CharString>
                <CharString name="asterisk">
                    562 -20 149 -20 102 -20 hstem
114 499 vstem
404 256 rmoveto
73 29 -34 166 170 34 -4 77 -169 19 21 171 -78 21 -72 -157 -152 75 -45 -66 127 -118 -116 -122 49 -62 149 83 rlineto
endchar
                </CharString>
                <CharString name="asterisk.alt">
                    778 -20 hstem
93 523 vstem
407 596 rmoveto
65 154 -107 28 -16 -169 rlineto
-37 -7 rmoveto
-102 131 -78 -78 138 -98 rlineto
181 -50 rmoveto
165 24 -29 106 -154 -69 rlineto
-175 -47 rmoveto
-165 -23 29 -107 154 70 rlineto
122 -34 rmoveto
103 -131 77 78 -137 98 rlineto
-139 -39 rmoveto
-64 -154 108 -29 14 169 rlineto
endchar
                </CharString>
                <CharString name="at">
                    -174 93 153.5 90.5 283 89 134 91 hstemhm
48 99 99 102 101 98 -19 105 hintmask 11111101
468 -161 rmoveto
14 93 rlineto
-245 -46 -90 79 192 vvcurveto
267 151 245 146 69 25 -49 -88 -13 vhcurveto
2 -15 -15 1 -14 hhcurveto
-148 -87 -175 -158 -95 33 -44 48 hvcurveto
hintmask 11111110
39 46 28 40 40 hvcurveto
-6 -58 101 -1 10 68 12 68 11 56 rlinecurve
41 207 rlineto
hintmask 11111101
188 38 -55 101 -142 hhcurveto
-232 -182 -302 -310 -236 119 -129 301 56 hvcurveto
-85 324 rmoveto
-20 -15 20 46 91 51 126 46 14 25 -5 -8 23 hvcurveto
-46 -235 rlineto
-23 -27 -32 -12 -19 hhcurveto
endchar
                </CharString>
                <CharString name="atilde">
                    -40 callsubr
77 91 -49 -20 80 91 hstemhm
51 122 194 114 hintmask 11101110
516 733 rmoveto
hintmask 11011110
-87 callgsubr
hintmask 11101110
-87 callsubr
hintmask 11011110
-284 -633 -107 callgsubr
                </CharString>
                <CharString name="b">
                    -13 102 368 111 214 -20 hstem
453 119 vstem
229 -13 rmoveto
210 133 196 199 125 -51 61 -71 -59 -70 -45 -57 -61 hvcurveto
61 316 -120 -9 -147 -755 rlineto
-17 52 68 -14 55 hhcurveto
61 102 rmoveto
-24 -37 5 12 -39 hvcurveto
52 269 rlineto
45 48 56 37 41 hhcurveto
36 30 -31 -74 -127 -76 -136 -87 hvcurveto
endchar
                </CharString>
                <CharString name="backslash">
                    -215 1023 hstem
112 400 vstem
212 808 rmoveto
-100 -32 300 -991 100 33 rlineto
endchar
                </CharString>
                <CharString name="bar">
                    -202 993 hstem
158 308 vstem
351 788 rmoveto
-193 -990 rlineto
114 hlineto
194 993 rlineto
endchar
                </CharString>
                <CharString name="braceleft">
                    -234 1044 hstemhm
114 -4 callsubr
403 -234 -80 callsubr
                </CharString>
                <CharString name="braceleft.cap">
                    -180 1044 hstemhm
125 -4 callsubr
414 -180 -80 callsubr
                </CharString>
                <CharString name="braceright">
                    -234 1044 hstemhm
218 -4 callgsubr
24 -234 -79 callgsubr
                </CharString>
                <CharString name="braceright.cap">
                    775 -20 hstemhm
229 -4 callgsubr
35 -180 -79 callgsubr
                </CharString>
                <CharString name="bracketleft">
                    -199 96 780 96 hstem
68 542 vstem
68 -199 -36 callgsubr
                </CharString>
                <CharString name="bracketleft.cap">
                    -145 96 780 96 hstem
79 542 vstem
79 -145 -36 callgsubr
                </CharString>
                <CharString name="bracketright">
                    -198 96 780 97 hstem
10 543 vstem
553 775 -36 callsubr
                </CharString>
                <CharString name="bracketright.cap">
                    -144 96 780 97 hstem
21 543 vstem
564 829 -36 callsubr
                </CharString>
                <CharString name="breve">
                    626 95 hstem
118 436 vstem
485 831 -104 callsubr
endchar
                </CharString>
                <CharString name="breve.cap">
                    626 95 hstem
118 436 vstem
485 831 -104 callsubr
endchar
                </CharString>
                <CharString name="bullet">
                    174 313 hstem
170 299 vstem
469 350 rmoveto
80 -56 57 -82 -83 -78 -69 -105 -80 60 -59 76 84 79 70 106 vhcurveto
endchar
                </CharString>
                <CharString name="bullet.alt">
                    197 269 hstem
162 322 vstem
430 197 rmoveto
54 269 rlineto
-268 hlineto
-54 -269 rlineto
endchar
                </CharString>
                <CharString name="c">
                    9 callgsubr
-12 callsubr
562 364 -89 callgsubr
                </CharString>
                <CharString name="cacute">
                    9 callgsubr
213 -20 -12 callsubr
248 687 -107 callsubr
314 -323 -89 callgsubr
                </CharString>
                <CharString name="caron">
                    -57 callgsubr
                </CharString>
                <CharString name="caron.alt">
                    607 286 hstem
271 181 vstem
319 888 -73 callsubr
endchar
                </CharString>
                <CharString name="caron.alt.cap">
                    607 286 hstem
271 181 vstem
319 888 -73 callsubr
endchar
                </CharString>
                <CharString name="caron.cap">
                    -57 callgsubr
                </CharString>
                <CharString name="ccaron">
                    9 callgsubr
-12 callsubr
393 629 -97 callsubr
176 -265 -89 callgsubr
                </CharString>
                <CharString name="ccedilla">
                    -74 165 -98 98 373 103 hstemhm
72 120 110 104 46 110 hintmask 01111100
406 -206 rmoveto
6 104 -29 65 -46 30 54 8 62 19 70 33 -11 63 rcurveline
-243 -55 -77 35 126 vvcurveto
128 83 114 103 53 21 -28 -74 vhcurveto
110 2 rlineto
145 9 -49 58 -111 hhcurveto
-183 -156 -172 -197 -100 46 -79 96 -24 hvcurveto
-42 -23 -37 -51 -34 -82 61 -20 rcurveline
hintmask 10111100
-55 callsubr
endchar
                </CharString>
                <CharString name="cdotaccent">
                    9 callgsubr
85.5 150 -12 callsubr
455 653 -77 callsubr
238 -288 -89 callgsubr
                </CharString>
                <CharString name="cedilla">
                    -62 callgsubr
                </CharString>
                <CharString name="cedilla.cap">
                    -62 callgsubr
                </CharString>
                <CharString name="cent">
                    29 106 294 112 147 -20 hstem
82 114 vstem
196 290 rmoveto
60 32 52 115 19 vhcurveto
-56 -248 rlineto
-66 28 -25 40 49 vvcurveto
284 -261 rmoveto
19 106 -51 3 -43 5 -36 7 rlinecurve
61 279 rlineto
35 38 -1 -3 44 hvcurveto
22 116 -38 3 -36 1 -33 -1 rlinecurve
32 144 rlineto
-107 hlineto
-31 -155 rlineto
-202 -37 -72 -121 -106 vvcurveto
-89 56 -71 113 -41 vhcurveto
-38 -161 rlineto
107 hlineto
29 135 39 -7 44 -4 48 -2 rlinecurve
endchar
                </CharString>
                <CharString name="check.1">
                    -16 154 -133 -21 719 -20 hstemhm
74 584 hintmask 01110000
658 703 rmoveto
-117 51 rlineto
hintmask 10110000
-115 -180 -99 -214 -77 -222 rrcurveto
-6 hlineto
-59 282 -111 -33 98 -403 106 -2 rlineto
hintmask 01110000
107 270 127 232 146 219 rrcurveto
endchar
                </CharString>
                <CharString name="check.2">
                    11 -21 23 -21 37 -21 694 -20 hstemhm
24 619 hintmask 01011000
319 -8 rmoveto
hintmask 00111000
119 16 -98 286 303 408 -111 55 -231 -356 -54 182 -116 -31 87 -252 rlineto
hintmask 10011000
-194 -275 75 -35 156 212 rlineto
endchar
                </CharString>
                <CharString name="circumflex">
                    684 -20 hstem
116 411 vstem
445 619 -93 callgsubr
endchar
                </CharString>
                <CharString name="circumflex.cap">
                    684 -20 hstem
116 411 vstem
445 619 -93 callgsubr
endchar
                </CharString>
                <CharString name="colon">
                    0 158 198 158 hstem
179 258 vstem
407 356 -22 callgsubr
82 -356 -22 callgsubr
endchar
                </CharString>
                <CharString name="colon.alt">
                    86 157 199 158 hstem
196 258 vstem
424 442 -22 callgsubr
82 -356 rmoveto
30 157 rlineto
-155 hlineto
-30 -157 rlineto
endchar
                </CharString>
                <CharString name="colonmonetary">
                    556 109 hstem
70 110 vstem
360 155 rmoveto
-26 6 -24 7 -20 8 96 352 rcurveline
24 6 26 6 29 4 rrcurveto
-285 -227 rmoveto
72 30 67 96 45 vhcurveto
-78 -291 rlineto
-32 27 -16 34 46 vvcurveto
109 -399 rmoveto
84 hlineto
30 116 23 -4 24 -3 25 -3 rlinecurve
44 103 -33 4 -30 5 -28 5 rlinecurve
112 411 27 2 30 1 31 1 rlinecurve
12 109 -23 -1 -22 -1 -21 -2 rlinecurve
30 108 rlineto
-85 hlineto
-31 -117 -26 -4 -24 -4 -22 -5 rlinecurve
35 130 rlineto
-84 hlineto
-41 -156 rlineto
-195 -68 -61 -126 -122 vvcurveto
-88 39 -64 79 -44 vhcurveto
-52 -183 rlineto
84 hlineto
41 150 20 -7 22 -6 23 -6 rlinecurve
endchar
                </CharString>
                <CharString name="comma">
                    -176 339 hstem
212 154 vstem
128 -150 rmoveto
49 -26 121 100 65 99 3 140 rlinecurve
-154 -4 8 -125 -15 -87 -77 -97 rlinecurve
endchar
                </CharString>
                <CharString name="commaaccent">
                    -311 237 hstem
234 149 vstem
193 -289 -99 callsubr
                </CharString>
                <CharString name="commaaccent.cap">
                    -311 237 hstem
234 149 vstem
193 -289 -99 callsubr
                </CharString>
                <CharString name="commaaccent.rot">
                    631 237 hstem
227 149 vstem
418 846 -20 callsubr
endchar
                </CharString>
                <CharString name="copyright">
                    8 64 92 75 209 76 92 64 hstem
53 70 73 78 98 66 82 71 vstem
53 281 rmoveto
-175 100 -98 136 183 119 173 229 175 -95 95 -135 -172 -136 -167 -232 vhcurveto
70 11 rmoveto
186 101 138 128 95 73 -69 -149 -184 -84 -142 -137 -98 -78 73 147 vhcurveto
233 232 rmoveto
-89 -71 -108 -118 -106 64 -58 131 46 hvcurveto
13 71 rlineto
-95 -28 -35 23 66 vvcurveto
68 29 68 41 19 10 -18 -37 -1 vhcurveto
66 1 rlineto
87 4 -29 43 -57 hhcurveto
endchar
                </CharString>
                <CharString name="d">
                    -24 callsubr
hintmask 10101110
236 100 -78 callgsubr
                </CharString>
                <CharString name="dagger">
                    776 -20 hstem
137 458 vstem
320 148 rmoveto
94 357 162 -16 19 95 -158 16 37 -3 callgsubr
165 -16 -82 -387 17 -11 rlineto
endchar
                </CharString>
                <CharString name="daggerdbl">
                    776 -20 hstem
93 502 vstem
308 91 rmoveto
49 194 175 -17 19 95 -170 17 32 125 163 -16 19 95 -159 16 38 -3 callgsubr
166 -16 -27 -126 -164 16 -19 -96 163 -16 -47 -221 15 -12 rlineto
endchar
                </CharString>
                <CharString name="dcaron">
                    -24 callsubr
hintmask 01101110
701 888 -73 callsubr
hintmask 10101110
-598 -793 -78 callgsubr
                </CharString>
                <CharString name="dcroat">
                    -13 113 -110 100 377 100 -4 -20 90 77 72 -20 hstemhm
52 120 195 116 hintmask 10101111
236 100 rmoveto
-36 -28 32 72 124 74 139 87 22 36 -6 -12 38 hvcurveto
-53 -272 rlineto
-43 -46 -56 -34 -38 hhcurveto
hintmask 01011111
350 -52 rmoveto
-11 58 -94 -29 -5 9 11 62 rlinecurve
95 484 rlineto
70 hlineto
15 78 rlineto
-70 17 callsubr
-142 hlineto
-16 -77 rlineto
143 hlineto
-14 -70 rlineto
hintmask 10101111
3 -21 -20 1 -19 hhcurveto
-207 -132 -197 -199 -123 53 -61 68 59 73 49 61 62 hvcurveto
hintmask 01011111
-9 -112 50 -38 178 101 rrcurveto
endchar
                </CharString>
                <CharString name="degree">
                    333 91 242 90 hstem
154 96 220 97 vstem
380 756 rmoveto
-118 -108 -92 -138 -118 79 -75 107 118 109 92 139 117 -79 75 -108 hvcurveto
-28 -332 rmoveto
-61 -41 47 64 78 52 53 67 61 40 -47 -64 -78 -52 -53 -66 hvcurveto
endchar
                </CharString>
                <CharString name="dieresis">
                    640 6 callgsubr
124 419 vstem
496 641 -102 callsubr
endchar
                </CharString>
                <CharString name="dieresis.cap">
                    640 6 callgsubr
124 419 vstem
496 641 -102 callsubr
endchar
                </CharString>
                <CharString name="divide">
                    68 124 87 103 87 124 hstem
68 511 cntrmask 11100000
413 469 1 callsubr
294 -87 rmoveto
-491 hlineto
-20 -103 rlineto
490 hlineto
-222 -211 1 callsubr
endchar
                </CharString>
                <CharString name="dollar">
                    33 98 426 97 hstem
130 112 171 113 vstem
242 512 rmoveto
27 35 20 79 -2 vhcurveto
-42 -136 rlineto
-41 34 -31 31 26 vvcurveto
171 -333 rmoveto
-29 -36 -20 -79 1 vhcurveto
42 140 rlineto
42 -34 31 -31 -27 vvcurveto
-162 -262 rmoveto
31 116 rlineto
179 4 65 69 68 vvcurveto
72 -78 68 -74 59 vhcurveto
55 177 39 -6 45 -9 52 -14 rlinecurve
22 107 -40 9 -37 6 -34 4 rlinecurve
40 123 -21 callsubr
hlineto
-34 -116 rlineto
-175 -68 -71 -71 -71 76 -65 73 -57 hvcurveto
-55 -183 -44 5 -53 9 -61 15 rlinecurve
-24 -108 51 -10 45 -6 42 -4 rlinecurve
-36 -120 rlineto
endchar
                </CharString>
                <CharString name="dotaccent">
                    -43 callgsubr
                </CharString>
                <CharString name="dotaccent.cap">
                    -43 callgsubr
                </CharString>
                <CharString name="dotlessi">
                    -51 callgsubr
-25 callgsubr
hintmask 10110000
543 55 -75 callsubr
                </CharString>
                <CharString name="e">
                    -64 callsubr
-65 callgsubr
540 64 -106 callgsubr
                </CharString>
                <CharString name="eacute">
                    -64 callsubr
213 -20 -65 callgsubr
251 688 -107 callsubr
289 -624 -106 callgsubr
                </CharString>
                <CharString name="ebreve">
                    -64 callsubr
73 95 -65 callgsubr
579 846 -104 callsubr
-108 -740 -106 callgsubr
                </CharString>
                <CharString name="ecaron">
                    -64 callsubr
-65 callgsubr
396 630 -97 callsubr
151 -566 -106 callgsubr
                </CharString>
                <CharString name="ecircumflex">
                    -64 callsubr
128 -42 callgsubr
65 116 273 114 hintmask 11110110
534 634 rmoveto
82 62 -167 166 rlineto
-7 hlineto
hintmask 11101110
-237 -163 rlineto
hintmask 11110110
53 -61 166 112 rlineto
116 -686 -106 callgsubr
                </CharString>
                <CharString name="edieresis">
                    -64 callsubr
87 150 -65 callgsubr
578 656 -102 callsubr
334 -588 -106 callgsubr
                </CharString>
                <CharString name="edotaccent">
                    -64 callsubr
85.5 150 -65 callgsubr
457 654 -77 callsubr
214 -589 -106 callgsubr
                </CharString>
                <CharString name="egrave">
                    -64 callsubr
216 -20 -65 callgsubr
561 681 -96 callgsubr
6 -567 -106 callgsubr
                </CharString>
                <CharString name="eight">
                    -14 95 516 103 -5 -20 hstemhm
54 114 -21 113 147 109 hintmask 11001100
516 172 rmoveto
72 -59 64 -62 59 vhcurveto
55 31 67 37 82 44 -36 69 rcurveline
-91 -47 -75 -41 -62 -37 rrcurveto
-42 41 -33 38 36 vvcurveto
49 54 33 181 -40 vhcurveto
hintmask 10101100
34 115 rlineto
hintmask 11001100
-245 27 -137 -92 -108 vvcurveto
-59 41 -52 49 -49 vhcurveto
hintmask 11010100
-148 -98 -35 -60 -65 vvcurveto
-90 80 -63 128 vhcurveto
hintmask 11001100
148 106 85 101 hvcurveto
-228 -91 rmoveto
hintmask 11010100
-65 -55 28 55 33 19 36 111 74 hvcurveto
57 -51 52 -47 -46 vvcurveto
hintmask 11001100
-47 -51 -35 -68 vhcurveto
endchar
                </CharString>
                <CharString name="eight.den">
                    -52 callsubr
-15 callgsubr
hintmask 10110110
404 -120 -102 callgsubr
hintmask 11010110
-48 callgsubr
hintmask 10111010
-72 callgsubr
hintmask 10110110
-49 callsubr
hintmask 10111010
-94 callgsubr
                </CharString>
                <CharString name="eight.inf">
                    -178 71 312 78 hstemhm
79 -32 callgsubr
hintmask 11011000
417 -54 -102 callgsubr
-48 callgsubr
hintmask 11101000
-72 callgsubr
hintmask 11011000
-49 callsubr
hintmask 11101000
-94 callgsubr
                </CharString>
                <CharString name="eight.num">
                    461 71 172 -20 21 -20 159 78 hstemhm
189 -32 callgsubr
hintmask 10110110
527 585 -102 callgsubr
hintmask 11010110
-48 callgsubr
hintmask 10111010
-72 callgsubr
hintmask 10110110
-49 callsubr
hintmask 10111010
-94 callgsubr
                </CharString>
                <CharString name="eight.small">
                    -11 71 312 78 hstemhm
104 -32 callgsubr
hintmask 11011000
442 113 -102 callgsubr
-48 callgsubr
hintmask 11101000
-72 callgsubr
hintmask 11011000
-49 callsubr
hintmask 11101000
-94 callgsubr
                </CharString>
                <CharString name="eight.sup">
                    353 71 286 -20 46 78 hstemhm
168 -32 callgsubr
hintmask 10101100
506 477 rmoveto
46 -40 39 -44 35 vhcurveto
hintmask 11101100
37 18 44 20 54 23 -27 52 rcurveline
hintmask 10101100
-63 -27 -53 -24 -43 -22 rrcurveto
-30 24 -22 21 20 vvcurveto
30 37 20 126 -32 vhcurveto
32 88 rlineto
-185 27 -99 -68 -73 vvcurveto
-48 callgsubr
hintmask 10110100
-72 callgsubr
hintmask 10101100
-49 callsubr
hintmask 10110100
-94 callgsubr
                </CharString>
                <CharString name="ellipsis">
                    0 163 hstem
3 162 41 163 41 162 cntrmask 01110000
129 hmoveto
36 163 rlineto
-14 callgsubr
-37 -163 rlineto
532 hmoveto
37 163 -32 callsubr
-36 -163 rlineto
-78 hmoveto
37 163 -32 callsubr
-37 -163 rlineto
endchar
                </CharString>
                <CharString name="emacron">
                    -64 callsubr
112 101 -65 callgsubr
617 781 -76 callsubr
-58 -616 -106 callgsubr
                </CharString>
                <CharString name="emdash">
                    282 96 hstem
77 514 vstem
591 378 rmoveto
-495 hlineto
-19 -96 rlineto
496 hlineto
endchar
                </CharString>
                <CharString name="endash">
                    282 96 hstem
86 473 vstem
559 378 rmoveto
-454 hlineto
-19 -96 rlineto
455 hlineto
endchar
                </CharString>
                <CharString name="eogonek">
                    -26 callgsubr
142 101 -80 -21 215 67 198 98 hstemhm
65 116 17 110 146 114 hintmask 1001111110000000
472 -187 rmoveto
hintmask 0110111110000000
-34 callgsubr
55 111 69 121 57 vhcurveto
-13 63 rlineto
hintmask 0110111010000000
-257 -66 -85 23 -4 121 rrcurveto
251 18 136 78 129 vvcurveto
85 -62 53 -100 -192 -149 -193 -177 -131 83 -94 164 17 vhcurveto
hintmask 1001111110000000
-80 -48 -34 -48 -45 -34 callsubr
hintmask 0101111010000000
-98 657 rmoveto
49 31 -27 -40 -77 -102 -42 -165 -12 hvcurveto
102 20 70 96 97 hhcurveto
endchar
                </CharString>
                <CharString name="equal">
                    160 17 callgsubr
587 507 rmoveto
-457 hlineto
-21 -102 rlineto
458 hlineto
-27 -142 rmoveto
-458 hlineto
-21 -103 rlineto
458 hlineto
endchar
                </CharString>
                <CharString name="eth">
                    -15 97 335 94 178 -20 hstem
58 122 269 119 vstem
270 -15 rmoveto
171 127 147 217 102 -32 92 -58 86 hvcurveto
97 27 -17 69 -126 -36 -30 36 -35 34 -39 33 rlinecurve
-94 -60 30 -26 27 -25 23 -25 rlinecurve
-124 -35 20 -68 154 43 22 -29 17 -30 13 -30 rlinecurve
3 -19 -18 1 -18 hhcurveto
-170 -133 -143 -168 -128 83 -87 129 hvcurveto
22 97 rmoveto
-69 -43 55 87 100 63 93 88 26 44 -8 -17 45 hvcurveto
2 -18 1 -19 -19 vvcurveto
-144 -59 -110 -98 vhcurveto
endchar
                </CharString>
                <CharString name="exclam">
                    0 146 hstem
174 307 vstem
348 272 rmoveto
11 50 110 378 12 52 rrcurveto
-156 hlineto
-9 -52 -39 -378 -10 -50 rrcurveto
59 -272 rmoveto
29 146 rlineto
-152 hlineto
-29 -146 rlineto
endchar
                </CharString>
                <CharString name="exclamdown">
                    542 146 hstem
159 307 vstem
314 688 rmoveto
-29 -146 rlineto
152 hlineto
29 146 rlineto
-174 -272 rmoveto
-11 -49 -110 -378 -12 -52 rrcurveto
156 hlineto
9 52 39 378 10 49 rrcurveto
endchar
                </CharString>
                <CharString name="f">
                    -198 95 370.5 12 callsubr
118 182 79 68 103 vstem
463 17 rmoveto
79 -43 87 -103 87 vhcurveto
228 -5 18 97 -311 -1 rlineto
165 56 92 130 82 -20 callgsubr
-150 -160 -192 -230 -81 hvcurveto
-60 hlineto
-17 -76 48 -17 rlineto
-16 -68 -10 -69 -67 vvcurveto
-177 72 -85 101 107 99 89 126 vhcurveto
-162 -120 rmoveto
-55 -44 43 132 55 6 57 12 55 hvcurveto
115 -82 49 -85 -77 vvcurveto
-59 -33 -39 -50 vhcurveto
endchar
                </CharString>
                <CharString name="f.lig">
                    -167 95 339.5 12 callsubr
119 181 79 68 103 vstem
463 32 rmoveto
75 -42 81 -102 82 vhcurveto
226 -5 18 97 -312 -1 rlineto
162 54 94 133 83 -20 callgsubr
-151 -161 -197 -225 -81 hvcurveto
-58 hlineto
-17 -76 46 -16 rlineto
-15 -63 -9 -62 -60 vvcurveto
-171 72 -80 101 107 99 82 117 vhcurveto
-162 -104 rmoveto
-55 -43 39 125 48 6 51 9 50 hvcurveto
117 -77 49 -80 -69 vvcurveto
-55 -33 -32 -50 vhcurveto
endchar
                </CharString>
                <CharString name="five">
                    -4 110 -85 -21 583.5 104.5 hstemhm
422 114 hintmask 10110000
536 227 rmoveto
81 -65 77 -204 43 vhcurveto
35 156 266 -1 31 105 rlineto
-383 hlineto
-76 -336 rlineto
209 -35 73 -49 -59 vvcurveto
-63 -80 -61 -268 28 15 callsubr
346 -29 130 134 122 vvcurveto
endchar
                </CharString>
                <CharString name="five.den">
                    -68 callgsubr
hstem
319 93 vstem
412 -89 -103 callgsubr
                </CharString>
                <CharString name="five.inf">
                    -169 -23 callgsubr
332 93 vstem
425 -23 -103 callgsubr
                </CharString>
                <CharString name="five.num">
                    470 -46 callgsubr
442 93 hintmask 10111000
-66 callgsubr
hintmask 01111000
152 -20 51 -28 -32 vvcurveto
-36 -53 -34 -191 16 vhcurveto
hintmask 10111000
-10 -85 rlineto
254 -18 93 83 81 vvcurveto
endchar
                </CharString>
                <CharString name="five.small">
                    -2 -23 callgsubr
357 93 vstem
450 144 -103 callgsubr
                </CharString>
                <CharString name="five.sup">
                    362 -23 callgsubr
421 93 vstem
514 508 -103 callgsubr
                </CharString>
                <CharString name="fiveeighths">
                    -30 callsubr
93 -46 callgsubr
66 90 -28 89 99 88 38 93 hintmask 1011110110111000
-66 callgsubr
hintmask 1011101110111000
152 -20 51 -28 -32 vvcurveto
-36 -53 -34 -191 16 vhcurveto
hintmask 1011110110111000
-10 -85 rlineto
254 -18 93 83 81 vvcurveto
hintmask 1011101110111000
-465 -316 -85 callsubr
318 -497 -102 callgsubr
hintmask 1101101110111000
-48 callgsubr
hintmask 1011101111011000
-72 callgsubr
hintmask 1011101110111000
-49 callsubr
hintmask 1011101111011000
-94 callgsubr
                </CharString>
                <CharString name="fivesixths">
                    -244 14 callsubr
266 77 93 -46 callgsubr
77 -5 callgsubr
20 93 hintmask 1111011111000000
-66 callgsubr
hintmask 1110111111000000
152 -20 51 -28 -32 vvcurveto
-36 -53 -34 -191 16 vhcurveto
hintmask 1111011110000000
-10 -85 rlineto
hintmask 1111011111000000
254 -18 93 83 81 vvcurveto
hintmask 1110111110000000
-465 -316 -85 callsubr
153 -621 -101 callgsubr
                </CharString>
                <CharString name="four">
                    21 -21 135 104 450 -20 27 -20 hstemhm
52 518 hintmask 11011000
541 135 rmoveto
29 104 rlineto
-74 hlineto
44 226 -111 -9 -43 -217 rlineto
-211 hlineto
hintmask 11101000
81 124 61 121 69 205 rrcurveto
hintmask 11011000
-127 7 -62 -206 -56 -129 -84 -148 rlinecurve
-5 -78 rlineto
314 hlineto
-27 -135 rlineto
110 hlineto
26 135 rlineto
endchar
                </CharString>
                <CharString name="four.den">
                    -151 78 hstem
63 380 vstem
420 -151 -99 callgsubr
endchar
                </CharString>
                <CharString name="four.inf">
                    -85 78 hstem
76 380 vstem
433 -85 -99 callgsubr
endchar
                </CharString>
                <CharString name="four.num">
                    554 78 hstem
186 380 vstem
543 554 -99 callgsubr
endchar
                </CharString>
                <CharString name="four.small">
                    0 160 -78 78 hstemhm
101 380 hintmask 01100000
458 82 rmoveto
hintmask 10100000
23 78 rlineto
-57 hlineto
27 138 -89 -7 -25 -131 rlineto
-135 hlineto
52 76 40 76 44 127 -101 5 rcurveline
hintmask 01100000
-38 -126 -37 -78 -54 -93 -7 -65 rcurveline
221 hlineto
hintmask 10100000
-16 -82 rlineto
87 hlineto
hintmask 01100000
16 82 rlineto
endchar
                </CharString>
                <CharString name="four.sup">
                    446 78 hstem
165 380 vstem
522 446 -99 callgsubr
endchar
                </CharString>
                <CharString name="fourfifths">
                    -68 callgsubr
95 77 177 78 hstem
319 93 vstem
543 554 -99 callgsubr
-424 -254 -86 callsubr
                </CharString>
                <CharString name="fraction">
                    -178 1019 hstem
-50 732 vstem
45 -178 rmoveto
637 967 -94 52 -638 -968 rlineto
endchar
                </CharString>
                <CharString name="fraction.afrc">
                    300 77 hstem
70 499 vstem
70 300 -85 callsubr
endchar
                </CharString>
                <CharString name="g">
                    -57 callsubr
hstemhm
60 119 210 94 hintmask 10110110
252 139 rmoveto
-42 -31 29 67 105 65 129 88 24 35 -9 -21 41 hvcurveto
-25 -66 -21 -81 -7 -76 rrcurveto
-50 -42 -45 -27 -40 hhcurveto
230 -215 rmoveto
31 62 -30 83 134 vvcurveto
10 0 12 1 11 vhcurveto
hintmask 10101110
-65 callsubr
hintmask 01110110
-82 callgsubr
hintmask 10110110
-12 -114 267 -13 129 49 38 77 rlinecurve
endchar
                </CharString>
                <CharString name="gbreve">
                    -57 callsubr
93 95 16 callgsubr
582 849 -104 callsubr
-399 -668 -86 callgsubr
                </CharString>
                <CharString name="gcommaaccent">
                    -57 callsubr
hstemhm
60 119 120 149 -59 94 hintmask 10110110
490 864 -20 callsubr
-238 -725 rmoveto
-42 -31 29 67 105 65 129 88 24 35 -9 -21 41 hvcurveto
-25 -66 -21 -81 -7 -76 rrcurveto
-50 -42 -45 -27 -40 hhcurveto
hintmask 10101101
230 -215 rmoveto
31 62 -30 83 134 vvcurveto
10 0 12 1 11 vhcurveto
-65 callsubr
hintmask 01110101
-82 callgsubr
hintmask 10110101
-12 -114 rlineto
hintmask 10101101
267 -13 129 49 38 77 rrcurveto
endchar
                </CharString>
                <CharString name="gdotaccent">
                    -57 callsubr
105.5 150 16 callgsubr
460 657 -77 callsubr
-77 -517 -86 callgsubr
                </CharString>
                <CharString name="germandbls">
                    -9 104 -104 109 -100 95 589 99 hstemhm
446 122 -109 124 hintmask 10011000
243 -9 rmoveto
243 -9 82 85 97 vvcurveto
73 -54 73 -80 74 vhcurveto
hintmask 00110100
91 92 58 80 86 vvcurveto
74 -49 67 -108 -144 -105 -106 -170 -33 vhcurveto
-99 -507 rlineto
121 hlineto
99 514 rlineto
115 22 46 55 60 hhcurveto
44 22 -31 -41 -65 -48 -66 -116 -124 hvcurveto
hintmask 01011000
106 -94 45 -66 -47 vvcurveto
-49 -53 -14 -137 13 vhcurveto
endchar
                </CharString>
                <CharString name="grave">
                    616 248 hstem
157 306 vstem
463 666 -96 callgsubr
endchar
                </CharString>
                <CharString name="grave.cap">
                    616 248 hstem
157 306 vstem
463 666 -96 callgsubr
endchar
                </CharString>
                <CharString name="greater">
                    -24 703 hstem
70 483 vstem
120 -24 rmoveto
415 278 18 102 -311 323 -83 -81 276 -276 -2 -12 -363 -239 rlineto
endchar
                </CharString>
                <CharString name="greaterequal">
                    8 103 hstem
32 534 vstem
433 412 rmoveto
-2 -8 -333 -147 22 -98 430 194 16 93 -336 230 -65 -89 rlineto
344 -476 2 callsubr
                </CharString>
                <CharString name="guillemotleft">
                    6 -21 585 -20 hstem
43 599 vstem
185 -15 -47 callsubr
-12 callgsubr
                </CharString>
                <CharString name="guillemotleft.cap">
                    563 -20 24 -20 hstemhm
56 599 hintmask 01100000
198 55 -47 callsubr
rlineto
hintmask 10100000
-12 callgsubr
                </CharString>
                <CharString name="guillemotright">
                    7 -21 23 -21 hstemhm
7 599 hintmask 10100000
356 -14 -28 callgsubr
hintmask 01100000
-39 callsubr
                </CharString>
                <CharString name="guillemotright.cap">
                    56 587 hstem
20 599 vstem
369 56 -28 callgsubr
-39 callsubr
                </CharString>
                <CharString name="guilsinglleft">
                    -25 602 hstem
127 398 vstem
337 -25 -28 callsubr
                </CharString>
                <CharString name="guilsinglleft.cap">
                    553 -20 hstem
140 398 vstem
350 45 -28 callsubr
                </CharString>
                <CharString name="guilsinglright">
                    -21 601 hstem
93 398 vstem
162 -21 -31 callsubr
                </CharString>
                <CharString name="guilsinglright.cap">
                    568 -20 hstem
106 398 vstem
175 49 -31 callsubr
                </CharString>
                <CharString name="h">
                    -45 callsubr
0 -20 235 -20 -44 callgsubr
hintmask 10011100
-3 callsubr
hintmask 01011010
57 69 179 109 vvcurveto
60 -24 49 -75 -65 -70 -38 -72 -71 vhcurveto
63 325 -119 -9 -150 -773 rlineto
118 hlineto
hintmask 10101010
70 363 rlineto
59 58 51 31 39 hhcurveto
33 14 -20 -35 hvcurveto
hintmask 10011100
-82 -67 -170 -85 -51 callsubr
endchar
                </CharString>
                <CharString name="hbar">
                    -12 103 -70 -21 450 114 0 -20 89 77 72 -20 -44 callgsubr
hintmask 10011110
-3 callsubr
hintmask 01011101
56 69 177 109 vvcurveto
60 -24 49 -75 -65 -71 -38 -72 -70 vhcurveto
34 179 rlineto
142 hlineto
15 77 rlineto
-142 17 callsubr
-70 hlineto
-15 -78 rlineto
70 hlineto
-123 -632 rlineto
118 hlineto
hintmask 10101101
69 359 rlineto
60 59 51 31 39 hhcurveto
33 14 -20 -35 hvcurveto
hintmask 10011110
-81 -67 -169 -84 -51 callsubr
endchar
                </CharString>
                <CharString name="hcoslug">
                    -100 75 5 10 -6 10 -4 11 -10 10 -9 7 0 12 -11 11 -7 15 -15 26 -25 26 -15 8 -8 15 -12 12 0 14 -9 10 -10 19 -9 11 2 8 -7 32 71.5 22.5 514 -20 hstemhm
87 64 10 16 -3 8 5 40 -35 12 -1 12 14 10 -2 10 -10 42 -31 9 -1 7 3 12 -6 11 9 40 -29 13 -9 10 0 12 -4 11 -2 12 -5 16 18 11 10 8 hintmask 000000100000000000010110000010000010000010010000
537 700 rmoveto
-450 hlineto
hintmask 100000000000000000011010000000100000001000000000
-800 450 vlineto
-300 396 rmoveto
-17 11 -11 17 -16 vhcurveto
9 13 5 12 12 vvcurveto
18 -9 11 -13 -12 -8 -9 -13 vhcurveto
49 -64 rmoveto
12 -12 9 -12 9 -11 15 25 3 18 -17 17 -7 -7 -10 -9 -14 -9 rrcurveto
-39 -93 rmoveto
12 9 3 6 8 hvcurveto
-21 27 -21 22 -14 13 rrcurveto
-8 -8 -4 -11 -11 vvcurveto
-23 17 -18 22 vhcurveto
91 34 rmoveto
-22 19 13 -9 15 hhcurveto
15 9 9 13 8 hvcurveto
5 -1 rlineto
-44 -1 -27 -27 -32 hhcurveto
-22 -17 8 26 -25 hvcurveto
-23 -21 -25 -11 -32 hhcurveto
-45 -36 30 40 31 21 24 40 13 hvcurveto
-16 17 -7 13 22 vvcurveto
32 31 32 51 46 25 -30 -26 -10 -2 -8 -5 -7 vhcurveto
20 15 -8 -20 2 hvcurveto
18 12 14 10 19 hhcurveto
21 16 -15 -24 -23 -16 -17 -21 -14 -12 7 12 -6 hvcurveto
-12 -7 -12 -10 -11 -15 rrcurveto
hintmask 000000000000000000010000000000000100000000000000
-72 -105 rmoveto
-8 10 -5 -10 vlineto
hintmask 000000000000000010000000000000000100000000000000
-15 vlineto
-3 1 -1 2 2 1 1 4 1 vhcurveto
4 -1 rlineto
-2 -7 -3 -3 -6 -6 -3 4 0 hflex1
hintmask 000000000000000001000000000000010000000000000000
15 -5 5 5 7 vlineto
hintmask 000000000000000100000000100000000000000000000000
-75 -21 -29 callsubr
-16 callgsubr
22 hmoveto
-55 callgsubr
hintmask 000000000000001000000000000000000000000100000000
132 -1 rmoveto
0 6 -2 4 -3 -5 -1 -5 0 hflex1
0 -6 1 -4 5 3 2 4 0 hflex1
-16 callgsubr
-120 -9 rmoveto
4 hlineto
hintmask 000000000000000001000010000000000000000000000000
19 -4 5 vlineto
hintmask 000000000000000000010000000010000000000000000000
13 -6 hlineto
4 2 3 3 5 hhcurveto
7 2 -5 -6 hvcurveto
hintmask 000000000000000100000000000000010000000000000000
-14 5 -5 vlineto
hintmask 000000000010000000000000000010000000000000000000
-17 5 3 hlineto
hintmask 000000000000000001000000000010000000000000000000
13 vlineto
3 -1 3 -3 -3 -3 -3 -5 vhcurveto
-11 3 -5 vlineto
-16 callgsubr
-16 hlineto
-71 5 rmoveto
6 hlineto
hintmask 000000000000000000100010000000000000000000000000
31 -6 5 vlineto
hintmask 000000000000000000010000001000000000000000000000
38 hlineto
hintmask 000000000000000001000000001000000000000000000000
-15 -5 vlineto
8 -2 -1 2 -6 hhcurveto
-8 hlineto
hintmask 000000000000000000100001000000000000000000000000
-14 3 vlineto
4 0 1 5 1 hvcurveto
5 hlineto
hintmask 000000000000000100000000100000000000000000000000
-17 -5 vlineto
5 -1 0 1 -4 hhcurveto
-3 hlineto
hintmask 000000000000000100000001000000000000000000000000
-12 7 -5 vlineto
-16 callgsubr
-23 hlineto
hintmask 000000000000000010000000000000000100000000000000
133 10 rmoveto
5 hlineto
-4 3 3 -3 3 hhcurveto
3 1 2 1 hvcurveto
hintmask 000000000000000000100000000000000100000000000000
7 -18 -4 12 vvcurveto
4 4 5 7 3 3 -1 -3 2 vhcurveto
1 4 rlineto
5 -10 -5 hlineto
4 -3 -2 1 -3 hhcurveto
-2 -2 -1 -2 hvcurveto
hintmask 000000000010000000000000000000000000100000000000
-5 18 2 -11 vvcurveto
-5 -3 -4 -7 -5 -3 2 2 -2 vhcurveto
-1 -3 rlineto
-5 hlineto
hintmask 000000000000000000100000000000000000100000000000
38 38 rmoveto
-5 5 hlineto
hintmask 000000000000000000010000000000000000000100000000
14 hlineto
hintmask 000000000000000000100000000000000000000100000000
-20 vlineto
4 1 4 3 4 hhcurveto
hintmask 000000000100000000000000000000000000000010000000
7 0 5 -6 0 -9 0 -7 -3 -9 0 flex1
-6 -3 2 4 -2 hvcurveto
-3 -6 rlineto
-4 hlineto
hintmask 100000000000000000010000000000000000000010000000
39 -6 rmoveto
3 3 2 4 hvcurveto
-3 7 -9 18 0 vvcurveto
-3 5 18 -5 -4 hlineto
7 -15 6 15 rlineto
-4 5 13 -5 -4 hlineto
hintmask 000000001000000000000000000000000000000010000000
-10 -24 rlineto
-7 -3 -4 -5 -6 hhcurveto
-6 -3 3 4 3 2 2 3 hvcurveto
hintmask 100000000000000000010000000000000000000010000000
5 1 -5 -2 -2 hvcurveto
hintmask 000000010000000000000000000000000000000000000000
45 -24 rmoveto
-6 -4 vlineto
-2 -4 -2 -3 -3 -3 rrcurveto
2 -2 2 -2 1 1 1 1 1 hflex1
3 -1 rlineto
-5 -1 -2 -4 -6 hhcurveto
hintmask 100000000000000000000000000000000000000001000000
-4 0 -2 2 -3 3 -3 -3 -4 -2 -6 flex1
-7 -5 4 6 6 4 3 6 2 hvcurveto
-3 3 -2 3 4 vvcurveto
hintmask 000000000001000000000000000000000000000000100000
5 4 6 9 6 4 -4 -5 -5 -3 -2 -5 -3 vhcurveto
2 -2 4 -5 3 -3 2 2 2 3 1 2 rrcurveto
-5 6 hlineto
hintmask 000000000100000000000000000000000010000000000000
-114 4 rmoveto
11 4 hlineto
-3 -2 2 2 2 1 1 0 hvcurveto
0 -1 1 -2 -2 -2 -2 -6 vhcurveto
hintmask 100000000000000000000000000000000000000000010000
132 -13 rmoveto
hintmask 000100000000000000000000000000000000000000010000
15 9 8 11 vhcurveto
hintmask 000100000000000000000000000000000000000000000000
5 4 -2 -3 3 hvcurveto
4 6 vlineto
-16 -6 vlineto
hintmask 000000100000000000000000000000000000000000000000
9 -3 -2 3 -6 hhcurveto
-6 -4 -5 -12 hvcurveto
3 callsubr
-11 4 -6 8 vhcurveto
hintmask 000010000000000000000000000000000000000000000000
6 3 6 6 1 hvcurveto
6 hlineto
hintmask 100000000000000000000000000000000000000000000000
-10 -1 -6 -7 -11 hhcurveto
hintmask 100000000000000000000000000000000000000000010000
-13 -8 7 14 hvcurveto
hintmask 000000100000000000000000000000000000000000100000
-29 4 rmoveto
2 1 2 3 3 vvcurveto
3 -2 2 -3 -2 -2 -1 -3 -2 2 -3 3 -3 vhcurveto
hintmask 010000000000000000000000000000000000010000000000
-68 -11 rmoveto
1 callgsubr
hintmask 100000000000000000000000000000000000010000000000
-6 -1 -4 -5 -8 hhcurveto
-10 -6 6 9 hvcurveto
hintmask 000000000010000000000000000000000000010000000000
10 7 6 8 11 4 -7 -10 -1 vhcurveto
hintmask 010000000000000000000000000001000000000000000000
-89 hmoveto
1 callgsubr
3 callgsubr
-6 -1 -4 -5 -8 hhcurveto
hintmask 100000000000000000000000010000000000000000000000
-10 -6 6 9 hvcurveto
hintmask 000000000010000000000000010000000000000000000000
10 7 6 8 vhcurveto
hintmask 000000000010000000000000000000001000000000000000
11 4 -7 -10 -1 hvcurveto
hintmask 010000000000000000000010000001000000000000000000
-63 2 -29 callsubr
252 hmoveto
3 callsubr
0 9 7 6 9 9 7 -6 0 hflex1
hintmask 010000000000000000000010000001000000000000000000
0 -9 -7 -7 -9 -9 -7 6 0 hflex1
hintmask 000001000000000000000000000001000000010000000000
-138 2 rmoveto
-2 callgsubr
-70 hmoveto
-2 callgsubr
hintmask 010000000000000000000000000100000000000000000000
-22 -2 rmoveto
-55 callgsubr
3 callsubr
252 hmoveto
-55 callgsubr
3 callgsubr
-208 -10 rmoveto
4 hlineto
hintmask 000001000000000000000000000000001000000000000000
19 -5 5 5 1 vlineto
hintmask 000000000000010000000000000000001000000000000000
10 7 4 6 4 2 -1 -1 2 vhcurveto
8 2 rlineto
hintmask 010000000000000000000000000000000000100000000000
-39 4 -5 vlineto
hintmask 100000000000000000000000000000000010000000000000
-17 5 4 hlineto
hintmask 000001000000000000000000000000000010000000000000
19 -11 vlineto
hintmask 010000000000000000000000000000000010000000000000
-19 4 -5 vlineto
3 callgsubr
-17 hlineto
hintmask 100000000000000000000000000000000001000000000000
69 5 rmoveto
4 hlineto
hintmask 000001000000000000000000000000000001000000000000
19 -4 5 vlineto
hintmask 000000000010000000000000000000000000000001000000
13 -6 hlineto
5 2 3 2 4 hhcurveto
4 2 -2 -4 -3 -2 -2 -3 -2 -3 1 3 hvcurveto
1 vlineto
-1 -3 -3 -4 -1 hvcurveto
hintmask 010000000000000000000000000000000000000001000000
-12 6 -5 vlineto
hintmask 100000000000000000000000000000000001000000000000
-19 hlineto
hintmask 100000000000000000000010000000000000000000000000
-183 5 rmoveto
6 hlineto
hintmask 000000100000000000000010000000000000000000000000
31 -6 5 vlineto
hintmask 000000000000100000000001000000000000000000000000
21 -5 -5 hlineto
hintmask 000000100000000000000001000000000000000000000000
-12 16 12 -5 5 vlineto
hintmask 000000000000100000000000000100000000000000000000
21 -5 -6 hlineto
hintmask 010000000000000000000000000100000000000000000000
-31 6 -5 vlineto
hintmask 100000000000000000000001000000000000000000000000
-21 5 5 hlineto
hintmask 001000000000000000000001000000000000000000000000
14 -16 vlineto
hintmask 010000000000000000000001000000000000000000000000
-14 5 -5 vlineto
hintmask 100000000000000000000010000000000000000000000000
-21 hlineto
hintmask 100000000000000000000000000000000000000000100000
234 7 rmoveto
-2 2 -4 5 -4 4 rrcurveto
-2 -2 -1 -2 -3 vvcurveto
-4 3 -3 4 2 2 1 2 2 vhcurveto
111 -2 rmoveto
0 -3 -2 -3 -4 -4 -2 3 0 hflex1
0 3 2 3 4 4 2 -3 0 hflex1
endchar
                </CharString>
                <CharString name="hungarumlaut">
                    623 260 hstem
152 495 vstem
204 624 -92 callsubr
endchar
                </CharString>
                <CharString name="hungarumlaut.cap">
                    623 260 hstem
152 495 vstem
204 624 -92 callsubr
endchar
                </CharString>
                <CharString name="hyphen">
                    278 105 hstem
142 355 vstem
497 383 rmoveto
-334 hlineto
-21 -105 rlineto
335 hlineto
endchar
                </CharString>
                <CharString name="i">
                    -51 callgsubr
106 152.5 -25 callgsubr
hintmask 10111000
-11 callsubr
229 -582 -91 callgsubr
                </CharString>
                <CharString name="iacute">
                    -51 callgsubr
-25 callgsubr
hintmask 10110000
230 673 -107 callsubr
313 -618 -75 callsubr
                </CharString>
                <CharString name="ibreve">
                    -51 callgsubr
92 95 -25 callgsubr
hintmask 10111000
559 831 -104 callsubr
-85 -734 -91 callgsubr
                </CharString>
                <CharString name="icircumflex">
                    -51 callgsubr
150 -20 -25 callgsubr
hintmask 10111000
513 619 -93 callgsubr
140 -680 -91 callgsubr
                </CharString>
                <CharString name="idieresis">
                    -51 callgsubr
106 150 -25 callgsubr
hintmask 10111000
558 641 -102 callsubr
357 -582 -91 callgsubr
                </CharString>
                <CharString name="igrave">
                    -51 callgsubr
-25 callgsubr
hintmask 10110000
541 666 -96 callgsubr
29 -561 -75 callsubr
                </CharString>
                <CharString name="imacron">
                    -51 callgsubr
131 101 -25 callgsubr
hintmask 10111000
597 766 -76 callsubr
-35 -610 -91 callgsubr
                </CharString>
                <CharString name="iogonek">
                    -26 callgsubr
141 105 350 110 0 -20 106 152.5 hstemhm
187 126 -123 110 hintmask 01101110
-11 callsubr
hintmask 10101101
150 -824 rmoveto
hintmask 01101101
-34 callgsubr
48 59 46 184 78 vhcurveto
-11 63 rlineto
hintmask 01101110
-218 -45 -18 15 26 96 96 369 rcurveline
-102 1 rlineto
hintmask 01110110
-232 -56 9 -62 184 16 -78 -289 -30 -111 26 -65 104 2 rlinecurve
hintmask 10101101
-77 -47 -32 -49 -44 -34 callsubr
endchar
                </CharString>
                <CharString name="j">
                    -192 113 -113 116 523 107 0 -20 106 155 hstemhm
345 79.02 hintmask 10011100
514 643 rmoveto
47 155 -138 -6 -38 -155 rlineto
-386 -829 rmoveto
232 2 73 13 46 46 80 80 -72 162 131 442 -111 1 rcurveline
hintmask 01101100
-250 -52 10 -61 207 12 -84 -340 40 -137 -36 -36 rlinecurve
-20 -19 -26 -3 -210 6 rrcurveto
endchar
                </CharString>
                <CharString name="k">
                    -7 callgsubr
450 109 215 -20 hstemhm
462 130 hintmask 10011100
429 -8 rmoveto
hintmask 00111100
-47 callgsubr
hintmask 01011100
-42 callsubr
endchar
                </CharString>
                <CharString name="kcommaaccent">
                    -7 callgsubr
450 109 215 -20 hstemhm
210 149 103 130 hintmask 10011110
429 -8 rmoveto
hintmask 00111110
-47 callgsubr
hintmask 01011110
-42 callsubr
-87 -515 -99 callsubr
                </CharString>
                <CharString name="l">
                    -13 callsubr
-79 callsubr
endchar
                </CharString>
                <CharString name="l.ultra">
                    -10 99 578 118 hstem
122 122 236 111 vstem
521 70 rmoveto
-18 60 -148 -61 -80 3 -24 93 rlinecurve
228 183 112 175 137 vvcurveto
80 -43 45 -71 -166 -189 -266 -304 -236 152 -53 247 144 vhcurveto
-87 597 rmoveto
26 20 -19 -40 -82 -70 -134 -166 -154 hvcurveto
240 108 189 82 vhcurveto
endchar
                </CharString>
                <CharString name="lacute">
                    -13 callsubr
399 897 -107 callsubr
135 -827 -104 callgsubr
endchar
                </CharString>
                <CharString name="lcaron">
                    -13 callsubr
691 888 -73 callsubr
-290 -823 -104 callgsubr
endchar
                </CharString>
                <CharString name="lcommaaccent">
                    -10 97 580 118 hstemhm
135 122 -52 149 139 111 hintmask 11101000
-79 callsubr
hintmask 11011000
-283 -966 -99 callsubr
                </CharString>
                <CharString name="ldot">
                    -10 97 196 142 242 -46 callsubr
-79 callsubr
219 -384 rmoveto
30 142 rlineto
-116 hlineto
-30 -142 rlineto
endchar
                </CharString>
                <CharString name="less">
                    -24 703 hstem
97 483 vstem
529 679 rmoveto
-414 -278 -18 -102 311 -323 83 81 -277 276 3 12 363 239 rlineto
endchar
                </CharString>
                <CharString name="lessequal">
                    8 103 hstem
32 550 vstem
245 408 rmoveto
337 173 -31 95 -425 -228 -20 -93 355 -194 58 91 -275 148 rlineto
265 -289 2 callsubr
                </CharString>
                <CharString name="lslash">
                    -10 97 580 118 79 85 hstemhm
135 122 -117 80 273 111 hintmask 11101100
140 794 rmoveto
-48 31 -37 43 -35 vhcurveto
63 77 rlineto
-36 28 -21 17 18 vvcurveto
53 208 27 279 -80 vhcurveto
38 94 rlineto
-345 89 -260 -63 -140 vvcurveto
394 -724 rmoveto
-18 60 -158 -66 -81 5 -17 116 rlinecurve
231 169 113 169 137 vvcurveto
80 -43 45 -71 vhcurveto
hintmask 11110100
-166 -189 -266 -304 -11 0 -10 1 -10 hvcurveto
-29 -19 -39 -25 -5 -3 29 -50 rcurveline
3 2 26 16 24 14 rrcurveto
hintmask 11101100
38 -153 142 -18 209 122 rrcurveto
hintmask 11110100
-87 597 rmoveto
26 20 -19 -40 -81 -70 -124 -166 -140 hvcurveto
228 8 103 176 79 hhcurveto
endchar
                </CharString>
                <CharString name="m">
                    -10 89 -58 -21 449 117 -11 -20 31 -20 hstemhm
305 96 17 114 -44 123 hintmask 10001110
588 23 rmoveto
-12 61 rlineto
-33 -10 -11 4 15 vvcurveto
hintmask 10001101
55 79 242 99 vvcurveto
51 -22 26 -43 -42 -51 -28 -56 -52 vhcurveto
57 1 -20 27 -41 hhcurveto
-36 -43 -24 -48 -44 hvcurveto
hintmask 01010101
3 25 3 30 1 6 -108 -6 rcurveline
-27 -162 -23 -125 -51 -262 rrcurveto
112 hlineto
hintmask 01100101
9 45 43 219 27 144 rrcurveto
28 29 26 13 19 hhcurveto
28 0 -27 -49 -9 hvcurveto
-73 -373 rlineto
85 hlineto
80 410 rlineto
26 27 26 13 19 hhcurveto
18 6 -11 -20 hvcurveto
hintmask 10001110
-64 -70 -242 -69 vvcurveto
-63 49 -8 121 51 vhcurveto
endchar
                </CharString>
                <CharString name="macron">
                    -31 callgsubr
                </CharString>
                <CharString name="macron.cap">
                    -31 callgsubr
                </CharString>
                <CharString name="minus">
                    279 103 hstem
84 478 vstem
562 382 rmoveto
-457 hlineto
-21 -103 rlineto
457 hlineto
endchar
                </CharString>
                <CharString name="mu">
                    -174 -21 183 103 -101 110 -81 -21 555 -20 24 -20 hstemhm
373 120 hintmask 11000110
132 -186 rmoveto
hintmask 10010110
30 184 rlineto
hintmask 10100110
-6 13 14 -2 17 hhcurveto
56 54 37 72 57 hvcurveto
hintmask 11001010
-12 -117 57 -36 169 100 -11 60 rcurveline
-85 -29 -5 12 12 60 79 404 rcurveline
-117 hlineto
hintmask 10100110
-70 -360 rlineto
-62 -53 -49 -31 -40 hhcurveto
-41 -13 32 69 14 hvcurveto
69 356 -119 -9 -144 -743 rlineto
endchar
                </CharString>
                <CharString name="multiply">
                    559 -20 29 -20 hstemhm
62 521 hintmask 01100000
441 92 rmoveto
87 73 -128 160 rlineto
hintmask 10100000
183 152 -66 82 -183 -152 rlineto
hintmask 01100000
-129 161 -88 -73 129 -161 -184 -153 67 -82 184 153 rlineto
endchar
                </CharString>
                <CharString name="n">
                    -25 callsubr
582 46 -78 callsubr
                </CharString>
                <CharString name="nacute">
                    -23 callsubr
233 -20 -44 callgsubr
hintmask 10001110
233 687 -107 callsubr
349 -641 -76 callgsubr
endchar
                </CharString>
                <CharString name="naira">
                    0 186 -165 -21 177.5 95 -91 96 -93.5 78.5 134 97 -91.5 96.5 -80 78.5 191 -20 22 -20 hstemhm
9 628 hintmask 0100100101100000
237 500 rmoveto
7 hlineto
57 -237 -109 -1 rlineto
hintmask 1000000101100000
218 -76 rmoveto
-54 232 105 1 -44 -233 rlineto
-53 -186 rmoveto
105 hlineto
hintmask 0101001010100000
35 181 73 1 18 96 -72 -1 24 125 rlineto
72 hlineto
18 97 -72 -1 37 190 rlineto
-90 hlineto
hintmask 0100100101100000
-36 -190 -139 -2 -45 194 -111 -4 rlineto
hintmask 0110010001100000
-37 -192 -73 -1 -19 -97 73 1 -24 -124 -73 -1 -19 -95 73 1 -34 -178 rlineto
94 hlineto
hintmask 0100100101100000
35 183 143 2 rlineto
endchar
                </CharString>
                <CharString name="ncaron">
                    -25 callsubr
378 629 -97 callsubr
211 -583 -78 callsubr
                </CharString>
                <CharString name="ncommaaccent">
                    -23 callsubr
hstemhm
180 149 33 126 -59 128 hintmask 10001110
582 46 -76 callgsubr
-443 -347 -99 callsubr
                </CharString>
                <CharString name="nine">
                    268 86 253 96 hstem
105 110 248 113 vstem
129 -19 rmoveto
326 98 121 201 188 vvcurveto
156 -88 79 -124 -142 -117 -103 -151 -177 175 -66 164 130 vhcurveto
-36 -95 -94 -99 -211 -56 rrcurveto
112 381 rmoveto
77 48 63 79 64 57 -41 -124 -11 -1 -11 -1 -12 vhcurveto
-131 -99 -115 46 112 vvcurveto
endchar
                </CharString>
                <CharString name="nine.den">
                    -61 20 callsubr
96 15 callgsubr
vstem
123 -248 -84 callsubr
                </CharString>
                <CharString name="nine.inf">
                    5 60 -21 21 145 72 hstemhm
109 15 callgsubr
hintmask 10111000
136 -182 -70 callgsubr
                </CharString>
                <CharString name="nine.num">
                    644 60 -21 21 145 72 hstemhm
219 15 callgsubr
hintmask 10111000
246 457 -70 callgsubr
                </CharString>
                <CharString name="nine.small">
                    6 -21 187 20 callsubr
134 15 callgsubr
vstem
161 -15 -84 callsubr
                </CharString>
                <CharString name="nine.sup">
                    536 20 callsubr
198 15 callgsubr
vstem
225 349 -84 callsubr
                </CharString>
                <CharString name="notequal">
                    22 -21 159 17 callgsubr
519 160 rmoveto
21 103 rlineto
-203 hlineto
79 142 rlineto
151 hlineto
20 102 rlineto
-114 hlineto
73 131 -87 29 -89 -160 rlineto
-240 hlineto
-21 -102 rlineto
204 hlineto
-79 -142 rlineto
-152 hlineto
-21 -103 rlineto
115 hlineto
-73 -131 88 -28 89 159 rlineto
endchar
                </CharString>
                <CharString name="ntilde">
                    -23 callsubr
98 91 -49 -20 80 91 -44 callgsubr
hintmask 1000110110000000
488 736 rmoveto
hintmask 1000101110000000
-87 callgsubr
hintmask 1000110110000000
-87 callsubr
hintmask 1000101110000000
94 -690 -64 callgsubr
hintmask 1000101101000000
57 69 179 109 vvcurveto
60 -24 49 -75 -67 -71 -39 -74 -72 vhcurveto
hintmask 0101001110000000
6 43 7 52 1 8 -118 -7 rcurveline
-23 -163 -25 -125 -50 -262 rrcurveto
117 hlineto
hintmask 1010001101000000
7 37 52 259 14 72 rrcurveto
56 58 50 29 38 hhcurveto
33 14 -20 -35 hvcurveto
hintmask 1000101110000000
-37 callgsubr
                </CharString>
                <CharString name="numbersign">
                    11 -21 36 -21 556 -20 147 -20 36 -20 hstemhm
38 569 hintmask 01101100
250 272 rmoveto
28 131 117 21 -28 -132 rlineto
hintmask 10101100
-177 -302 rmoveto
37 177 118 20 rlineto
hintmask 01101100
-39 -182 85 11 39 186 105 18 22 104 -104 -18 28 133 106 18 20 104 -104 -18 36 171 -85 -10 -37 -176 -117 -20 rlineto
hintmask 10110100
38 180 -85 -11 -39 -183 -104 -18 -20 -105 101 18 -28 -132 -104 -18 -21 -105 103 18 -37 -172 rlineto
endchar
                </CharString>
                <CharString name="numero">
                    21 -21 97 85 506 -20 27 -20 hstemhm
397 271 hintmask 11011000
577 695 rmoveto
-102 -78 -163 -163 -100 34 -42 57 102 78 163 163 100 -34 42 -57 hvcurveto
-371 -695 rmoveto
81 hlineto
hintmask 11101000
134 688 rlineto
-99 hlineto
-64 -372 rlineto
-2 hlineto
-28 372 rlineto
-87 hlineto
-134 -688 rlineto
99 hlineto
71 413 rlineto
3 hlineto
399 -316 rmoveto
17 85 rlineto
-236 hlineto
-17 -85 rlineto
endchar
                </CharString>
                <CharString name="o">
                    -33 callgsubr
-56 callgsubr
568 341 -105 callgsubr
                </CharString>
                <CharString name="oacute">
                    -33 callgsubr
213 -20 -56 callgsubr
236 688 -107 callsubr
332 -347 -105 callgsubr
                </CharString>
                <CharString name="obreve">
                    -33 callgsubr
73 95 -56 callgsubr
565 846 -104 callsubr
-66 -463 -105 callgsubr
                </CharString>
                <CharString name="ocircumflex">
                    -33 callgsubr
128 -42 callgsubr
57 122 267 122 hintmask 11101100
519 634 -37 callsubr
159 -409 -105 callgsubr
                </CharString>
                <CharString name="odieresis">
                    -33 callgsubr
87 150 -56 callgsubr
564 656 -102 callsubr
376 -311 -105 callgsubr
                </CharString>
                <CharString name="oe">
                    -11 94 -92 101 374 98 -94 94 hstemhm
33 113 386 111 hintmask 01011100
305 398 rmoveto
hintmask 10011100
-103 -51 -212 -66 -26 -16 27 52 105 58 203 62 vhcurveto
hintmask 01011100
26 13 -27 -45 hvcurveto
hintmask 01101100
196 68 rmoveto
20 11 -15 -28 -56 -41 -70 -96 -21 hvcurveto
97 18 40 93 48 hhcurveto
90 -399 rmoveto
-14 57 rlineto
-145 -57 -46 21 92 vvcurveto
9 0 9 1 10 vhcurveto
175 26 81 98 110 vvcurveto
hintmask 10011100
79 -43 43 -63 -54 -50 -36 -56 -40 vhcurveto
58 -19 -38 34 -54 hhcurveto
-141 -108 -207 -187 -118 49 -63 78 54 51 36 56 42 hvcurveto
hintmask 01101100
28 -100 89 -34 167 120 rrcurveto
endchar
                </CharString>
                <CharString name="ogonek">
                    -68 callsubr
                </CharString>
                <CharString name="ogonek.cap">
                    -68 callsubr
                </CharString>
                <CharString name="ograve">
                    -33 callgsubr
216 -20 -56 callgsubr
547 681 -96 callgsubr
48 -290 -105 callgsubr
                </CharString>
                <CharString name="ohungarumlaut">
                    -33 callgsubr
-56 callgsubr
256 639 -92 callsubr
128 -338 -105 callgsubr
                </CharString>
                <CharString name="omacron">
                    -33 callgsubr
112 101 -56 callgsubr
602 781 -76 callsubr
-15 -339 -105 callgsubr
                </CharString>
                <CharString name="one">
                    0 101 414.5 196.5 0 -20 hstemhm
58 470 hintmask 10110000
500 hmoveto
28 102 rlineto
-159 hlineto
118 610 -118 -9 -16 -83 rlineto
hintmask 11010000
-170 -19 -15 -87 165 3 -80 -416 rlineto
-175 hlineto
18 callsubr
                </CharString>
                <CharString name="one.den">
                    -233 -27 callsubr
57 356 vstem
395 -233 rmoveto
-94 callsubr
-74 callsubr
endchar
                </CharString>
                <CharString name="one.inf">
                    -167 -27 callsubr
70 356 vstem
408 -167 rmoveto
-94 callsubr
-74 callsubr
endchar
                </CharString>
                <CharString name="one.num">
                    472 -67 callgsubr
180 356 hintmask 10010000
-18 callgsubr
hintmask 01110000
-94 callsubr
rlineto
hintmask 10010000
-74 callsubr
endchar
                </CharString>
                <CharString name="one.small">
                    0 -27 callsubr
95 356 vstem
433 hmoveto
-94 callsubr
-74 callsubr
endchar
                </CharString>
                <CharString name="one.sup">
                    364 -27 callsubr
159 356 vstem
497 364 rmoveto
-94 callsubr
-74 callsubr
endchar
                </CharString>
                <CharString name="oneeighth">
                    -244 71 193 -21 22 -21 139 78 83 -58 callsubr
66 90 -28 89 99 88 hintmask 1011110001100000
-18 callgsubr
hintmask 1011101101100000
-94 callsubr
rlineto
hintmask 1011110001100000
-71 callsubr
318 -497 -102 callgsubr
hintmask 1101110001100000
-48 callgsubr
hintmask 1011110010100000
-72 callgsubr
hintmask 1011110001100000
-49 callsubr
hintmask 1011110010100000
-94 callgsubr
                </CharString>
                <CharString name="onefifth">
                    -68 callgsubr
95 -58 callsubr
319 93 hintmask 11111011
-18 callgsubr
hintmask 11110111
-94 callsubr
rlineto
hintmask 11111011
-44 -221 rlineto
-130 hlineto
-15 -78 rlineto
-110 -172 -86 callsubr
                </CharString>
                <CharString name="onehalf">
                    -233 80 280 84 89 -58 callsubr
329 103 hintmask 11110010
-18 callgsubr
hintmask 11101110
-94 callsubr
rlineto
hintmask 11110010
-71 callsubr
298 -610 rmoveto
-98 callsubr
endchar
                </CharString>
                <CharString name="onequarter">
                    -151 78 373 -58 callsubr
63 506 hintmask 11100100
-18 callgsubr
hintmask 11011100
-94 callsubr
rlineto
hintmask 11100100
-71 callsubr
334 -528 -99 callgsubr
endchar
                </CharString>
                <CharString name="onesixth">
                    -244 14 callsubr
266 -58 callsubr
77 -5 callgsubr
hintmask 11110011
-18 callgsubr
hintmask 11101111
-94 callsubr
rlineto
hintmask 11110011
-71 callsubr
153 -621 -101 callgsubr
                </CharString>
                <CharString name="onethird">
                    14 callgsubr
95 -58 callsubr
313 95 hintmask 11110010
-18 callgsubr
hintmask 11101110
-94 callsubr
rlineto
hintmask 11110010
-71 callsubr
322 -481 -98 callgsubr
-61 callsubr
-60 callgsubr
endchar
                </CharString>
                <CharString name="ordfeminine">
                    120 80 72 73 -73 87 260 77 0 -20 hstemhm
129 100 146 99 hintmask 10110110
281 359 rmoveto
-28 -24 24 49 91 58 96 72 16 23 -4 -7 24 hvcurveto
-11 -59 -17 -89 -8 -42 rrcurveto
-33 -34 -42 -26 -29 hhcurveto
hintmask 11001110
266 -49 rmoveto
-8 42 -66 -15 -4 9 9 44 rlinecurve
56 288 rlineto
hintmask 10110110
12 -51 -47 6 -41 hhcurveto
-162 -104 -144 -148 -87 44 -45 56 44 55 33 42 47 hvcurveto
hintmask 11001110
-4 -77 47 -26 129 66 rrcurveto
hintmask 11010110
-444 -110 rmoveto
-16 -80 rlineto
409 hlineto
16 80 rlineto
endchar
                </CharString>
                <CharString name="ordmasculine">
                    120 80 72 77 270 78 hstem
147 99 211 99 vstem
556 525 rmoveto
107 -66 65 -102 -138 -103 -119 -134 -107 65 -65 103 138 103 119 134 vhcurveto
-310 -71 rmoveto
87 51 78 76 51 33 -38 -66 -87 -52 -79 -76 -51 -32 40 65 vhcurveto
-138 -254 rmoveto
-15 -80 rlineto
375 hlineto
15 80 rlineto
endchar
                </CharString>
                <CharString name="oslash">
                    18 callgsubr
hstemhm
57 121 270 120 hintmask 10101100
178 228 -70 callsubr
hintmask 10011100
16 callsubr
hintmask 01101100
-39 callgsubr
hintmask 10101100
-2 callsubr
                </CharString>
                <CharString name="oslashacute">
                    18 callgsubr
233 -20 hstemhm
57 121 270 120 hintmask 10101110
236 688 -107 callsubr
-58 -460 -70 callsubr
hintmask 10011110
16 callsubr
hintmask 01101110
-39 callgsubr
hintmask 10101110
-2 callsubr
                </CharString>
                <CharString name="otilde">
                    -33 callgsubr
78 91 -49 -20 80 91 hstemhm
57 122 267 122 hintmask 11101110
491 737 rmoveto
hintmask 11011110
-87 callgsubr
hintmask 11101110
-87 callsubr
hintmask 11011110
77 -396 -105 callgsubr
                </CharString>
                <CharString name="p">
                    -174 -21 30 -21 172 100 -75 -21 464 113 -10 -20 hstemhm
452 119 hintmask 01100110
288 86 rmoveto
-23 -37 6 12 -39 hvcurveto
hintmask 01101010
22 115 22 113 8 42 rrcurveto
11 callgsubr
hvcurveto
hintmask 01100110
-124 -75 -139 -89 vhcurveto
-156 -272 rmoveto
hintmask 01010110
5 23 13 70 17 83 rrcurveto
hintmask 01101010
-3 22 22 -1 -10 callgsubr
-60 -74 -50 -61 -63 hvcurveto
hintmask 10100110
6 42 8 52 1 7 -117 -7 rcurveline
-24 -173 -43 -210 -69 -362 rrcurveto
endchar
                </CharString>
                <CharString name="paragraph">
                    692 -20 hstem
82 112 vstem
433 196 rmoveto
-30 2 -27 4 -25 6 73 374 rcurveline
25 1 28 -1 31 -3 rrcurveto
-314 -200 rmoveto
84 44 78 107 29 vhcurveto
-65 -335 rlineto
-56 33 -30 50 61 vvcurveto
95 -497 rmoveto
43 222 25 -5 27 -3 29 -1 rlinecurve
-39 -198 102 11 154 784 rlineto
-355 19 -193 -148 -206 vvcurveto
-103 54 -80 103 -43 vhcurveto
-50 -260 rlineto
endchar
                </CharString>
                <CharString name="parenleft">
                    -229 1027 hstem
126 118 vstem
532 798 -62 callsubr
                </CharString>
                <CharString name="parenleft.cap">
                    773 -20 hstem
137 118 vstem
543 852 -62 callsubr
                </CharString>
                <CharString name="parenright">
                    -233 1027 hstem
370 118 vstem
82 -233 -61 callgsubr
                </CharString>
                <CharString name="parenright.cap">
                    781 -20 hstem
381 118 vstem
93 -179 -61 callgsubr
                </CharString>
                <CharString name="percent">
                    6 -5 callsubr
710 -42 callgsubr
54 572 -503 209 18 208 hintmask 01010100
250 702 rmoveto
-63 -64 -82 -98 -71 36 -41 47 62 64 81 99 71 -36 41 -46 hvcurveto
hintmask 01101000
376 -58 rmoveto
-64 55 -508 -655 64 -55 rlineto
hintmask 10010010
314 -4 rmoveto
64 62 86 97 69 -36 40 -46 -63 -63 -85 -98 -69 36 -40 46 hvcurveto
endchar
                </CharString>
                <CharString name="period">
                    0 158 hstem
182 184 vstem
337 hmoveto
29 158 rlineto
-155 hlineto
-29 -158 rlineto
endchar
                </CharString>
                <CharString name="periodcentered">
                    258 156 hstem
221 197 vstem
389 258 rmoveto
29 156 rlineto
-167 hlineto
-30 -156 rlineto
endchar
                </CharString>
                <CharString name="peso">
                    21 -21 394 98 -89 84 110 97 hstemhm
48 602 hintmask 10111000
476 487 rmoveto
-220 hlineto
21 110 122 12 66 -49 11 -73 rlinecurve
-257 -188 rmoveto
20 104 rlineto
225 hlineto
-30 -70 -84 -45 -131 11 rrcurveto
hintmask 11011000
412 95 rmoveto
5 callsubr
-64 hlineto
-7 134 -120 99 -279 -40 -37 -193 rcurveline
-75 hlineto
-19 -98 rlineto
75 hlineto
-76 -394 rlineto
112 hlineto
37 187 194 24 134 73 44 110 rlinecurve
endchar
                </CharString>
                <CharString name="plus">
                    279 103 hstem
68 511 vstem
558 279 rmoveto
21 103 rlineto
-190 hlineto
38 197 rlineto
-110 hlineto
-38 -197 rlineto
-190 hlineto
-21 -103 rlineto
191 hlineto
-39 -198 rlineto
110 hlineto
39 198 rlineto
endchar
                </CharString>
                <CharString name="plusminus">
                    53 101 175 101 hstem
34 547 vstem
506 53 rmoveto
20 101 rlineto
-182 hlineto
34 175 rlineto
182 hlineto
21 101 rlineto
-183 hlineto
37 191 rlineto
-110 hlineto
-37 -191 rlineto
-182 hlineto
-20 -101 rlineto
182 hlineto
-34 -175 rlineto
-181 hlineto
-19 -101 rlineto
endchar
                </CharString>
                <CharString name="published">
                    8 64 544 -17 callgsubr
176 138 170 242 165 -96 95 -29 callgsubr
-69 -137 -194 -104 -144 -131 -93 -72 71 143 vhcurveto
142 -116 rmoveto
19 100 rlineto
110 15 66 53 76 vvcurveto
72 -54 48 -149 -23 vhcurveto
-65 -341 rlineto
endchar
                </CharString>
                <CharString name="q">
                    -201 106 82 112 369 99 hstem
55 118 161 124 vstem
573 -140 rmoveto
-11 60 -106 -26 -5 6 10 54 rlinecurve
113 581 rlineto
19 -49 -67 13 -51 hhcurveto
-218 -134 -194 -201 -124 57 -61 71 58 69 43 55 61 hvcurveto
-31 -164 -26 -133 60 -31 199 103 rlinecurve
-330 239 rmoveto
-39 -31 33 72 125 72 139 92 25 37 -6 -12 40 hvcurveto
-51 -275 rlineto
-43 -49 -56 -33 -40 hhcurveto
endchar
                </CharString>
                <CharString name="question">
                    0 144 hstem
445 138 vstem
157 633 rmoveto
191 -22 97 -27 -71 vvcurveto
-57 -60 -50 -172 -89 vhcurveto
38 -64 rlineto
239 118 93 91 94 vvcurveto
107 -128 63 -271 28 vhcurveto
92 -754 rmoveto
29 144 rlineto
-150 hlineto
-29 -144 rlineto
endchar
                </CharString>
                <CharString name="questiondown">
                    544 144 hstem
68 137 vstem
375 688 rmoveto
-30 -144 rlineto
150 hlineto
29 144 rlineto
-30 -633 rmoveto
-192 22 -97 28 71 vvcurveto
56 60 50 173 89 vhcurveto
-38 65 rlineto
-239 -119 -93 -91 -94 vvcurveto
-107 127 -63 272 -28 vhcurveto
endchar
                </CharString>
                <CharString name="quotedbl">
                    420 328 hstem
161 433 vstem
487 420 rmoveto
101 281 6 47 rlineto
-139 hlineto
-55 -328 rlineto
-152 hmoveto
101 281 7 47 rlineto
-140 hlineto
-55 -328 rlineto
endchar
                </CharString>
                <CharString name="quotedblbase">
                    -177 340 hstem
97 151 105 151 vstem
267 -148 rmoveto
48 -29 121 99 64 101 4 140 rlinecurve
-151 -4 8 -125 -16 -86 -78 -96 rlinecurve
-251 hmoveto
48 -29 116 99 64 100 4 139 rlinecurve
-151 -4 9 -125 -17 -84 -73 -96 rlinecurve
endchar
                </CharString>
                <CharString name="quotedblleft">
                    425 340 hstem
136 151 105 151 vstem
624 736 rmoveto
-48 29 -116 -99 -64 -100 -4 -139 rlinecurve
151 4 -9 125 17 83 73 97 rlinecurve
-251 hmoveto
7 callsubr
151 5 -8 124 16 85 78 97 rlinecurve
endchar
                </CharString>
                <CharString name="quotedblright">
                    406 340 hstem
201 152 104 152 vstem
372 434 rmoveto
47 -28 122 99 64 101 4 140 -14 callsubr
-4 9 -125 -17 -86 -77 -97 rlinecurve
-251 hmoveto
47 -28 116 99 64 99 5 140 -14 callsubr
-4 9 -125 -16 -84 -73 -97 rlinecurve
endchar
                </CharString>
                <CharString name="quoteleft">
                    425 340 hstem
255 154 vstem
492 736 rmoveto
7 callsubr
154 5 -10 124 16 85 77 97 rlinecurve
endchar
                </CharString>
                <CharString name="quoteright">
                    406 340 hstem
327 155 vstem
244 434 rmoveto
49 -28 121 99 64 -10 callsubr
-97 rlinecurve
endchar
                </CharString>
                <CharString name="quotesinglbase">
                    -177 340 hstem
225 155 vstem
142 -148 rmoveto
49 -29 120 99 65 -10 callsubr
-96 rlinecurve
endchar
                </CharString>
                <CharString name="quotesingle">
                    420 328 hstem
278 202 vstem
367 420 rmoveto
108 281 5 47 rlineto
-146 hlineto
-56 -328 rlineto
endchar
                </CharString>
                <CharString name="r">
                    -38 callgsubr
569 35 -95 callsubr
hintmask 11010000
-41 callsubr
endchar
                </CharString>
                <CharString name="racute">
                    -38 callgsubr
287 694 -107 callsubr
282 -659 -95 callsubr
hintmask 11010000
-41 callsubr
endchar
                </CharString>
                <CharString name="rcaron">
                    -38 callgsubr
408 636 -97 callsubr
168 -601 -95 callsubr
hintmask 11010000
-41 callsubr
endchar
                </CharString>
                <CharString name="rcommaaccent">
                    -12 95 476 -20 hstemhm
126 191 -160 149 9 124 hintmask 11001000
569 35 -95 callsubr
hintmask 11001000
-41 callsubr
hintmask 11011000
-453 -318 -99 callsubr
                </CharString>
                <CharString name="registered">
                    208 59 181 163 84 59 hstem
87 64 401 64 vstem
368 754 rmoveto
-165 -116 -122 -178 -152 96 -94 152 165 116 122 178 151 -96 95 -152 hvcurveto
-3 -59 rmoveto
112 75 -71 -124 -144 -91 -89 -123 -112 -75 71 123 145 90 89 124 hvcurveto
20 -340 rmoveto
71 8 -60 101 rlineto
50 22 20 28 29 vvcurveto
48 -50 34 -134 -18 vhcurveto
-49 -248 rlineto
68 hlineto
16 88 16 2 rlineto
endchar
                </CharString>
                <CharString name="registered.alt">
                    8 64 236 209 99 -17 callgsubr
184 130 159 250 164 -96 99 -29 callgsubr
-75 -137 -202 -96 -130 -139 -93 -72 71 143 vhcurveto
226 -113 rmoveto
81 10 -63 142 rlineto
51 28 36 38 42 vvcurveto
57 -55 42 -145 -20 vhcurveto
-66 -334 rlineto
73 hlineto
25 129 14 2 rlineto
endchar
                </CharString>
                <CharString name="ring">
                    612 238 hstem
213 297 vstem
372 850 -83 callsubr
endchar
                </CharString>
                <CharString name="ring.cap">
                    612 238 hstem
213 297 vstem
372 850 -83 callsubr
endchar
                </CharString>
                <CharString name="ruble">
                    21 -21 121 91 -90 86 79 91 220 96 hstemhm
507 114 hintmask 10111100
507 501 rmoveto
-77 -69 -44 -160 -2 vhcurveto
42 220 rlineto
127 12 60 -38 -71 vvcurveto
-302 -501 rmoveto
24 122 rlineto
217 hlineto
24 86 rlineto
-225 hlineto
16 84 rlineto
254 20 106 89 118 vvcurveto
124 -117 78 -284 -36 vhcurveto
-59 -307 rlineto
-82 hlineto
-18 -91 rlineto
-1 28 28 1 26 hhcurveto
hintmask 11011100
-14 -75 rlineto
-84 hlineto
-17 -91 rlineto
83 hlineto
-23 -121 rlineto
endchar
                </CharString>
                <CharString name="rupee">
                    -10 99 -74 -21 27 -21 28 -21 687 -20 hstemhm
426 179 -118 106 hintmask 01001010
217 -6 rmoveto
hintmask 00011010
96 13 -45 297 rlineto
74 0 callsubr
hintmask 00101010
-134 -689 rlineto
91 hlineto
51 252 15 4 rlineto
hintmask 10001010
408 -93 rmoveto
82 -37 76 -20 68 vhcurveto
hintmask 10001100
116 96 -12 85 -75 hhcurveto
-69 -50 -76 -93 -20 2 -20 4 -19 hvcurveto
-21 -23 -26 -25 -33 -29 26 -40 rcurveline
hintmask 10001010
26 19 24 18 21 18 rrcurveto
17 -53 21 -50 -43 vvcurveto
-53 -18 -23 -127 15 vhcurveto
1 -103 rlineto
217 -9 33 96 86 vvcurveto
endchar
                </CharString>
                <CharString name="rupeeindia">
                    383 85 116 104 hstem
61 559 vstem
501 48 rmoveto
-130 105 -68 51 -77 27 126 23 85 58 28 71 rrcurveto
87 hlineto
16 85 rlineto
-95 hlineto
-9 46 -30 43 -57 27 rrcurveto
216 hlineto
27 104 rlineto
-451 hlineto
-25 -102 143 -15 59 -46 14 -57 rlinecurve
-236 hlineto
-16 -85 rlineto
242 hlineto
-28 -54 -73 -44 -151 -8 -37 -91 rcurveline
139 -38 48 -37 157 -130 rrcurveto
endchar
                </CharString>
                <CharString name="s">
                    -38 callsubr
533 161 -89 callsubr
                </CharString>
                <CharString name="sacute">
                    -38 callsubr
248 712 -107 callsubr
285 -551 -89 callsubr
                </CharString>
                <CharString name="scaron">
                    -38 callsubr
393 654 -97 callsubr
147 -493 -89 callsubr
                </CharString>
                <CharString name="scedilla">
                    -9 104 -104 109 -78 -21 hstemhm
240 212 -143 104 1 119 hintmask 00101000
309 -207 rmoveto
104 2 7 114 -36 67 -52 25 rlinecurve
hintmask 00100100
152 25 49 65 70 vvcurveto
-53 callgsubr
hintmask 01000100
51 -69 71 -60 -50 vvcurveto
-46 -59 -22 -218 15 vhcurveto
hintmask 10001000
-3 -109 27 -1 26 0 24 1 rlinecurve
-38 -26 -34 -49 -31 -76 61 -20 rcurveline
67 33 32 40 32 hhcurveto
hintmask 00101000
31 18 -37 -97 -6 hvcurveto
endchar
                </CharString>
                <CharString name="schwa">
                    -14 98 379 103 hstem
55 115 272 117 vstem
218 -14 rmoveto
192 149 193 177 183 -162 110 -314 -159 hvcurveto
13 -63 257 66 85 -23 4 -121 rlinecurve
-250 -19 -137 -78 -128 vvcurveto
-85 62 -53 101 vhcurveto
32 98 rmoveto
-50 -30 27 40 77 102 41 164 13 hvcurveto
-102 -20 -70 -96 -96 hhcurveto
endchar
                </CharString>
                <CharString name="scommaaccent">
                    -9 104 -104 109 hstemhm
168 149 -77 212 -38 119 hintmask 10101000
533 161 rmoveto
-53 callgsubr
hintmask 01101000
51 -69 71 -60 -50 vvcurveto
-46 -59 -22 -218 15 vhcurveto
hintmask 10101000
-3 -109 rlineto
311 -10 88 86 94 vvcurveto
-406 -461 -99 callsubr
                </CharString>
                <CharString name="section">
                    -122 96 628 98 hstemhm
72 114 -10 123 55 124 -32 114 hintmask 11101000
186 282 rmoveto
39 57 31 62 14 vhcurveto
hintmask 11100100
70 -39 71 -29 -41 vvcurveto
-29 -39 -26 -91 -21 vhcurveto
hintmask 11101000
-67 33 -63 28 40 vvcurveto
292 -256 rmoveto
49 -37 36 -48 29 vhcurveto
hintmask 11010100
105 29 62 41 64 127 -261 38 95 vvcurveto
37 34 31 53 51 29 -28 -71 14 vhcurveto
105 22 rlineto
115 -17 -49 60 -108 hhcurveto
-137 -98 -91 -90 -46 27 -35 36 -30 hvcurveto
hintmask 11101000
-93 -22 -74 -49 -75 -137 282 -31 -76 vvcurveto
-43 -70 -25 -229 58 vhcurveto
-26 -111 rlineto
321 -62 128 96 95 vvcurveto
endchar
                </CharString>
                <CharString name="semicolon">
                    356 158 hstem
218 153 vstem
407 356 rmoveto
30 158 rlineto
-156 hlineto
-29 -158 rlineto
-122 -506 rmoveto
49 -26 124 103 62 98 6 134 rlinecurve
-153 -2 5 -125 -16 -85 -77 -97 rlinecurve
endchar
                </CharString>
                <CharString name="servicemark">
                    315 67 186 121 -56 66 -11 -20 21 -20 hstemhm
103 76 24 78 hintmask 10100100
445 383 rmoveto
28 hlineto
hintmask 11000100
-1 callsubr
hintmask 10010100
2 callgsubr
hintmask 10001100
7 callgsubr
hintmask 11000100
48 250 rlineto
2 hlineto
hintmask 10100100
-108 31 rmoveto
65 -10 -29 35 -56 hhcurveto
-72 -49 -51 -62 hvcurveto
-86 100 -37 -52 vvcurveto
hintmask 10100110
-32 -35 -10 -101 35 vhcurveto
-14 -77 rlineto
165 -39 63 61 66 vvcurveto
hintmask 10100100
80 -102 41 59 vvcurveto
24 16 14 18 20 12 -16 -31 5 vhcurveto
endchar
                </CharString>
                <CharString name="seven">
                    14 -21 33 -21 575 108 hstemhm
105 524 hintmask 10110000
227 -7 rmoveto
105 199 128 206 149 191 20 99 rcurveline
-457 hlineto
-23 -108 rlineto
329 hlineto
1 -5 rlineto
hintmask 01110000
-148 -186 -123 -190 -103 -194 rrcurveto
endchar
                </CharString>
                <CharString name="seven.den">
                    125 82 hstem
98 374 vstem
200 -239 -88 callsubr
endchar
                </CharString>
                <CharString name="seven.inf">
                    191 82 hstem
111 374 vstem
213 -173 -88 callsubr
endchar
                </CharString>
                <CharString name="seven.num">
                    830 82 hstem
221 374 vstem
323 466 -88 callsubr
endchar
                </CharString>
                <CharString name="seven.small">
                    15 -21 31 -21 354 82 hstemhm
136 374 hintmask 10110000
238 -6 rmoveto
71 123 85 127 100 117 16 79 rcurveline
-335 hlineto
-19 -82 rlineto
235 hlineto
1 -3 rlineto
hintmask 01110000
-101 -114 -85 -118 -70 -119 rrcurveto
endchar
                </CharString>
                <CharString name="seven.sup">
                    722 82 hstem
200 374 vstem
302 358 -88 callsubr
endchar
                </CharString>
                <CharString name="seveneighths">
                    -30 callsubr
453 82 -15 callgsubr
hintmask 1011110110000000
323 466 -88 callsubr
-151 -176 -85 callsubr
318 -497 -102 callgsubr
hintmask 1101110110000000
-48 callgsubr
hintmask 1011111010000000
-72 callgsubr
hintmask 1011110110000000
-49 callsubr
hintmask 1011111010000000
-94 callgsubr
                </CharString>
                <CharString name="six">
                    -14 96 253 86 287 -20 hstem
76 113 248 110 vstem
288 -14 rmoveto
142 117 103 151 176 -174 66 -164 -127 hvcurveto
36 94 94 98 210 56 -27 105 rcurveline
-326 -98 -120 -202 -186 vvcurveto
-157 88 -79 124 vhcurveto
22 96 rmoveto
-64 -57 41 124 11 1 11 1 12 hvcurveto
131 99 115 -46 -112 vvcurveto
-78 -49 -62 -78 vhcurveto
endchar
                </CharString>
                <CharString name="six.den">
                    -244 14 callsubr
hstem
77 -5 callgsubr
vstem
239 -244 -101 callgsubr
                </CharString>
                <CharString name="six.inf">
                    -178 72 137 -21 29 61 hstemhm
90 -5 callgsubr
hintmask 10111000
252 -178 rmoveto
103 80 66 95 111 -124 45 -116 -78 hvcurveto
24 59 63 59 146 29 -20 78 rcurveline
-233 -57 -85 -128 -123 vvcurveto
-104 68 -52 94 vhcurveto
14 72 rmoveto
-43 -42 26 71 hvcurveto
hintmask 11111000
6 0 7 1 6 vhcurveto
hintmask 10111000
89 55 75 -29 -64 vvcurveto
-42 -27 -36 -53 vhcurveto
endchar
                </CharString>
                <CharString name="six.num">
                    461 72 145 22 hstem
200 -5 callgsubr
vstem
362 461 -101 callgsubr
                </CharString>
                <CharString name="six.small">
                    -11 14 callsubr
hstem
115 -5 callgsubr
vstem
277 -11 -101 callgsubr
                </CharString>
                <CharString name="six.sup">
                    353 14 callsubr
hstem
179 -5 callgsubr
vstem
341 353 -101 callgsubr
                </CharString>
                <CharString name="slash">
                    -209 1015 hstem
-73 770 vstem
597 806 rmoveto
-670 -984 107 -31 663 975 rlineto
endchar
                </CharString>
                <CharString name="space">
                    endchar
                </CharString>
                <CharString name="sterling">
                    -8 111 -97 -21 293 88 227 111 hstemhm
492 114 hintmask 10111000
562 152 rmoveto
-50 25 -58 -95 -52 11 -157 35 rlinecurve
16 46 8 52 7 52 rrcurveto
188 hlineto
16 88 rlineto
-194 hlineto
7 55 9 52 20 39 rrcurveto
46 23 37 35 45 hhcurveto
39 26 -27 -89 hvcurveto
114 7 rlineto
142 1 -43 78 -110 hhcurveto
-105 -87 -78 -83 -41 hvcurveto
-28 -56 -11 -58 -9 -63 rrcurveto
-79 hlineto
-17 -88 rlineto
85 hlineto
-6 -42 -8 -45 -13 -48 rrcurveto
hintmask 01111000
6 -160 -32 -164 131 hhcurveto
44 41 18 32 32 hvcurveto
hintmask 10111000
236 -66 65 -9 70 192 rrcurveto
endchar
                </CharString>
                <CharString name="t">
                    -8 callsubr
hstem
158 122 vstem
522 58 -81 callgsubr
endchar
                </CharString>
                <CharString name="tcaron">
                    -8 callsubr
hstem
158 122 vstem
501 925 -73 callsubr
-112 -872 -81 callgsubr
endchar
                </CharString>
                <CharString name="tcommaaccent">
                    -8 callsubr
hstemhm
158 122 -98 149 hintmask 11110000
522 58 -81 callgsubr
hintmask 11101000
-381 -362 -99 callsubr
                </CharString>
                <CharString name="thorn">
                    -174 -21 181 100 -74 -21 463 113 215 -20 hstemhm
452 119 hintmask 11011100
288 86 rmoveto
-23 -37 6 13 -39 hvcurveto
52 269 rlineto
11 callgsubr
-124 -75 -139 -89 hvcurveto
-156 -272 rmoveto
hintmask 10111100
34 177 rlineto
hintmask 11011100
-3 23 22 -2 -10 callgsubr
-58 -71 -46 -59 -61 hvcurveto
62 320 -119 -9 -188 -968 rlineto
endchar
                </CharString>
                <CharString name="three">
                    -5 106 -80 -21 583 105 hstemhm
419 114 hintmask 10110000
533 197 rmoveto
74 -60 69 -164 48 vhcurveto
273 199 12 101 rlineto
-408 hlineto
-19 -105 rlineto
284 hlineto
-276 -200 -7 -54 rlineto
180 -46 71 -51 -51 vvcurveto
-53 -71 -50 -273 35 15 callsubr
349 -33 123 123 107 vvcurveto
endchar
                </CharString>
                <CharString name="three.den">
                    14 callgsubr
hstem
313 95 vstem
408 -104 -98 callgsubr
-61 callsubr
-60 callgsubr
endchar
                </CharString>
                <CharString name="three.inf">
                    -173 82 282 80 hstem
326 95 vstem
421 -38 -98 callgsubr
-61 callsubr
-60 callgsubr
endchar
                </CharString>
                <CharString name="three.num">
                    466 -16 callsubr
436 95 hintmask 10110000
531 601 -98 callgsubr
hintmask 01110000
-61 callsubr
hintmask 10110000
-60 callgsubr
endchar
                </CharString>
                <CharString name="three.small">
                    -6 82 -56 -21 359 80 hstemhm
351 95 hintmask 10110000
446 129 -98 callgsubr
-82 callsubr
hintmask 01110000
-12 -84 rlineto
hintmask 10110000
-60 callgsubr
endchar
                </CharString>
                <CharString name="three.sup">
                    358 82 128 -20 174 80 hstem
415 95 vstem
510 493 -98 callgsubr
-61 callsubr
-60 callgsubr
endchar
                </CharString>
                <CharString name="threeeighths">
                    -30 callsubr
89 82 7 -20 295 80 -15 callgsubr
32 95 hintmask 1011110101110000
531 601 -98 callgsubr
hintmask 1011101101110000
-61 callsubr
hintmask 1011110101110000
-60 callgsubr
-461 -301 -85 callsubr
318 -497 -102 callgsubr
hintmask 1101110101110000
-48 callgsubr
hintmask 1011110110110000
-72 callgsubr
hintmask 1011110101110000
-49 callsubr
hintmask 1011110110110000
-94 callgsubr
                </CharString>
                <CharString name="threefifths">
                    -68 callgsubr
95 77 89 -16 callsubr
319 93 24 95 hintmask 1111101110000000
531 601 -98 callgsubr
hintmask 1111011110000000
-61 callsubr
hintmask 1111101110000000
-60 callgsubr
hintmask 1111101100000000
-461 -301 -86 callsubr
                </CharString>
                <CharString name="threequarters">
                    -151 78 373 77 89 -16 callsubr
436 95 hintmask 11101100
531 601 -98 callgsubr
hintmask 11011100
-61 callsubr
hintmask 11101100
-60 callgsubr
-461 -301 -85 callsubr
334 -528 -99 callgsubr
endchar
                </CharString>
                <CharString name="tilde">
                    631 91 11 91 -40 -20 hstemhm
85 478 hintmask 10110000
411 722 rmoveto
hintmask 11010000
-87 callgsubr
hintmask 10110000
-87 callsubr
endchar
                </CharString>
                <CharString name="tilde.cap">
                    631 91 11 91 -40 -20 hstemhm
85 478 hintmask 10110000
411 722 rmoveto
hintmask 11010000
-87 callgsubr
hintmask 10110000
-87 callsubr
endchar
                </CharString>
                <CharString name="trademark">
                    624 64 -64 65 hstemhm
101 561 hintmask 10100000
183 624 rmoveto
-59 -306 rlineto
71 hlineto
59 306 rlineto
75 hlineto
13 64 rlineto
-228 hlineto
-13 -64 rlineto
344 -241 rmoveto
28 hlineto
-1 callsubr
2 callgsubr
hintmask 01100000
7 callgsubr
48 250 rlineto
2 hlineto
endchar
                </CharString>
                <CharString name="two">
                    0 104 478 114 hstem
442 122 vstem
496 hmoveto
20 104 rlineto
-300 hlineto
223 151 125 111 144 vvcurveto
148 -136 67 -255 -41 vhcurveto
-17 -112 rlineto
215 32 71 -44 -81 vvcurveto
-113 -143 -107 -248 -166 vhcurveto
-1 -93 rlineto
endchar
                </CharString>
                <CharString name="two.den">
                    -233 -18 callsubr
329 103 vstem
384 -233 rmoveto
-98 callsubr
endchar
                </CharString>
                <CharString name="two.inf">
                    -167 -18 callsubr
342 103 vstem
397 -167 rmoveto
-98 callsubr
endchar
                </CharString>
                <CharString name="two.num">
                    472 -18 callsubr
452 -59 callgsubr
endchar
                </CharString>
                <CharString name="two.small">
                    0 -18 callsubr
367 103 vstem
422 hmoveto
-98 callsubr
endchar
                </CharString>
                <CharString name="two.sup">
                    364 -18 callsubr
431 103 vstem
486 364 rmoveto
-98 callsubr
endchar
                </CharString>
                <CharString name="twofifths">
                    -68 callgsubr
95 77 95 -18 callsubr
319 93 40 -59 callgsubr
-112 -172 -86 callsubr
                </CharString>
                <CharString name="twothirds">
                    14 callgsubr
95 77 95 -18 callsubr
313 95 44 -59 callgsubr
-112 -54 callsubr
322 -481 -98 callgsubr
-61 callsubr
-60 callgsubr
endchar
                </CharString>
                <CharString name="u">
                    -72 callsubr
-56 callsubr
hintmask 01011100
587 46 -90 callsubr
                </CharString>
                <CharString name="uacute">
                    -72 callsubr
-56 callsubr
hintmask 01011100
250 678 -107 callsubr
337 -632 -90 callsubr
                </CharString>
                <CharString name="ubreve">
                    -72 callsubr
93 95 -56 callsubr
hintmask 01011110
579 836 -104 callsubr
-61 -748 -101 callsubr
                </CharString>
                <CharString name="ucircumflex">
                    -72 callsubr
148 -20 23 -20 -56 callsubr
hintmask 01011011
533 624 rmoveto
82 62 -167 166 rlineto
-7 hlineto
hintmask 01010111
-237 -163 rlineto
hintmask 01101011
53 -61 166 112 rlineto
164 -694 rmoveto
-11 60 -85 -29 -5 12 5 callgsubr
79 404 rlineto
-117 hlineto
hintmask 10010111
-70 -360 rlineto
-62 -53 -49 -31 -40 hhcurveto
-41 -15 32 74 16 hvcurveto
77 352 -117 -7 -94 -140 55 -35 -40 -186 rlineto
-137 -30 40 -67 84 hhcurveto
61 63 39 74 66 hvcurveto
hintmask 01101011
-12 -117 57 -36 169 -1 callgsubr
                </CharString>
                <CharString name="udieresis">
                    -72 callsubr
107 150 -56 callsubr
hintmask 01011110
578 646 -102 callsubr
381 -596 -101 callsubr
                </CharString>
                <CharString name="ugrave">
                    -72 callsubr
236 -20 -56 callsubr
hintmask 01011110
561 671 -96 callgsubr
53 -575 -101 callsubr
                </CharString>
                <CharString name="uhungarumlaut">
                    -72 callsubr
-56 callsubr
hintmask 01011100
270 629 -92 callsubr
133 -623 -90 callsubr
                </CharString>
                <CharString name="umacron">
                    -72 callsubr
132 101 -56 callsubr
hintmask 01011110
617 771 -76 callsubr
-11 -624 -101 callsubr
                </CharString>
                <CharString name="underscore">
                    -149 93 hstem
-35 565 vstem
530 -56 rmoveto
-547 hlineto
-18 -93 rlineto
547 hlineto
endchar
                </CharString>
                <CharString name="underscore.alt">
                    -149 93 hstem
-76 650 vstem
574 -56 rmoveto
-633 hlineto
-17 -93 rlineto
633 hlineto
endchar
                </CharString>
                <CharString name="uni00A0">
                    endchar
                </CharString>
                <CharString name="uogonek">
                    -26 callgsubr
138 114 -54 45 462 -20 25 -20 -11 callgsubr
63 109 0 119 hintmask 1010011100000000
538 -187 rmoveto
hintmask 0101011100000000
-12 55 -21 callsubr
-36 -43 17 34 vvcurveto
39 38 50 175 74 vhcurveto
hintmask 0101101010000000
-11 60 -85 -29 -5 12 5 callgsubr
79 404 rlineto
-117 hlineto
hintmask 0110011010000000
-70 -360 rlineto
-62 -53 -49 -31 -40 hhcurveto
-41 -15 32 74 16 hvcurveto
77 352 -117 -7 -94 -140 55 -35 -40 -186 rlineto
-137 -30 40 -67 84 hhcurveto
57 65 40 75 69 hvcurveto
-4 -47 10 -31 26 -12 rrcurveto
hintmask 1010011100000000
-100 -54 -41 -57 -51 13 callgsubr
                </CharString>
                <CharString name="uring">
                    -72 callsubr
79 238 -56 callsubr
hintmask 01011110
429 855 -83 callsubr
158 -809 -101 callsubr
                </CharString>
                <CharString name="v">
                    -4 126 431 -20 24 -20 hstemhm
101 533 hintmask 10110000
289 122 rmoveto
-8 hlineto
-24 145 -20 148 -16 142 -120 -8 rcurveline
21 -182 30 -188 33 -183 rrcurveto
147 hlineto
hintmask 11010000
103 179 107 199 92 179 rrcurveto
-124 hlineto
hintmask 10110000
-71 -141 -72 -146 -78 -144 rrcurveto
endchar
                </CharString>
                <CharString name="w">
                    -41 callgsubr
349 hmoveto
-100 callsubr
                </CharString>
                <CharString name="wacute">
                    -41 callgsubr
243 671 -107 callsubr
106 -671 rmoveto
-100 callsubr
                </CharString>
                <CharString name="wcircumflex">
                    -41 callgsubr
526 617 -93 callgsubr
-67 -733 rmoveto
-100 callsubr
                </CharString>
                <CharString name="wdieresis">
                    0 142 410 -20 104 149 -147 150 hstemhm
66 567 hintmask 11101000
571 639 rmoveto
hintmask 11011000
47 150 -138 -2 rlineto
hintmask 11101000
-37 -150 rlineto
-116 hmoveto
46 150 -137 -60 callsubr
150 -635 rmoveto
-100 callsubr
                </CharString>
                <CharString name="wgrave">
                    -41 callgsubr
554 664 -96 callgsubr
-178 -614 rmoveto
-100 callsubr
                </CharString>
                <CharString name="x">
                    19 -21 23 -21 24 -21 550 -20 22 -20 hstemhm
-7 637 hintmask 10001100
390 -2 rmoveto
hintmask 00110100
134 5 -135 274 241 276 rlineto
-128 hlineto
-170 -207 rlineto
hintmask 01001100
-99 209 -133 -5 134 -273 -241 -277 rlineto
128 hlineto
171 208 rlineto
endchar
                </CharString>
                <CharString name="y">
                    -54 callgsubr
hstemhm
75 121 202 103 hintmask 11011100
483 -74 rmoveto
34 67 -23 116 108 vvcurveto
6 vlineto
62 111 41 142 52 vvcurveto
23 -52 13 -31 -42 -73 -177 -165 -7 vhcurveto
-53 -54 -55 -27 -37 hhcurveto
hintmask 11101100
-58 -29 63 350 124 hvcurveto
-116 -4 rlineto
-413 -154 62 -102 107 hhcurveto
72 77 44 57 61 hvcurveto
4 -93 10 -74 -22 -22 -23 -22 -97 -14 -189 15 -17 -116 rcurveline
hintmask 11011100
264 -12 122 48 39 79 rrcurveto
endchar
                </CharString>
                <CharString name="yacute">
                    -54 callgsubr
233 10 callgsubr
243 684 -107 callsubr
240 -758 -93 callsubr
                </CharString>
                <CharString name="ycircumflex">
                    -54 callgsubr
148 -20 23 19 callgsubr
hintmask 11011011
526 630 rmoveto
82 62 -167 166 rlineto
-7 hlineto
hintmask 11010111
-237 -163 rlineto
hintmask 11011011
53 -61 166 112 rlineto
67 -820 rmoveto
34 67 -23 116 108 vvcurveto
6 vlineto
62 111 41 142 52 vvcurveto
23 -52 13 -31 -42 -73 -177 -165 -7 vhcurveto
-53 -54 -55 -27 -37 hhcurveto
hintmask 11100111
-58 -29 63 350 124 hvcurveto
-116 -4 rlineto
-413 -154 62 -102 107 hhcurveto
72 77 44 57 61 hvcurveto
4 -93 10 -74 -22 -22 -23 -22 -97 -14 -189 15 -17 -116 rcurveline
hintmask 11011011
264 -12 122 48 39 79 rrcurveto
endchar
                </CharString>
                <CharString name="ydieresis">
                    -54 callgsubr
107 150 4 callgsubr
hintmask 11011110
571 652 -102 callsubr
284 -722 -93 callsubr
                </CharString>
                <CharString name="yen">
                    0 224 -88 88 83 88 293 -42 callgsubr
43 626 hintmask 01101100
526 136 rmoveto
18 88 rlineto
-184 hlineto
4 21 43 62 rlineto
153 hlineto
17 88 rlineto
-110 hlineto
hintmask 01110100
202 293 -32 callsubr
-210 -333 rlineto
hintmask 01101100
-95 336 -121 -5 90 -291 rlineto
-113 hlineto
-17 -88 rlineto
157 hlineto
17 -55 -5 -28 rlineto
-185 hlineto
-18 -88 rlineto
185 hlineto
hintmask 10101100
-28 -136 rlineto
118 hlineto
hintmask 01101100
25 136 rlineto
endchar
                </CharString>
                <CharString name="ygrave">
                    -54 callgsubr
236 10 callgsubr
554 677 -96 callgsubr
-44 -701 -93 callsubr
                </CharString>
                <CharString name="z">
                    8 callsubr
hstem
38 553 vstem
484 hmoveto
-73 callgsubr
                </CharString>
                <CharString name="zacute">
                    8 callsubr
hstem
38 553 vstem
239 673 -107 callsubr
245 -673 rmoveto
-73 callgsubr
                </CharString>
                <CharString name="zcaron">
                    8 callsubr
225 -42 callgsubr
38 584 hintmask 11011000
384 615 rmoveto
hintmask 11101000
238 163 rlineto
hintmask 11011000
-54 61 -166 -112 -109 116 -82 -62 166 -166 rlineto
107 -615 rmoveto
-73 callgsubr
                </CharString>
                <CharString name="zdotaccent">
                    8 callsubr
-45 callgsubr
38 553 vstem
445 639 -77 callsubr
170 -638 rmoveto
-73 callgsubr
                </CharString>
                <CharString name="zero">
                    -14 99 518 99 hstem
65 120 281 120 vstem
65 243 rmoveto
-170 10 callsubr
243 169 12 callgsubr
-243 vhcurveto
301 360 rmoveto
56 37 -45 -90 7 hvcurveto
-278 -144 rlineto
143 18 69 136 91 hhcurveto
-81 -518 rmoveto
-57 -37 46 94 -6 hvcurveto
278 144 rlineto
-146 -16 -70 -138 -92 hhcurveto
endchar
                </CharString>
                <CharString name="zero.alt">
                    -14 103 510 103 hstem
65 117 287 117 vstem
65 247 rmoveto
-174 10 callsubr
240 172 12 callgsubr
-239 vhcurveto
117 8 rmoveto
165 78 179 107 62 40 -53 -112 -167 -78 -178 -108 -61 -40 52 114 vhcurveto
endchar
                </CharString>
                <CharString name="zero.den">
                    -244 -6 callsubr
69 -6 callgsubr
69 -68 -92 callgsubr
                </CharString>
                <CharString name="zero.inf">
                    -178 -6 callsubr
82 -6 callgsubr
82 -2 -92 callgsubr
                </CharString>
                <CharString name="zero.num">
                    461 -6 callsubr
192 -6 callgsubr
192 637 -92 callgsubr
                </CharString>
                <CharString name="zero.small">
                    -11 -6 callsubr
107 -6 callgsubr
107 165 -92 callgsubr
                </CharString>
                <CharString name="zero.sup">
                    353 -6 callsubr
171 -6 callgsubr
171 529 -92 callgsubr
                </CharString>
                <CharString name="less_exclam_hyphen_hyphen.liga">
                    -24 703 -679 146 132 105 hstemhm
-1778 483 220 307 10 1255 hintmask 01111100
-901 272 rmoveto
11 50 110 378 12 52 rrcurveto
-156 hlineto
-9 -52 -39 -378 -10 -50 rrcurveto
hintmask 10011100
-364 407 rmoveto
-414 -278 -18 -102 311 -323 83 81 rlineto
hintmask 01111100
-222 221 rlineto
483 hlineto
20 105 rlineto
-497 hlineto
305 201 rlineto
537 -306 rmoveto
1235 hlineto
20 105 rlineto
-1234 hlineto
-186 -383 rmoveto
29 146 rlineto
-152 hlineto
-29 -146 rlineto
endchar
                </CharString>
                <CharString name="equal_equal_equal.liga">
                    38 103 142 103 141 102 hstem
-1215 1776 vstem
612 629 rmoveto
-1707 hlineto
-21 -102 rlineto
1708 hlineto
-31 -142 rmoveto
-1707 hlineto
-21 -102 rlineto
1708 hlineto
-27 -142 rmoveto
-1708 hlineto
-21 -103 rlineto
1708 hlineto
endchar
                </CharString>
                <CharString name="equal_equal_greater.liga">
                    -24 703 -519 103 142 102 hstemhm
-1189 1742 hintmask 01110000
159 598 rmoveto
91 -91 rlineto
-1370 hlineto
-21 -102 rlineto
1493 hlineto
83 -83 -2 -12 -71 -47 rlineto
-1530 hlineto
-21 -103 rlineto
1394 hlineto
-135 -89 rlineto
hintmask 10010000
50 -95 415 278 18 102 -311 323 rlineto
endchar
                </CharString>
                <CharString name="equal_less_less.liga">
                    -24 703 -519 103 142 102 hstemhm
-1189 1769 hintmask 01110000
160 584 rmoveto
hintmask 10010000
-51 95 rlineto
hintmask 01110000
-256 -172 rlineto
-973 hlineto
-21 -102 rlineto
842 hlineto
-6 -4 -18 -102 35 -36 rlineto
-880 hlineto
-21 -103 rlineto
1000 hlineto
hintmask 10010000
177 -184 83 81 -277 276 3 12 rlineto
783 239 rmoveto
-51 95 -414 -278 -18 -102 311 -323 83 81 -277 276 3 12 rlineto
endchar
                </CharString>
                <CharString name="exclam_equal_equal.liga">
                    -209 1015 -768 103 142 103 141 102 hstemhm
-1215 1776 -1248 770 hintmask 00111000
612 629 rmoveto
-622 hlineto
hintmask 00110100
93 137 rlineto
hintmask 10000100
-100 40 rlineto
hintmask 00110100
-121 -177 rlineto
-957 hlineto
-21 -102 rlineto
909 hlineto
-97 -142 rlineto
-842 hlineto
-21 -102 rlineto
794 hlineto
hintmask 01110100
-97 -142 rlineto
-724 hlineto
-21 -103 rlineto
675 hlineto
-147 -216 rlineto
hintmask 10000100
107 -31 rlineto
hintmask 01110100
168 247 rlineto
905 hlineto
21 103 rlineto
-856 hlineto
97 142 rlineto
786 hlineto
20 102 rlineto
-737 hlineto
96 142 rlineto
672 hlineto
endchar
                </CharString>
                <CharString name="greater_equal_greater.liga">
                    -24 703 -519 103 142 102 hstemhm
-1180 1733 hintmask 01110000
159 598 rmoveto
91 -91 rlineto
-1092 hlineto
hintmask 10010000
-166 172 -83 -81 276 -276 -2 -12 -363 -239 50 -95 rlineto
hintmask 01110000
275 184 rlineto
1060 hlineto
-135 -89 rlineto
hintmask 10010000
50 -95 415 278 18 102 -311 323 rlineto
hintmask 01110000
120 -416 rmoveto
-1075 hlineto
16 93 -47 49 rlineto
1096 hlineto
83 -83 -2 -12 rlineto
endchar
                </CharString>
                <CharString name="greater_greater_equal.liga">
                    -24 703 -519 103 142 102 hstemhm
-1180 1767 hintmask 10010000
-1008 679 rmoveto
-83 -81 276 -276 -2 -12 -363 -239 50 -95 415 278 18 102 rlineto
hintmask 01110000
275 151 rmoveto
hintmask 10010000
-166 172 -83 -81 276 -276 -2 -12 -363 -239 50 -95 rlineto
hintmask 01110000
275 184 rlineto
954 hlineto
21 103 rlineto
-833 hlineto
16 93 -47 49 rlineto
891 hlineto
20 102 rlineto
endchar
                </CharString>
                <CharString name="hyphen_hyphen_greater.liga">
                    -24 703 -401 105 hstemhm
-1108 1661 hintmask 01100000
159 598 rmoveto
215 -215 rlineto
-1461 hlineto
-21 -105 rlineto
1492 hlineto
-314 -207 rlineto
hintmask 10100000
50 -95 415 278 18 102 -311 323 rlineto
endchar
                </CharString>
                <CharString name="less_equal_equal.liga">
                    -24 703 -519 103 142 102 hstemhm
-1153 1740 hintmask 01110000
567 405 rmoveto
20 102 rlineto
-1374 hlineto
117 77 rlineto
hintmask 10010000
-51 95 -414 -278 -18 -102 311 -323 83 81 rlineto
hintmask 01110000
-103 103 rlineto
1381 hlineto
21 103 rlineto
-1506 hlineto
-70 70 3 12 91 60 rlineto
endchar
                </CharString>
                <CharString name="less_equal_greater.liga">
                    -24 703 -519 103 142 102 hstemhm
-1153 1706 hintmask 01110000
159 598 rmoveto
91 -91 rlineto
-1037 hlineto
117 77 rlineto
hintmask 10010000
-51 95 -414 -278 -18 -102 311 -323 83 81 rlineto
hintmask 01110000
-103 103 rlineto
1067 hlineto
-135 -89 rlineto
hintmask 10010000
50 -95 415 278 18 102 -311 323 rlineto
hintmask 01110000
120 -416 rmoveto
-1328 hlineto
-70 70 3 12 91 60 rlineto
1294 hlineto
83 -83 -2 -12 rlineto
endchar
                </CharString>
                <CharString name="less_equal_less.liga">
                    -24 703 -519 103 142 102 hstemhm
-1153 1733 hintmask 01110000
580 584 rmoveto
hintmask 10010000
-51 95 rlineto
hintmask 01110000
-256 -172 rlineto
-1060 hlineto
117 77 rlineto
hintmask 10010000
-51 95 -414 -278 -18 -102 311 -323 83 81 rlineto
hintmask 01110000
-103 103 rlineto
1093 hlineto
hintmask 10010000
177 -184 83 81 -277 276 3 12 rlineto
-1253 -12 rmoveto
3 12 rlineto
hintmask 01110000
91 60 rlineto
1063 hlineto
-6 -4 -18 -102 35 -36 rlineto
-1098 hlineto
endchar
                </CharString>
                <CharString name="less_hyphen_greater.liga">
                    -24 703 -401 105 hstemhm
-1155 1708 -1706 483 740 483 hintmask 10010000
242 679 rmoveto
-83 -81 rlineto
hintmask 01010000
215 -215 rlineto
-1349 hlineto
305 201 rlineto
hintmask 10010000
-51 95 -414 -278 -18 -102 311 -323 83 81 rlineto
hintmask 01010000
-222 221 rlineto
1365 hlineto
hintmask 01011000
-314 -207 rlineto
hintmask 10011000
50 -95 415 278 rlineto
hintmask 10100000
18 102 rlineto
endchar
                </CharString>
                <CharString name="less_hyphen_hyphen.liga">
                    -24 703 -401 105 hstemhm
-1153 1650 hintmask 01100000
-975 383 rmoveto
305 201 rlineto
hintmask 10100000
-51 95 -414 -278 -18 -102 311 -323 83 81 rlineto
hintmask 01100000
-222 221 rlineto
1458 hlineto
20 105 rlineto
endchar
                </CharString>
                <CharString name="ampersand_ampersand.liga">
                    -10 107 hstem
-487 116 394 116 vstem
-487 132 rmoveto
-86 47 -56 90 71 77 38 77 81 vhcurveto
102 -179 268 32 140 147 30 -43 34 -42 38 -42 100 73 rcurveline
-46 51 -39 48 -33 47 43 53 44 65 44 75 -99 35 rcurveline
-29 -57 -28 -48 -27 -41 -32 58 -22 56 -11 55 rrcurveto
70 66 40 72 53 vvcurveto
44 -34 27 -48 -70 -78 -84 -127 -10 0 -11 1 -11 vhcurveto
-147 -119 -67 -115 -101 vvcurveto
-14 vlineto
-22 27 -20 26 -18 26 43 53 44 65 44 75 -99 35 rcurveline
-29 -57 -28 -48 -27 -41 -32 58 -22 56 -11 55 rrcurveto
70 66 40 72 53 vvcurveto
44 -34 27 -48 -70 -78 -84 -127 -10 0 -11 1 -11 vhcurveto
-147 -119 -67 -115 -101 vvcurveto
116 29 rmoveto
58 42 70 76 74 vhcurveto
18 -59 28 -62 37 -63 rrcurveto
-58 -56 -50 -24 -37 hhcurveto
-36 -22 22 42 hvcurveto
510 hmoveto
58 42 70 76 74 vhcurveto
18 -59 28 -62 37 -63 rrcurveto
-58 -56 -50 -24 -37 hhcurveto
-36 -22 22 42 hvcurveto
endchar
                </CharString>
                <CharString name="bar_bar.liga">
                    -202 993 hstem
-366 308 113 308 vstem
-173 788 rmoveto
-193 -990 rlineto
114 hlineto
194 993 rlineto
306 -3 rmoveto
-193 -990 rlineto
114 hlineto
194 993 rlineto
endchar
                </CharString>
                <CharString name="bar_greater.liga">
                    -202 993 hstem
-334 727 vstem
-141 788 rmoveto
-193 -990 rlineto
114 hlineto
595 456 18 102 -419 435 rlineto
-163 -836 rmoveto
136 698 328 -331 -2 -12 rlineto
endchar
                </CharString>
                <CharString name="colon_equal.liga">
                    132 158 87 158 hstem
-377 789 vstem
-175 377 rmoveto
33 158 rlineto
-158 hlineto
-30 -158 rlineto
742 130 rmoveto
-457 hlineto
-21 -102 rlineto
458 hlineto
-614 -273 rmoveto
33 158 rlineto
-158 hlineto
-30 -158 rlineto
742 131 rmoveto
-458 hlineto
-21 -103 rlineto
458 hlineto
endchar
                </CharString>
                <CharString name="equal_equal.liga">
                    160 103 142 102 hstem
-564 1151 vstem
587 507 rmoveto
-1082 hlineto
-21 -102 rlineto
1083 hlineto
-27 -142 rmoveto
-1083 hlineto
-21 -103 rlineto
1083 hlineto
endchar
                </CharString>
                <CharString name="equal_greater.liga">
                    -24 703 -519 103 142 102 hstemhm
-564 1117 hintmask 01110000
159 598 rmoveto
91 -91 rlineto
-745 hlineto
-21 -102 rlineto
868 hlineto
83 -83 -2 -12 -71 -47 rlineto
-905 hlineto
-21 -103 rlineto
769 hlineto
-135 -89 rlineto
hintmask 10010000
50 -95 415 278 18 102 -311 323 rlineto
endchar
                </CharString>
                <CharString name="exclam_equal.liga">
                    -209 1015 -646 103 142 102 hstemhm
-564 1151 -980 770 hintmask 01110000
587 507 rmoveto
-386 hlineto
hintmask 01101000
176 259 rlineto
hintmask 10001000
-100 40 rlineto
hintmask 01101000
-204 -299 rlineto
-568 hlineto
-21 -102 rlineto
520 hlineto
-97 -142 rlineto
-450 hlineto
-21 -103 rlineto
401 hlineto
-230 -338 rlineto
hintmask 10001000
107 -31 rlineto
hintmask 01001000
251 369 rlineto
554 hlineto
21 103 rlineto
-505 hlineto
hintmask 01101000
97 142 rlineto
435 hlineto
endchar
                </CharString>
                <CharString name="greater_equal.liga">
                    -71 663 hstem
-462 761 vstem
-427 -27 rmoveto
819 304 20 103 -696 300 -56 -88 592 -258 -2 -12 -706 -262 rlineto
829 122 rmoveto
-868 -322 29 -87 819 304 rlineto
endchar
                </CharString>
                <CharString name="hyphen_greater.liga">
                    -24 703 -401 105 hstemhm
-483 1036 hintmask 01100000
159 598 rmoveto
215 -215 rlineto
-836 hlineto
-21 -105 rlineto
867 hlineto
-314 -207 rlineto
hintmask 10100000
50 -95 415 278 18 102 -311 323 rlineto
endchar
                </CharString>
                <CharString name="hyphen_hyphen.liga">
                    278 105 hstem
-414 355 121 355 vstem
-59 383 rmoveto
-334 hlineto
-21 -105 rlineto
335 hlineto
496 105 rmoveto
-334 hlineto
-21 -105 rlineto
335 hlineto
endchar
                </CharString>
                <CharString name="less_bar.liga">
                    -202 993 hstem
-338 709 vstem
-320 401 rmoveto
-18 -102 401 -501 rlineto
114 hlineto
194 993 -115 -3 rlineto
-477 -455 rmoveto
3 12 445 295 -135 -694 rlineto
endchar
                </CharString>
                <CharString name="less_equal.liga">
                    -227 907 hstem
-385 893 vstem
-186 322 rmoveto
2 12 692 258 -22 88 -812 -300 -20 -103 701 -304 63 87 rlineto
-102 -287 rmoveto
63 87 -743 322 -21 -105 rlineto
endchar
                </CharString>
                <CharString name="less_hyphen.liga">
                    -24 703 -401 105 hstemhm
-528 1025 hintmask 01100000
-350 383 rmoveto
305 201 rlineto
hintmask 10100000
-51 95 -414 -278 -18 -102 311 -323 83 81 rlineto
hintmask 01100000
-222 221 rlineto
833 hlineto
20 105 rlineto
endchar
                </CharString>
                <CharString name="less_slash.liga">
                    -209 1015 -830 703 hstemhm
-528 483 -277 770 hintmask 10100000
-151 74 rmoveto
-260 259 3 12 363 239 rlineto
hintmask 01100000
-51 95 -414 -278 -18 -102 311 -323 rlineto
hintmask 01010000
-105 -154 rlineto
hintmask 10010000
107 -31 663 975 -100 40 rlineto
endchar
                </CharString>
                <CharString name="plus_plus.liga">
                    279 103 hstem
-489 511 vstem
360 579 rmoveto
-110 hlineto
-38 -197 rlineto
-380 hlineto
38 197 rlineto
-110 hlineto
-38 -197 rlineto
-190 hlineto
-21 -103 rlineto
191 hlineto
-39 -198 rlineto
110 hlineto
39 198 rlineto
380 hlineto
-39 -198 rlineto
110 hlineto
39 198 rlineto
189 hlineto
21 103 rlineto
-190 hlineto
endchar
                </CharString>
                <CharString name="question_question.liga">
                    0 144 hstem
-93 138 312 138 vstem
-381 633 rmoveto
191 -22 97 -27 -71 vvcurveto
-57 -60 -50 -172 -89 vhcurveto
38 -64 rlineto
239 118 93 91 94 vvcurveto
107 -128 63 -271 28 vhcurveto
423 -121 rmoveto
191 -22 97 -27 -71 vvcurveto
-57 -60 -50 -172 -89 vhcurveto
38 -64 rlineto
239 118 93 91 94 vvcurveto
107 -128 63 -271 28 vhcurveto
-358 -754 rmoveto
29 144 rlineto
-150 hlineto
-29 -144 rlineto
600 hmoveto
29 144 rlineto
-150 hlineto
-29 -144 rlineto
endchar
                </CharString>
                <CharString name="slash_greater.liga">
                    -209 1015 -830 703 hstemhm
-468 770 -232 483 hintmask 10100000
302 766 rmoveto
-100 40 -670 -984 107 -31 537 790 259 -259 -2 -12 rlineto
hintmask 10010000
-363 -239 rlineto
hintmask 01010000
50 -95 415 278 18 102 -311 322 rlineto
endchar
                </CharString>
                <CharString name="underscore_underscore.liga">
                    -149 93 hstem
-701 1275 vstem
574 -56 rmoveto
-1258 hlineto
-17 -93 rlineto
1258 hlineto
endchar
                </CharString>
                <CharString name="ampersand.spacer">
                    endchar
                </CharString>
                <CharString name="bar.spacer">
                    endchar
                </CharString>
                <CharString name="colon.spacer">
                    endchar
                </CharString>
                <CharString name="equal.spacer">
                    endchar
                </CharString>
                <CharString name="exclam.spacer">
                    endchar
                </CharString>
                <CharString name="greater.spacer">
                    endchar
                </CharString>
                <CharString name="hyphen.spacer">
                    endchar
                </CharString>
                <CharString name="less.spacer">
                    endchar
                </CharString>
                <CharString name="LIG">
                    endchar
                </CharString>
                <CharString name="percent.alt">
                    -65 73 -60 763 -534 72 162 73 169 72 -54 54 hstemhm
24 579 -533 80 107 79 -40 80 106 80 hintmask 1011011000000000
167 411 rmoveto
hintmask 1011010010000000
84 67 66 96 18 hvcurveto
94 18 -34 58 -81 hhcurveto
hintmask 1011010100000000
-84 -67 -67 -95 -18 hvcurveto
-94 -18 34 -58 81 hhcurveto
hintmask 0100000100000000
361 300 rmoveto
hintmask 0100001000000000
-504 -740 81 -23 498 733 rlineto
hintmask 1011101000000000
-384 -28 rmoveto
hintmask 1011100010000000
37 11 -33 -55 -10 hvcurveto
-51 -10 -23 -30 -36 hhcurveto
hintmask 1011100100000000
-36 -13 32 56 11 hvcurveto
51 10 22 30 37 hhcurveto
174 -718 rmoveto
hintmask 1011100000100000
83 67 66 96 19 hvcurveto
94 18 -35 58 -81 hhcurveto
hintmask 1011100001000000
-83 -67 -67 -95 -18 hvcurveto
-94 -19 34 -58 82 hhcurveto
51 242 rmoveto
hintmask 1011100000100000
37 12 -33 -55 -11 hvcurveto
-51 -10 -23 -30 -36 hhcurveto
hintmask 1011100001000000
-36 -12 32 56 11 hvcurveto
51 9 22 30 37 hhcurveto
endchar
                </CharString>
                <CharString name="plus.spacer">
                    endchar
                </CharString>
                <CharString name="question.spacer">
                    endchar
                </CharString>
                <CharString name="slash.spacer">
                    endchar
                </CharString>
                <CharString name="underscore.spacer">
                    endchar
                </CharString>
                <CharString name="uniE0A0">
                    -136 63 193 127 320 -20 20 64 64 64 hstemhm
0 64 0 128 0 64 128 64 0 128 0 64 hintmask 0000000000000000
hintmask 1101101010100000
512 631 rmoveto
-71 -57 -57 -71 hvcurveto
hintmask 1110101001000000
-47 26 -41 38 -22 vhcurveto
-18 vlineto
-64 -64 -64 -64 -53 -42 -11 -18 -33 vhcurveto
303 vlineto
hintmask 1110110110100000
38 22 26 41 47 vvcurveto
71 -57 57 -71 -71 -57 -57 -71 vhcurveto
hintmask 1110101010100000
-47 26 -41 38 -22 vhcurveto
-419 vlineto
hintmask 1110110101000000
-38 -22 -26 -41 -47 vvcurveto
-71 57 -57 71 71 57 57 71 34 -13 30 -21 23 vhcurveto
23 19 30 18 49 hhcurveto
128 128 128 128 hvcurveto
18 vlineto
hintmask 1110101010100000
38 22 26 41 47 vvcurveto
hintmask 1101101010100000
71 -57 57 -71 vhcurveto
hintmask 1110110110100000
-384 63 rmoveto
35 29 -29 -35 -35 -29 -29 -35 -35 -29 29 35 35 29 29 35 hvcurveto
384 -256 rmoveto
hintmask 1101101010100000
-35 -29 29 35 35 29 29 35 35 29 -29 -35 hvcurveto
hintmask 1110110110100000
-35 -29 -29 -35 vhcurveto
-384 -512 rmoveto
-35 -29 29 35 35 29 29 35 35 29 -29 -35 -35 -29 -29 -35 hvcurveto
endchar
                </CharString>
                <CharString name="uniE0B0">
                    -205 1209 hstem
-20 692 vstem
-18 1004 rmoveto
-2 -1209 692 570 rlineto
endchar
                </CharString>
                <CharString name="uniE0B2">
                    -205 1209 hstem
-20 692 vstem
672 -205 rmoveto
-2 1209 -690 -639 rlineto
endchar
                </CharString>
            <CharString index="0">
                rmoveto
-33 -26 25 63 131 73 145 87 22 35 -7 -11 37 hvcurveto
-16 -85 -26 -129 -10 -53 rrcurveto
-45 -48 -57 -34 -38 hhcurveto
348 -54 rmoveto
-11 60 -90 -27 -5 10 5 callgsubr
76 391 rlineto
17 -58 -58 8 -50 hhcurveto
-212 -133 -201 -205 -117 50 -55 66 60 76 50 63 64 hvcurveto
-9 -115 50 -42 172 103 rrcurveto
endchar
            </CharString>
            <CharString index="1">
                rmoveto
-13 63 -257 -66 -85 23 -4 121 rlinecurve
251 18 136 78 129 vvcurveto
85 -62 53 -100 -192 -149 -193 -177 -183 161 -110 314 159 vhcurveto
-166 406 rmoveto
49 31 -27 -40 -77 -102 -42 -165 -12 hvcurveto
102 20 70 96 97 hhcurveto
endchar
            </CharString>
            <CharString index="2">
                rmoveto
143 -82 84 -128 -173 -128 -163 -192 -144 82 -83 129 172 128 162 193 vhcurveto
-389 -112 rmoveto
124 66 116 96 66 39 -52 -92 -124 -65 -116 -96 -66 -40 52 92 vhcurveto
endchar
            </CharString>
            <CharString index="3">
                rmoveto
-18 60 -158 -66 -81 5 -17 116 rlinecurve
231 169 113 169 137 vvcurveto
80 -43 45 -71 -166 -189 -266 -304 -11 0 -10 1 -10 vhcurveto
-29 -19 -39 -25 -5 -3 29 -50 rcurveline
3 2 26 16 24 14 38 -153 142 -18 209 122 rrcurveto
-87 597 rmoveto
26 20 -19 -40 -81 -70 -124 -166 -140 hvcurveto
228 8 103 176 79 hhcurveto
return
            </CharString>
            <CharString index="4">
                rmoveto
55 -47 49 -149 25 vhcurveto
21 86 192 -1 23 80 rlineto
-284 hlineto
-52 -221 rlineto
152 -20 51 -28 -32 vvcurveto
-36 -53 -34 -191 16 vhcurveto
-10 -85 rlineto
254 -18 93 83 81 vvcurveto
endchar
            </CharString>
            <CharString index="5">
                rmoveto
46 -40 39 -44 35 vhcurveto
37 18 44 20 54 23 -27 52 rcurveline
-63 -27 -53 -24 -43 -22 rrcurveto
-30 24 -22 21 20 vvcurveto
30 37 20 126 -32 vhcurveto
32 88 rlineto
-185 27 -99 -68 -73 vvcurveto
return
            </CharString>
            <CharString index="6">
                rmoveto
103 80 66 95 111 -124 45 -116 -78 hvcurveto
24 59 63 59 146 29 -20 78 rcurveline
-233 -57 -85 -128 -123 vvcurveto
-104 68 -52 94 vhcurveto
14 72 rmoveto
-43 -42 26 71 6 0 7 1 6 hvcurveto
89 55 75 -29 -64 vvcurveto
-42 -27 -36 -53 vhcurveto
endchar
            </CharString>
            <CharString index="7">
                rmoveto
-303 hlineto
38 195 rlineto
252 hlineto
18 92 rlineto
-252 hlineto
37 191 rlineto
298 hlineto
21 105 rlineto
-423 hlineto
-134 -688 rlineto
420 hlineto
endchar
            </CharString>
            <CharString index="8">
                rmoveto
23 78 rlineto
-57 hlineto
27 138 -89 -7 -25 -131 rlineto
-135 hlineto
52 76 40 76 44 127 -101 5 rcurveline
-38 -126 -37 -78 -54 -93 -7 -65 rcurveline
221 hlineto
-16 -82 rlineto
87 hlineto
16 82 rlineto
return
            </CharString>
            <CharString index="9">
                rmoveto
47 -43 42 -110 27 vhcurveto
182 115 9 78 rlineto
-297 hlineto
-16 -80 rlineto
196 hlineto
-186 -115 -6 -39 rlineto
return
            </CharString>
            <CharString index="10">
                rmoveto
95 492 rlineto
153 hlineto
5 callsubr
-434 hlineto
-19 -98 rlineto
156 hlineto
-95 -492 rlineto
-154 hlineto
-19 -98 rlineto
433 hlineto
24 98 rlineto
endchar
            </CharString>
            <CharString index="11">
                rmoveto
-68 47 -99 86 -66 65 -73 -95 rcurveline
76 -53 126 -69 77 -31 rrcurveto
return
            </CharString>
            <CharString index="12">
                123 hlineto
44 130 74 262 71 296 rrcurveto
-121 hlineto
hintmask 10110000
-16 -70 -95 -416 -11 -34 rrcurveto
-4 hlineto
-16 314 rlineto
-71 hlineto
-137 -314 rlineto
-6 hlineto
3 34 64 416 11 70 rrcurveto
-124 hlineto
-43 -294 -26 -263 -5 -131 rrcurveto
121 hlineto
145 327 rlineto
endchar
            </CharString>
            <CharString index="13">
                -167 -53 rmoveto
-44 -37 19 32 20 14 21 71 40 hvcurveto
40 -29 35 -28 -26 vvcurveto
-27 -32 -22 -47 vhcurveto
endchar
            </CharString>
            <CharString index="14">
                rmoveto
82 62 -167 166 rlineto
-7 hlineto
-237 -163 53 -61 166 112 rlineto
return
            </CharString>
            <CharString index="15">
                rmoveto
-111 61 -65 91 127 103 132 150 113 -60 65 -92 -127 -103 -133 -151 vhcurveto
287 99 rmoveto
-96 -49 -100 -73 -44 -26 36 69 96 49 101 73 44 26 -36 -70 vhcurveto
endchar
            </CharString>
            <CharString index="16">
                rmoveto
-11 63 -218 -45 -18 15 26 96 rlinecurve
96 369 -102 1 rlineto
hintmask 11011000
-232 -56 9 -62 184 16 -78 -289 rlineto
hintmask 10111000
-47 -172 95 -62 296 126 rrcurveto
endchar
            </CharString>
            <CharString index="17">
                rmoveto
93 393 -117 -4 -36 -161 rlineto
-140 -42 -69 54 140 vvcurveto
157 83 174 113 62 13 -51 -107 -3 vhcurveto
117 1 rlineto
182 10 -47 86 -128 hhcurveto
-190 -155 -219 -241 hvcurveto
return
            </CharString>
            <CharString index="18">
                rmoveto
145 9 -49 58 -111 hhcurveto
-183 -156 -172 -197 -178 145 -109 306 142 hvcurveto
-11 63 rlineto
-243 -55 -77 35 126 vvcurveto
128 83 114 103 53 21 -28 -74 vhcurveto
endchar
            </CharString>
            <CharString index="19">
                rmoveto
127 -21 -59 69 -122 hhcurveto
-152 -104 -99 -111 hvcurveto
-161 271 -69 -99 vvcurveto
-57 -86 -39 -252 68 vhcurveto
hintmask 01111000
-25 -121 rlineto
hintmask 10111000
354 -72 138 113 115 153 -274 70 114 vvcurveto
50 44 41 61 63 38 -32 -82 17 vhcurveto
endchar
            </CharString>
            <CharString index="20">
                -41 -36 102 -73 hhcurveto
-59 -63 -60 -91 -54 hvcurveto
60 -34 rlineto
59 38 30 35 24 hhcurveto
return
            </CharString>
            <CharString index="21">
                rmoveto
-42 -31 29 67 105 65 129 88 24 35 -9 -21 41 hvcurveto
-25 -66 -21 -81 -7 -76 rrcurveto
-50 -42 -45 -27 -40 hhcurveto
230 -215 rmoveto
31 62 -30 83 134 vvcurveto
10 0 12 1 11 vhcurveto
hintmask 10101111
-65 callsubr
hintmask 01110111
-82 callgsubr
hintmask 10110111
-12 -114 267 -13 129 49 38 77 rlinecurve
endchar
            </CharString>
            <CharString index="22">
                109 hlineto
hintmask 11010000
134 688 rlineto
-117 hlineto
-87 -463 rlineto
-5 hlineto
hintmask 10110000
-131 465 -119 -4 -133 -686 rlineto
117 hlineto
86 469 rlineto
6 hlineto
return
            </CharString>
            <CharString index="23">
                rmoveto
173 70 170 107 31 25 -14 -28 18 vhcurveto
-249 -344 rlineto
-1 13 -1 15 15 vvcurveto
100 -166 rmoveto
-33 -26 15 29 -17 hvcurveto
251 344 rlineto
1 -14 1 -15 -16 vvcurveto
-173 -70 -170 -107 vhcurveto
-15 -105 rmoveto
187 133 211 236 hvcurveto
hintmask 10101110
68 -11 54 -21 42 vhcurveto
70 95 rlineto
hintmask 01110110
-71 46 -53 -73 rlineto
26 -35 -43 13 -49 hhcurveto
-186 -134 -210 -237 -67 11 -54 20 -41 hvcurveto
-70 -97 rlineto
hintmask 10110110
71 -46 54 74 rlineto
-27 34 43 -13 50 hhcurveto
endchar
            </CharString>
            <CharString index="24">
                rmoveto
hintmask 00111000
136 18 -143 284 rlineto
108 60 71 76 98 vvcurveto
115 -102 85 -308 -42 vhcurveto
hintmask 01011000
-132 -685 rlineto
123 hlineto
113 588 rlineto
120 15 61 -33 -68 vvcurveto
-69 -51 -57 -142 -65 vhcurveto
-2 vlineto
endchar
            </CharString>
            <CharString index="25">
                15 -35 -35 9 -38 hhcurveto
-188 -129 -184 -182 -116 57 -54 75 65 66 43 58 55 hvcurveto
5 -88 17 -74 -22 -21 -23 -23 -102 -15 -193 14 rrcurveto
return
            </CharString>
            <CharString index="26">
                rmoveto
-7 61 -220 -59 -33 32 25 105 rlinecurve
57 260 rlineto
203 hlineto
18 93 rlineto
-200 hlineto
35 161 -91 -7 -95 -154 rlineto
-67 hlineto
-23 -93 rlineto
102 hlineto
-59 -267 -42 -184 110 -97 287 149 rlinecurve
return
            </CharString>
            <CharString index="27">
                -6 7 -7 104 -76 -21 303 87 201 104 hstemhm
469 124 hintmask 10011100
-9 callsubr
-57 -294 rlineto
-69 hlineto
-17 -87 rlineto
69 hlineto
hintmask 00111100
-58 -303 rlineto
hintmask 10011100
393 -51 156 228 251 vvcurveto
-249 -125 rmoveto
22 87 rlineto
-123 hlineto
39 201 rlineto
126 12 61 -59 -128 vvcurveto
hintmask 01011100
-175 -93 -157 -189 13 vhcurveto
40 206 rlineto
endchar
            </CharString>
            <CharString index="28">
                rmoveto
hintmask 10010000
286 68 89 87 82 vvcurveto
hintmask 11001000
70 -71 58 42 vvcurveto
31 36 25 130 6 vhcurveto
19 86 rlineto
hintmask 10101000
-94 13 -44 26 35 vvcurveto
hintmask 11001000
55 132 36 100 vvcurveto
74 -78 57 -210 93 vhcurveto
-50 -89 rlineto
149 -64 67 -44 -49 vvcurveto
hintmask 10101000
-68 -126 -37 -83 vvcurveto
-38 25 -36 74 -24 vhcurveto
hintmask 11001000
-101 -26 -39 -53 -44 vvcurveto
hintmask 10010000
-55 67 -65 -43 vvcurveto
-51 -83 -38 -200 -36 vhcurveto
endchar
            </CharString>
            <CharString index="29">
                rmoveto
-36 -28 32 72 124 74 139 87 22 36 -6 -12 38 hvcurveto
-53 -272 rlineto
-43 -46 -56 -34 -38 hhcurveto
hintmask 01011110
350 -52 rmoveto
-11 58 -94 -29 -5 9 11 62 rlinecurve
124 634 -119 -9 -41 -210 rlineto
hintmask 10101110
3 -21 -20 1 -19 hhcurveto
-207 -132 -197 -199 -123 53 -61 68 59 73 49 61 62 hvcurveto
hintmask 01011110
-9 -112 50 -38 178 101 rrcurveto
endchar
            </CharString>
            <CharString index="30">
                17 -21 25 -5 callsubr
185 93 301 106 return
            </CharString>
            <CharString index="31">
                -64 callgsubr
hintmask 10001101
57 69 179 109 vvcurveto
60 -24 49 -75 -67 -71 -39 -74 -72 vhcurveto
hintmask 01010110
6 43 7 52 1 8 -118 -7 rcurveline
-23 -163 -25 -125 -50 -262 rrcurveto
117 hlineto
hintmask 10100101
7 37 52 259 14 72 rrcurveto
56 58 50 29 38 hhcurveto
33 14 -20 -35 hvcurveto
hintmask 10001110
-58 callgsubr
return
            </CharString>
            <CharString index="32">
                rmoveto
12 hlineto
hintmask 11111000
-61 -312 rlineto
-95 hlineto
hintmask 10111000
48 104 48 105 48 103 rrcurveto
-103 -586 rmoveto
276 hlineto
26 102 rlineto
-177 hlineto
40 202 rlineto
139 hlineto
16 85 rlineto
-139 hlineto
39 197 rlineto
171 hlineto
20 102 rlineto
-358 hlineto
-116 -229 -116 -231 -112 -228 rrcurveto
122 hlineto
hintmask 11111000
29 61 29 62 29 62 rrcurveto
118 hlineto
endchar
            </CharString>
            <CharString index="33">
                21 109 -329 -2 417 476 18 105 rlineto
-461 hlineto
-21 -109 324 3 -421 -477 -19 -105 rlineto
endchar
            </CharString>
            <CharString index="34">
                29 106 -315 -4 373 350 20 101 rlineto
-436 hlineto
-29 -106 306 4 -374 -350 18 callsubr
            </CharString>
            <CharString index="35">
                -102 -58 -23 -39 -43 vvcurveto
-61 58 -42 96 vhcurveto
return
            </CharString>
            <CharString index="36">
                22 106 rlineto
-315 hlineto
112 582 -32 callsubr
-33 callsubr
return
            </CharString>
            <CharString index="37">
                rmoveto
234 57 85 128 123 vvcurveto
104 -69 52 -94 -103 -80 -66 -95 vhcurveto
hintmask 01111000
-111 126 -44 116 78 vhcurveto
-25 -60 -64 -59 -146 -29 rrcurveto
hintmask 10111000
82 236 rmoveto
42 27 36 53 44 42 -26 -71 -6 0 -6 -1 -7 vhcurveto
-90 -55 -75 29 64 vvcurveto
endchar
            </CharString>
            <CharString index="38">
                0 168 -147 -22 callsubr
hstemhm
342.5 66.5 hintmask 01110000
return
            </CharString>
            <CharString index="39">
                -235 81 159 -21 141.5 79.5 return
            </CharString>
            <CharString index="40">
                78 -78 79 218.5 154 hstemhm
return
            </CharString>
            <CharString index="41">
                535 616 rmoveto
55 -47 49 -149 25 vhcurveto
21 86 192 -1 23 80 rlineto
-284 hlineto
-52 -221 rlineto
return
            </CharString>
            <CharString index="42">
                hstem
65 116 273 114 vstem
return
            </CharString>
            <CharString index="43">
                rmoveto
-12 60 rlineto
-71 -24 -11 5 26 vvcurveto
return
            </CharString>
            <CharString index="44">
                0 105 195 92 191 105 return
            </CharString>
            <CharString index="45">
                -173 -21 132 85 hstem
325 104 vstem
185 -169 rmoveto
-55 callsubr
104 2 rlineto
148 9 -63 69 -79 hhcurveto
-68 -55 -54 -118 -49 hvcurveto
endchar
            </CharString>
            <CharString index="46">
                rmoveto
294 206 112 169 186 vvcurveto
137 -64 147 -157 182 vhcurveto
-93 -67 rlineto
143 -158 53 -125 -118 vvcurveto
-156 -80 -141 -273 -183 vhcurveto
endchar
            </CharString>
            <CharString index="47">
                253 -25 90 81 74 vvcurveto
return
            </CharString>
            <CharString index="48">
                103 vstem
507 472 rmoveto
-98 callsubr
return
            </CharString>
            <CharString index="49">
                -83 -67 -169 -85 -51 callsubr
return
            </CharString>
            <CharString index="50">
                778 -42 callgsubr
140 411 hintmask 01100000
313 615 rmoveto
hintmask 10100000
238 163 rlineto
hintmask 01100000
-54 61 -166 -112 -109 116 -82 -62 166 -166 rlineto
endchar
            </CharString>
            <CharString index="51">
                hstem
57 122 267 122 vstem
return
            </CharString>
            <CharString index="52">
                0 8 -2 3 -4 -4 -2 -3 0 hflex1
0 -9 2 -3 4 4 2 3 0 hflex1
return
            </CharString>
            <CharString index="53">
                -189 110 115 106 413 -20 29 -20 return
            </CharString>
            <CharString index="54">
                -17 callsubr
hintmask 10010000
108 102 -27 71 -79 hhcurveto
-69 -73 -58 -76 -21 5 -20 8 -20 hvcurveto
-37 -34 -55 -39 -80 -52 27 -54 rcurveline
75 40 61 38 48 35 rrcurveto
return
            </CharString>
            <CharString index="55">
                -15 108 595 -20 hstem
77 126 vstem
return
            </CharString>
            <CharString index="56">
                -12 106 350 110 0 -20 return
            </CharString>
            <CharString index="57">
                0 108 472.5 107.5 return
            </CharString>
            <CharString index="58">
                -9 107 -86 -21 606 104 hstemhm
129 126 145 129 hintmask 10111000
return
            </CharString>
            <CharString index="59">
                -36 28 -33 35 -29 vhcurveto
return
            </CharString>
            <CharString index="60">
                135 16 -173 216 rlineto
144 91 57 84 70 vvcurveto
59 -39 39 -68 -69 -80 -41 -79 -79 vhcurveto
65 335 -120 -9 rlineto
return
            </CharString>
            <CharString index="61">
                81 4 -20 154 -20 161.5 79.5 hstemhm
return
            </CharString>
            <CharString index="62">
                85.5 6 callgsubr
return
            </CharString>
            <CharString index="63">
                hstemhm
362 126 -59 128 return
            </CharString>
            <CharString index="64">
                638.5 6 callgsubr
232 179 vstem
363 639 -77 callsubr
endchar
            </CharString>
            <CharString index="65">
                9 callsubr
hstemhm
return
            </CharString>
            <CharString index="66">
                0 142 410 -20 hstem
66 567 vstem
return
            </CharString>
            <CharString index="67">
                hstemhm
405 133 return
            </CharString>
            <CharString index="68">
                -65 49 -61 -68 rlineto
26 -34 -44 14 -52 hhcurveto
-173 -128 -163 -192 -51 10 -43 19 -34 hvcurveto
-72 -80 rlineto
return
            </CharString>
            <CharString index="69">
                -12 95 476 -20 hstemhm
126 191 -2 124 hintmask 11010000
return
            </CharString>
            <CharString index="70">
                -58 callgsubr
endchar
            </CharString>
            <CharString index="71">
                rmoveto
353 hlineto
19 96 rlineto
-233 hlineto
151 780 rlineto
233 hlineto
19 96 rlineto
-352 hlineto
endchar
            </CharString>
            <CharString index="72">
                12 -21 30 -21 30 -21 582 105 hstemhm
465 125 return
            </CharString>
            <CharString index="73">
                -13 55 rlineto
-108 -36 -43 17 34 vvcurveto
return
            </CharString>
            <CharString index="74">
                -14 99 384 99 return
            </CharString>
            <CharString index="75">
                90 -28 89 99 88 return
            </CharString>
            <CharString index="76">
                665 101 hstem
119 403 vstem
522 766 -76 callsubr
endchar
            </CharString>
            <CharString index="77">
                rmoveto
-11 59 rlineto
-154 -59 -45 22 94 vvcurveto
9 0 9 1 10 vhcurveto
182 28 77 100 106 vvcurveto
return
            </CharString>
            <CharString index="78">
                -136 -172 -136 -169 -237 vhcurveto
70 12 rmoveto
190 101 140 128 97 74 return
            </CharString>
            <CharString index="79">
                rmoveto
225 233 25 122 -143 232 -99 -64 144 -225 -228 -223 rlineto
return
            </CharString>
            <CharString index="80">
                -15 callsubr
22 -20 hstemhm
40 return
            </CharString>
            <CharString index="81">
                -234 82 -35 35 return
            </CharString>
            <CharString index="82">
                hstemhm
188 125 return
            </CharString>
            <CharString index="83">
                505 hmoveto
-71 callgsubr
return
            </CharString>
            <CharString index="84">
                81 279.5 13 callsubr
return
            </CharString>
            <CharString index="85">
                rmoveto
30 158 rlineto
-155 hlineto
-30 -158 rlineto
return
            </CharString>
            <CharString index="86">
                -15 105 -72 -21 560 -20 62 104 -12 -20 hstemhm
67 128 277 128 hintmask 10110110
return
            </CharString>
            <CharString index="87">
                hhcurveto
62 5 -69 -89 -64 hvcurveto
51 -20 rlineto
157 139 -15 148 -130 hhcurveto
return
            </CharString>
            <CharString index="88">
                132 55 155 69 17 21 -4 -19 26 vhcurveto
-47 -74 -30 -101 -107 vvcurveto
-3 vlineto
return
            </CharString>
            <CharString index="89">
                518 472 rmoveto
return
            </CharString>
            <CharString index="90">
                64 hstem
53 70 400 70 vstem
53 274 rmoveto
-170 93 -96 133 return
            </CharString>
            <CharString index="91">
                hintmask 000000000000000100000010000000000000000000000000
return
            </CharString>
            <CharString index="92">
                hstemhm
66 -32 callgsubr
return
            </CharString>
            <CharString index="93">
                -125 hlineto
return
            </CharString>
            <CharString index="94">
                -6 7 -7 104 -76 -21 591 104 hstemhm
469 124 hintmask 10011000
return
            </CharString>
            <CharString index="95">
                230 218 -74 77 -227 -227 -27 -122 rlineto
endchar
            </CharString>
            <CharString index="96">
                hstemhm
79 123 return
            </CharString>
            <CharString index="97">
                19 hhcurveto
208 133 198 199 123 -54 61 -68 return
            </CharString>
            <CharString index="98">
                -40 callsubr
-66 callsubr
return
            </CharString>
            <CharString index="99">
                hstemhm
70 125 268 117 return
            </CharString>
            <CharString index="100">
                13 -21 29 -21 29 -21 return
            </CharString>
            <CharString index="101">
                95 192 95 vstem
return
            </CharString>
            <CharString index="102">
                91 165 89 return
            </CharString>
            <CharString index="103">
                110 -69 116 -90 114 -14 122 hintmask 11001000
return
            </CharString>
            <CharString index="104">
                165 -116 11 -35 -165 -167 17 -19 -96 return
            </CharString>
            <CharString index="105">
                10 hlineto
0 6 -1 3 -4 -3 -2 -2 0 hflex1
return
            </CharString>
            <CharString index="106">
                100 rrcurveto
endchar
            </CharString>
            <CharString index="107">
                hstemhm
30 123 111 113 149 111 return
            </CharString>
            <CharString index="108">
                -6 2 -3 5 4 2 2 4 1 vhcurveto
5 hlineto
return
            </CharString>
            <CharString index="109">
                72 370 rlineto
-81 hlineto
-98 -201 rlineto
-3 hlineto
return
            </CharString>
            <CharString index="110">
                hintmask 100000000000000000000000000000001000000000000000
return
            </CharString>
            <CharString index="111">
                hstemhm
75 121 202 103 return
            </CharString>
            <CharString index="112">
                12 60 rlinecurve
return
            </CharString>
            <CharString index="113">
                150 hstem
return
            </CharString>
            <CharString index="114">
                -23 202 -79 -2 -72 -369 rlineto
71 hlineto
return
            </CharString>
            <CharString index="115">
                21 -21 582 106 hstem
111 542 vstem
return
            </CharString>
            <CharString index="116">
                -12 103 373 103 return
            </CharString>
            <CharString index="117">
                19 callgsubr
hintmask 11011110
return
            </CharString>
            <CharString index="118">
                45 48 59 35 39 hhcurveto
36 29 -32 -73 return
            </CharString>
            <CharString index="119">
                -80 87 -120 -183 -138 -216 return
            </CharString>
            <CharString index="120">
                vvcurveto
-75 94 -49 179 88 vhcurveto
endchar
            </CharString>
            <CharString index="121">
                -239 82 282 80 return
            </CharString>
            <CharString index="122">
                89 166 91 return
            </CharString>
            <CharString index="123">
                hstemhm
60 119 210 94 hintmask 10110111
return
            </CharString>
            <CharString index="124">
                103 142 102 hstem
61 526 vstem
return
            </CharString>
            <CharString index="125">
                -14 97 -76 -21 485 97 0 -20 return
            </CharString>
            <CharString index="126">
                -20 4 callgsubr
return
            </CharString>
            <CharString index="127">
                133 688 rlineto
return
            </CharString>
</ttFont>
